<?xml version="1.0" standalone="no"?>
<!DOCTYPE svg PUBLIC "-//W3C//DTD SVG 20010904//EN"
 "http://www.w3.org/TR/2001/REC-SVG-20010904/DTD/svg10.dtd">
<svg version="1.0" xmlns="http://www.w3.org/2000/svg"
 width="512.000000pt" height="512.000000pt" viewBox="0 0 512.000000 512.000000"
 preserveAspectRatio="xMidYMid meet">

<g transform="translate(0.000000,512.000000) scale(0.100000,-0.100000)"
fill="#000000" stroke="none">
<path d="M4744 5102 c-65 -23 -345 -230 -749 -551 -398 -317 -691 -571 -1157
-1000 -81 -74 -75 -83 -81 139 -4 125 -9 169 -27 225 -80 252 -268 437 -510
502 -250 66 -758 -59 -1125 -278 -379 -226 -669 -542 -865 -944 -112 -228
-176 -437 -212 -690 -19 -136 -16 -475 5 -610 86 -528 325 -974 706 -1318 356
-322 780 -511 1271 -568 147 -17 441 -7 595 20 670 118 1236 519 1570 1111
200 354 316 855 251 1090 -51 186 -191 356 -366 443 -134 66 -188 79 -375 84
-88 3 -165 8 -171 12 -7 3 60 83 162 195 443 480 845 963 1238 1486 196 262
221 309 213 401 -17 190 -200 313 -373 251z m141 -168 c42 -20 69 -73 61 -119
-9 -48 -394 -556 -715 -945 -327 -396 -843 -968 -1022 -1134 -78 -72 -166
-121 -236 -132 l-45 -7 -165 164 -164 164 5 45 c9 69 59 161 133 239 71 78
396 383 608 572 386 344 859 729 1297 1054 163 121 181 129 243 99z m-2664
-698 c172 -60 301 -204 349 -391 15 -57 20 -111 20 -200 0 -67 7 -163 16 -213
l16 -92 -46 -51 c-53 -59 -110 -170 -129 -247 -10 -43 -16 -54 -37 -59 -32 -8
-208 -179 -225 -219 -12 -29 -17 -31 -78 -38 -81 -8 -171 -37 -262 -84 -135
-70 -301 -262 -405 -470 -66 -134 -140 -379 -140 -467 0 -23 -3 -25 -48 -25
-160 0 -310 -96 -383 -246 -32 -66 -34 -74 -34 -179 0 -108 1 -113 37 -186 46
-93 112 -158 206 -202 63 -30 74 -32 177 -32 103 0 114 2 177 32 145 68 235
197 245 352 6 77 7 81 30 81 86 0 332 74 465 140 208 104 400 270 470 405 47
91 76 181 84 262 6 59 9 65 38 80 46 22 204 183 216 218 9 26 18 32 62 43 76
17 185 74 246 128 l52 46 88 -16 c50 -9 140 -16 213 -16 213 0 346 -48 470
-170 83 -82 134 -181 150 -291 9 -62 8 -97 -5 -190 -98 -678 -508 -1250 -1113
-1553 -298 -149 -587 -216 -926 -216 -549 1 -1051 209 -1441 597 -374 372
-581 849 -603 1388 -27 675 289 1320 847 1731 224 165 518 294 795 349 203 40
293 40 406 1z m539 -1831 l-60 -60 -177 177 -178 178 60 60 60 60 177 -177
178 -178 -60 -60z m-358 -2 l158 -158 0 -65 c0 -173 -93 -338 -263 -465 -83
-63 -182 -119 -269 -154 -148 -59 -147 -58 27 117 147 149 159 164 159 198 0
46 -39 84 -87 84 -27 0 -61 -29 -282 -250 l-251 -251 -74 -6 -73 -6 5 72 5 73
252 252 c226 227 251 255 251 285 0 23 -9 41 -30 63 -52 51 -72 40 -254 -140
-175 -173 -176 -173 -111 -13 79 193 245 396 376 460 89 43 150 59 234 60 l70
1 157 -157z m-1120 -958 c7 -105 58 -156 163 -163 l65 -4 0 -42 c0 -55 -41
-137 -88 -176 -79 -65 -195 -77 -288 -28 -193 100 -172 387 34 463 20 7 53 14
73 14 l37 1 4 -65z"/>
<path d="M1267 3709 c-112 -26 -219 -115 -274 -226 -33 -67 -38 -86 -41 -167
-3 -74 0 -103 18 -155 75 -222 304 -340 528 -272 166 50 284 198 299 371 17
198 -107 382 -296 441 -66 20 -167 24 -234 8z m214 -183 c47 -22 95 -70 122
-120 34 -64 30 -165 -7 -234 -48 -86 -128 -132 -230 -132 -60 0 -138 33 -178
76 -124 133 -71 357 98 420 50 18 148 13 195 -10z"/>
<path d="M775 2720 c-109 -22 -228 -105 -282 -198 -155 -265 -4 -589 300 -642
178 -31 366 69 450 239 30 63 32 72 32 181 0 110 -1 118 -33 183 -87 177 -279
274 -467 237z m195 -190 c91 -46 140 -127 140 -230 0 -148 -108 -255 -255
-254 -70 1 -117 19 -169 64 -59 53 -81 102 -81 190 0 90 22 139 87 194 77 67
190 81 278 36z"/>
<path d="M3161 1770 c-153 -56 -258 -185 -283 -347 -27 -174 76 -366 237 -440
216 -98 465 -5 568 214 25 55 32 83 35 153 8 177 -79 325 -237 403 -58 28 -76
32 -165 35 -82 2 -112 -2 -155 -18z m208 -156 c145 -43 221 -212 157 -349 -43
-93 -129 -148 -231 -148 -138 0 -241 97 -253 238 -9 112 62 219 170 256 66 23
90 23 157 3z"/>
<path d="M2175 1262 c-77 -26 -138 -66 -188 -122 -191 -213 -128 -540 130
-667 65 -32 86 -37 163 -41 151 -7 278 51 364 168 61 83 81 145 81 255 0 102
-17 157 -73 244 -96 145 -314 219 -477 163z m225 -173 c55 -25 105 -71 133
-124 30 -57 30 -174 0 -231 -101 -190 -371 -190 -459 1 -28 60 -32 163 -9 218
54 129 210 193 335 136z"/>
</g>
</svg>
