<?xml version="1.0" encoding="UTF-8"?>
<svg version="1.1" xmlns="http://www.w3.org/2000/svg" width="512" height="512">
<path d="M0 0 C168.96 0 337.92 0 512 0 C512 168.96 512 337.92 512 512 C343.04 512 174.08 512 0 512 C0 343.04 0 174.08 0 0 Z " fill="#F5F5F5" transform="translate(0,0)"/>
<path d="M0 0 C0.62583984 0.29003906 1.25167969 0.58007812 1.89648438 0.87890625 C6.09142871 3.00048729 8.96552939 5.51563165 12.2454071 8.88793945 C17.94825775 14.05339824 22.30011336 14.63467648 29.80786133 14.59375 C31.55434212 14.63720299 31.55434212 14.63720299 33.33610535 14.68153381 C37.16856645 14.76666353 40.99873507 14.78976633 44.83203125 14.8125 C47.52856691 14.85564754 50.22477696 14.91222498 52.92106628 14.96850586 C59.29980962 15.09412936 65.67829771 15.17549439 72.05791825 15.24027729 C79.9097146 15.32205403 87.76035955 15.45936363 95.61132812 15.59765625 C103.67911523 15.73829294 111.74670757 15.87390356 119.81513977 15.97265625 C134.57694969 16.15638668 149.31819538 16.53529417 164.07118225 17.07620239 C173.08347476 17.40379769 182.09702638 17.59922315 191.11328125 17.77734375 C192.93981854 17.81502379 194.76635141 17.85291862 196.59288025 17.89100647 C200.43669901 17.97095335 204.28053583 18.04993104 208.12438965 18.12817383 C218.34480598 18.33690789 228.56496175 18.55806896 238.78515625 18.77734375 C240.87930286 18.82222034 242.97344959 18.86709135 245.06759644 18.91195679 C248.20075792 18.979087 251.3339187 19.04624903 254.46707726 19.11351585 C259.57608173 19.22318956 264.68509414 19.33245774 269.79412842 19.44073486 C280.22665196 19.66211774 290.65901285 19.88879832 301.09107304 20.13113689 C305.45740967 20.23243895 309.82376078 20.3307221 314.19033813 20.42111206 C318.25591332 20.5053516 322.32120878 20.59801752 326.386446 20.69720268 C327.86203714 20.73176394 329.33770246 20.76332076 330.81342888 20.79152107 C345.11998544 21.06832954 357.22112111 22.78362111 367.75 33.3125 C388.46856673 62.92464813 375.75 97.89594041 375.75 135.3125 C206.79 135.3125 37.83 135.3125 -136.25 135.3125 C-136.25 58.76140511 -136.25 58.76140511 -109.25 28.3125 C-108.60546875 27.53648437 -107.9609375 26.76046875 -107.296875 25.9609375 C-81.12925527 -4.99344193 -37.02696442 -17.48977514 0 0 Z " fill="#040404" transform="translate(136.25,376.6875)"/>
<path d="M0 0 C0.33 0 0.66 0 1 0 C1.07476562 0.85078125 1.14953125 1.7015625 1.2265625 2.578125 C2.89332628 17.93849705 7.34753032 33.04555916 14 47 C14.47695312 48.00675781 14.95390625 49.01351562 15.4453125 50.05078125 C32.13189396 83.0611924 62.35910211 105.51485091 97 117 C129.61096081 127.46604368 162.32931771 121.88198771 194.484375 112.87109375 C201.88548191 111.03726393 209.44794857 110.00560712 217 109 C218.19850586 108.82863525 219.39701172 108.65727051 220.63183594 108.48071289 C232.26127283 106.89746297 243.77485843 106.64041108 255.5 106.6875 C256.46766296 106.68965515 257.43532593 106.6918103 258.43231201 106.69403076 C285.09646752 106.78915581 309.6778914 110.82192374 335.4453125 117.72265625 C372.14222097 127.19584125 411.27864318 123.08496369 444.4375 104.1640625 C454.49566273 98.17890303 463.54257053 91.08218516 472 83 C472.73476563 82.34 473.46953125 81.68 474.2265625 81 C496.29056396 60.41732726 507.99299292 29.46866935 511 0 C511.33 0 511.66 0 512 0 C512 65.34 512 130.68 512 198 C510.26763052 195.40144578 508.96469732 192.93239121 507.625 190.125 C502.85456029 180.63911124 496.06860357 175.48942444 486 172 C480.4098185 170.8012716 474.8367489 170.75502084 469.14428711 170.62695312 C468.058116 170.59915268 466.97194489 170.57135223 465.8528595 170.54270935 C462.2444439 170.45143159 458.63591169 170.36627495 455.02734375 170.28125 C452.4724498 170.21814042 449.91756406 170.1546982 447.36268616 170.09094238 C441.97158656 169.95728364 436.58043234 169.82631486 431.18920898 169.69775391 C424.45078577 169.53705207 417.71250302 169.37124344 410.97424698 169.20366001 C383.4160715 168.5190826 355.85786489 167.90213691 328.29567146 167.40452385 C308.74139617 167.05029654 289.19657756 166.55393041 269.64904785 165.92727661 C265.16458092 165.78374124 260.6800047 165.64412675 256.1953125 165.5078125 C255.43986145 165.48475225 254.6844104 165.46169201 253.90606689 165.43793297 C241.71033946 165.07217945 229.51749712 164.89260653 217.31709671 164.77289772 C211.59849616 164.71207521 205.88017993 164.62804993 200.16187859 164.54405499 C194.61092193 164.46547353 189.06138851 164.42557713 183.50991249 164.41361237 C180.04626945 164.39680534 176.58389347 164.34299183 173.12082291 164.27943802 C171.51338326 164.25755152 169.90564845 164.25093413 168.29809189 164.26108932 C160.36471165 164.30403724 154.41374594 164.18775838 148.20703125 158.57763672 C146.80402076 157.05237084 145.40160172 155.52656053 144 154 C141.51712523 152.29177451 138.98121684 150.95325446 136.25 149.6875 C135.56228516 149.36265625 134.87457031 149.0378125 134.16601562 148.703125 C114.0310166 139.46143881 91.72442131 139.16729003 70.90722656 146.76367188 C51.60772936 154.18450206 35.29354955 166.33705633 23 183 C22.39929688 183.79792969 21.79859375 184.59585938 21.1796875 185.41796875 C12.1719404 197.79857183 6.19185312 210.68995483 1 225 C0.67 225 0.34 225 0 225 C0 150.75 0 76.5 0 0 Z " fill="#F5F5F5" transform="translate(0,228)"/>
<path d="M0 0 C168.96 0 337.92 0 512 0 C512 67.32 512 134.64 512 204 C511.67 204 511.34 204 511 204 C510.88785156 202.32550781 510.88785156 202.32550781 510.7734375 200.6171875 C509.73982054 187.5769517 506.9214339 175.46257305 503 163 C502.77328613 162.2771582 502.54657227 161.55431641 502.31298828 160.80957031 C484.99770477 107.21896211 440.28395283 67.40059869 391.62304688 42.22949219 C375.71695542 34.20206928 359.00262735 28.25173836 342 23 C341.25024902 22.76684082 340.50049805 22.53368164 339.72802734 22.29345703 C324.18615753 17.56664478 308.04918916 15.29257917 292 13 C290.78916748 12.81824219 289.57833496 12.63648438 288.33081055 12.44921875 C282.84018934 11.77929932 277.33683671 11.81805758 271.8125 11.796875 C270.63776123 11.79117493 269.46302246 11.78547485 268.25268555 11.77960205 C265.76482026 11.77017894 263.27694264 11.76362879 260.7890625 11.75976562 C257.06747086 11.75017389 253.3464596 11.719172 249.625 11.6875 C216.46515838 11.54013704 185.4030848 17.55047499 154 28 C152.86473877 28.3724585 152.86473877 28.3724585 151.70654297 28.75244141 C123.29804143 38.20822794 95.88331501 53.72063215 73 73 C72.46665039 73.44456543 71.93330078 73.88913086 71.38378906 74.34716797 C35.37789482 104.39893637 6.39406854 147.31594795 1.875 195.0625 C1.78863281 195.92810547 1.70226562 196.79371094 1.61328125 197.68554688 C1.40400971 199.78988844 1.20130332 201.89488124 1 204 C0.67 204 0.34 204 0 204 C0 136.68 0 69.36 0 0 Z " fill="#F6F6F6" transform="translate(0,0)"/>
<path d="M0 0 C3.6179227 -0.00434064 7.23458934 -0.04067996 10.85229492 -0.07861328 C27.34031083 -0.15681698 43.1291283 1.46123655 59.3503418 4.37060547 C60.56549217 4.58733414 60.56549217 4.58733414 61.80519104 4.80844116 C66.0110305 5.56874096 70.18182598 6.42697412 74.3503418 7.37060547 C75.50663086 7.62068359 76.66291992 7.87076172 77.85424805 8.12841797 C98.41231956 12.88742931 118.43208479 20.05189054 137.3503418 29.37060547 C138.12748535 29.74765625 138.90462891 30.12470703 139.70532227 30.51318359 C156.68086295 38.81655172 173.00572988 49.02811509 187.3503418 61.37060547 C188.46552408 62.30373809 189.58147311 63.23595479 190.69799805 64.16748047 C201.67358731 73.37992881 211.46788081 83.09201668 220.3503418 94.37060547 C221.14182617 95.33353516 221.93331055 96.29646484 222.7487793 97.28857422 C237.10673333 115.1567536 247.92835401 136.38853258 254.3503418 158.37060547 C254.72030273 159.63259766 255.09026367 160.89458984 255.47143555 162.19482422 C265.89116047 199.59620194 261.40773318 239.74563061 242.5378418 273.55810547 C224.19646636 305.08843614 193.58208642 326.81978013 158.6003418 336.12060547 C155.52841294 336.92878374 152.44985354 337.67565764 149.3503418 338.37060547 C148.5346875 338.55679443 147.7190332 338.7429834 146.87866211 338.93481445 C138.83045818 340.59616158 130.79115984 340.89390223 122.6003418 340.93310547 C121.86545532 340.93772797 121.13056885 340.94235046 120.37341309 340.94711304 C105.20472723 340.96282786 91.38128319 338.16225992 76.77709961 334.28125 C36.39883402 323.55091866 -5.51317017 321.85187215 -46.6496582 329.37060547 C-48.24559721 329.63742361 -49.84191403 329.90199882 -51.4387207 330.16357422 C-57.68595528 331.22162019 -63.78876606 332.6337992 -69.8996582 334.30810547 C-71.81159152 334.82019516 -73.72358133 335.33211004 -75.63745117 335.83691406 C-76.99522813 336.19703302 -78.35101413 336.56473226 -79.70483398 336.93945312 C-114.93456656 346.43336277 -152.647101 340.07993993 -184.1496582 322.37060547 C-194.22684605 316.35944574 -203.12853489 309.41758043 -211.6496582 301.37060547 C-212.45016602 300.64615234 -213.25067383 299.92169922 -214.07543945 299.17529297 C-236.52233087 278.05301875 -250.45019417 245.4993698 -251.75952148 214.79418945 C-252.86637343 161.70715199 -233.92158428 116.3108695 -197.17260742 77.9296875 C-156.6459605 36.44152346 -99.55558337 10.34450311 -42.32226562 2.73486328 C-40.36818883 2.4685362 -38.41816784 2.17196273 -36.47119141 1.85791016 C-24.34041874 0.06456089 -12.24621074 -0.00163577 0 0 Z M-68.6496582 25.37060547 C-69.52154785 25.58555664 -70.3934375 25.80050781 -71.29174805 26.02197266 C-105.78712689 34.72878588 -139.15966992 50.67548109 -166.6496582 73.37060547 C-167.22022949 73.83966309 -167.79080078 74.3087207 -168.37866211 74.79199219 C-181.30461264 85.48313153 -192.60619696 96.9149953 -202.6496582 110.37060547 C-203.28645508 111.21236328 -203.92325195 112.05412109 -204.5793457 112.92138672 C-218.28493507 131.71130763 -227.68390333 153.71618531 -232.6496582 176.37060547 C-232.9609668 177.7221875 -232.9609668 177.7221875 -233.27856445 179.10107422 C-239.59641177 211.83901033 -232.16201533 245.9361348 -213.62231445 273.37060547 C-194.77487545 299.54571064 -166.06873389 317.23695473 -134.2824707 322.68310547 C-114.97949996 325.4138036 -95.75900276 323.43361928 -77.0246582 318.49560547 C-74.91454718 317.95822159 -72.80386209 317.42308715 -70.69262695 316.89013672 C-69.66443848 316.63055176 -68.63625 316.3709668 -67.5769043 316.10351562 C-28.83665692 306.40391407 12.90951835 305.03604608 52.3503418 311.37060547 C53.25042969 311.50982422 54.15051758 311.64904297 55.07788086 311.79248047 C67.04129523 313.69325098 78.66007774 316.64490764 90.29589844 319.99658203 C122.05786577 328.98857715 155.9502846 323.15502308 184.48217773 307.44580078 C193.64799302 302.17054588 201.71298119 295.66822583 209.3503418 288.37060547 C209.95104492 287.83306641 210.55174805 287.29552734 211.1706543 286.74169922 C231.05787888 268.28820478 242.01232851 239.37535861 243.49829102 212.71630859 C245.14894907 166.16939398 226.93343342 125.80674073 195.70703125 91.92114258 C165.92086295 60.20339569 125.96536299 39.04844569 84.3503418 27.37060547 C83.66665527 27.17015625 82.98296875 26.96970703 82.27856445 26.76318359 C56.41477798 19.25151161 30.54140441 16.89681557 3.7253418 16.87060547 C2.10112305 16.86400406 2.10112305 16.86400406 0.4440918 16.85726929 C-23.10323758 16.81730634 -45.80129061 19.710138 -68.6496582 25.37060547 Z " fill="#030303" transform="translate(251.649658203125,10.62939453125)"/>
<path d="M0 0 C0.33 0 0.66 0 1 0 C1 24.42 1 48.84 1 74 C-167.96 74 -336.92 74 -511 74 C-511 56.84 -511 39.68 -511 22 C-508.525 23.98 -508.525 23.98 -506 26 C-502.67180862 26.29715994 -499.88273088 26.18622862 -496.6184082 25.49755859 C-481.30794979 22.58821461 -462.15076274 23.48536771 -448.875 32.4375 C-444.39920436 36.23994585 -440.39551316 40.63158508 -436.27734375 44.81396484 C-431.55943896 49.55838891 -426.83839802 53.66643303 -421 57 C-420.16082031 57.50273437 -419.32164062 58.00546875 -418.45703125 58.5234375 C-408.21590405 63.7523346 -394.95534663 63.8645707 -383.88671875 61.11328125 C-371.50624395 57.04057861 -360.27503792 48.91255688 -353 38 C-349.88902283 37.50585938 -349.88902283 37.50585938 -345.91381836 37.34375 C-345.19980079 37.31124146 -344.48578321 37.27873291 -343.75012875 37.24523926 C-341.50038388 37.14765062 -339.25070636 37.07168639 -337 37 C-335.64705994 36.95063781 -334.294124 36.90116235 -332.94119263 36.8515625 C-328.75437642 36.70764916 -324.56690738 36.60250381 -320.37890625 36.5 C-318.80785105 36.45950566 -317.23680117 36.41880474 -315.66575623 36.37791443 C-311.49286029 36.27021709 -307.31987382 36.16654698 -303.14685059 36.06391525 C-300.54570975 35.99958475 -297.94460433 35.9339705 -295.34350586 35.86795044 C-270.31229878 35.23329854 -245.28133838 34.69307978 -220.24438477 34.34179688 C-210.56170066 34.19975798 -200.89861888 33.98949161 -191.2265625 33.50390625 C-176.71106605 32.77642038 -162.18372148 32.65173618 -147.65332031 32.44775391 C-135.19494037 32.26893334 -122.75912352 32.0630124 -110.31787109 31.36645508 C-101.03699499 30.86086361 -91.75044563 30.71714631 -82.45831299 30.55499268 C-77.19595774 30.46113552 -71.93393689 30.35109155 -66.671875 30.2421875 C-65.65062531 30.22110931 -64.62937561 30.20003113 -63.57717896 30.17831421 C-61.6158208 30.13772558 -59.65446606 30.09697133 -57.69311523 30.05603027 C-55.99927772 30.02078998 -54.30543119 29.98597799 -52.61157227 29.95178223 C-48.2819627 29.86360527 -43.95359989 29.75313859 -39.625 29.625 C-38.65481934 29.60630859 -37.68463867 29.58761719 -36.68505859 29.56835938 C-26.44174173 29.22119089 -16.9528226 26.51187278 -9.3125 19.4375 C-4.32474676 14.0507265 -0.94501471 7.32386397 0 0 Z " fill="#F6F6F6" transform="translate(511,438)"/>
<path d="M0 0 C25.28461348 0 25.28461348 0 36.20996094 0.24365234 C37.46290451 0.26970047 38.71584808 0.2957486 40.00675964 0.32258606 C43.37965862 0.39325913 46.75249887 0.46599603 50.12532711 0.53992414 C53.01062532 0.60287305 55.8959553 0.664297 58.78128552 0.72575819 C65.66136625 0.87233663 72.54139237 1.02130013 79.42138672 1.171875 C85.56163442 1.3062286 91.7019283 1.43811459 97.84228516 1.56738281 C130.35333131 2.25227336 162.86132859 3.00187605 195.36518192 3.97489214 C197.48426875 4.03812681 199.60337909 4.10051466 201.72249603 4.16273117 C210.14952281 4.41143137 218.57500827 4.6899772 227 5 C227.89418137 5.02994804 228.78836273 5.05989609 229.7096405 5.09075165 C231.96331828 5.16980118 234.21521946 5.26672191 236.46777344 5.37255859 C237.61711365 5.42189545 238.76645386 5.4712323 239.95062256 5.52206421 C245.12646355 6.33328542 249.01536475 8.4474564 252.3125 12.5 C252.80363281 13.0878125 253.29476562 13.675625 253.80078125 14.28125 C256.49591344 18.14398017 256.58160944 22.46829308 256 27 C253.95011996 33.16078077 250.77057718 36.85304202 245.10708618 40.07782078 C242.8436276 41.06843734 241.24511514 41.29417407 238.78662109 41.37986755 C237.94056305 41.41351693 237.094505 41.44716631 236.22280884 41.48183537 C234.82474503 41.52261031 234.82474503 41.52261031 233.3984375 41.56420898 C232.39461029 41.60043838 231.39078308 41.63666777 230.35653687 41.67399502 C226.90463444 41.79414337 223.45249262 41.89827105 220 42 C218.13148376 42.05765471 218.13148376 42.05765471 216.22521973 42.11647415 C206.02585346 42.42908197 195.82561103 42.70422076 185.625 42.97265625 C183.97612448 43.01628302 182.32724956 43.059933 180.67837524 43.10360527 C172.88878566 43.30965413 165.09914847 43.5137735 157.30944538 43.71548563 C149.39511549 43.92048297 141.48092391 44.12964455 133.56689453 44.34594727 C89.03150961 45.56149601 44.55263577 46.27755862 0 46 C0 30.82 0 15.64 0 0 Z " fill="#F5F5F5" transform="translate(239,410)"/>
<path d="M0 0 C9.51508453 8.05781933 15.2602079 17.76953135 16.37646484 30.26904297 C17.3675126 45.32908238 16.05370162 60.17801096 5.84375 72.16015625 C5.28945312 72.73121094 4.73515625 73.30226563 4.1640625 73.890625 C3.50664062 74.57511719 2.84921875 75.25960937 2.171875 75.96484375 C-5.47454203 83.32554057 -13.15752828 87.33896943 -23.8984375 87.515625 C-38.51592604 87.22433138 -46.76692128 77.97005215 -56.48828125 68.234375 C-72.64963363 52.09991339 -91.82099132 49.04770378 -113.8359375 47.890625 C-111.1637229 30.91598909 -94.24434164 13.75429739 -81.08251953 3.52832031 C-57.20570111 -13.41651857 -24.31416466 -18.08491586 0 0 Z " fill="#F5F5F5" transform="translate(136.8359375,397.109375)"/>
<path d="M0 0 C0.93585938 0.4125 1.87171875 0.825 2.8359375 1.25 C16.15111095 7.81434321 26.79525113 19.26647173 32.22265625 33.12109375 C34.12133072 40.15286803 33.54098996 46.40096043 30.2578125 52.8984375 C26.05331236 59.92334767 21.11186968 64.18837322 13.19042969 66.53637695 C4.92241267 68.28637298 -4.09419691 66.69384974 -12.375 65.6875 C-14.7433139 65.40866004 -17.11181106 65.13137306 -19.48046875 64.85546875 C-20.70427246 64.71286621 -21.92807617 64.57026367 -23.18896484 64.42333984 C-27.09829693 63.98908092 -31.00965761 63.60600367 -34.92578125 63.23828125 C-36.22273926 63.11428955 -37.51969727 62.99029785 -38.85595703 62.86254883 C-41.35484881 62.62609832 -43.85451812 62.39768587 -46.35498047 62.1784668 C-55.58080922 61.28834637 -64.93191774 59.7559937 -71.41015625 52.3984375 C-76.86388166 45.17980387 -78.08354239 37.93922476 -77 29 C-72.94584121 16.40314949 -62.94091793 8.54212063 -52 2 C-36.08066648 -5.77498772 -16.4555026 -7.41656455 0 0 Z " fill="#040404" transform="translate(320,219)"/>
<path d="M0 0 C11.54902464 6.2212511 18.77787632 15.95342262 22.7265625 28.46875 C26.00218919 39.40934314 22.93461501 50.70365155 17.7265625 60.46875 C10.47053295 72.08703541 0.84456467 78.17178673 -12.2734375 81.46875 C-24.62497949 82.7754276 -35.16206987 80.52555027 -45.2109375 73.09375 C-51.5809369 67.69208384 -55.92065919 62.11373243 -59.2734375 54.46875 C-59.6653125 53.6025 -60.0571875 52.73625 -60.4609375 51.84375 C-64.09744294 41.21396487 -62.75585859 30.57833357 -58.2734375 20.46875 C-55.3141062 15.10952263 -51.84242041 10.56911928 -47.2734375 6.46875 C-46.190625 5.47875 -46.190625 5.47875 -45.0859375 4.46875 C-31.68404646 -5.06148363 -15.10168532 -6.88178065 0 0 Z " fill="#040404" transform="translate(275.2734375,48.53125)"/>
<path d="M0 0 C9.20695072 6.89790593 15.02733666 15.69548389 17.8125 26.875 C19.27511373 40.28485851 16.14086299 52.67945665 7.83984375 63.4296875 C0.32113056 71.53516052 -10.21174761 77.23453808 -21.30078125 78.125 C-34.8408522 78.59853254 -45.03195132 74.85937166 -55.1875 65.875 C-63.76159046 57.31711766 -67.64042249 46.73130415 -67.75 34.75 C-67.52536502 21.92708631 -63.19537655 13.1014174 -54.30859375 3.9375 C-39.05054953 -10.36498994 -17.25401241 -11.04152383 0 0 Z " fill="#040404" transform="translate(110.1875,180.125)"/>
<path d="M0 0 C0.82757813 0.42539063 1.65515625 0.85078125 2.5078125 1.2890625 C13.42912563 7.38543729 19.51702127 15.27472222 24.14453125 26.8671875 C26.99904218 37.3206933 25.46013286 49.25285572 21 59 C14.90404776 69.49259036 6.48859043 76.81299253 -5.046875 80.6875 C-17.59517092 83.98486243 -29.03946118 82.14819349 -40.1875 75.75 C-49.49982377 69.42142079 -54.9450093 61.42543986 -59 51 C-61.43913549 38.03406926 -60.40681521 26.82800102 -53.42578125 15.4296875 C-41.65781207 -0.75469901 -18.80849726 -9.7335803 0 0 Z " fill="#040404" transform="translate(444,176)"/>
<path d="M0 0 C9.18292105 6.38431654 15.21651775 15.04799075 18.73828125 25.61328125 C19.93485942 38.41914339 19.30284383 50.7500516 11.48828125 61.42578125 C3.70654155 70.54294662 -5.07009596 77.08543082 -17.26171875 78.61328125 C-31.0879686 79.52567337 -41.57389824 76.52334489 -52.45703125 67.8671875 C-60.25244421 60.7386825 -65.6001171 50.26305032 -66.51171875 39.72265625 C-67.04671144 25.61222414 -62.0073009 14.71009237 -52.63671875 4.42578125 C-38.21203832 -9.49765546 -16.50647005 -10.12054727 0 0 Z " fill="#040404" transform="translate(390.26171875,85.38671875)"/>
<path d="M0 0 C1.13211914 0.00737183 1.13211914 0.00737183 2.28710938 0.01489258 C7.89528446 0.13283845 12.60506709 0.82170451 17.6875 3.3125 C18.4196875 3.64121094 19.151875 3.96992187 19.90625 4.30859375 C32.2218177 10.4031127 38.11651777 20.38504442 43.0625 32.75 C45.24709054 45.20216609 43.30162141 57.17614234 35.9375 67.6875 C34.89101205 68.92788039 33.80531229 70.1359898 32.6875 71.3125 C31.71683594 72.34310547 31.71683594 72.34310547 30.7265625 73.39453125 C21.2305396 82.63344161 9.97667198 85.66921928 -2.96875 85.5234375 C-14.09468075 84.82156804 -24.21578978 79.32633094 -31.78515625 71.22265625 C-38.63519346 62.65572992 -41.88966319 52.76097001 -41.75 41.875 C-41.74242676 41.04315186 -41.73485352 40.21130371 -41.72705078 39.35424805 C-41.42529461 28.10006435 -37.03667128 20.11101117 -29.20703125 12.1796875 C-24.64084814 7.92001238 -20.14363108 4.59081427 -14.3125 2.3125 C-13.4153125 1.95542969 -12.518125 1.59835938 -11.59375 1.23046875 C-7.69276836 0.1391227 -4.01815773 -0.03080588 0 0 Z " fill="#040404" transform="translate(144.3125,78.6875)"/>
<path d="M0 0 C18.48 0.33 36.96 0.66 56 1 C56 16.84 56 32.68 56 49 C45.875 50.125 45.875 50.125 41.84741211 50.11352539 C40.49703102 50.11341209 40.49703102 50.11341209 39.11936951 50.11329651 C38.18150101 50.10813522 37.24363251 50.10297394 36.27734375 50.09765625 C35.29125626 50.0962413 34.30516876 50.09482635 33.28919983 50.09336853 C30.17193432 50.0878177 27.05474342 50.0752746 23.9375 50.0625 C21.81054792 50.05747864 19.6835947 50.05291685 17.55664062 50.04882812 C12.37106546 50.03786442 7.18554533 50.02063425 2 50 C2.06983093 49.35389771 2.13966187 48.70779541 2.21160889 48.04211426 C2.96532101 40.84138523 3.21778787 33.73967672 3.25 26.5 C3.270625 25.34113281 3.29125 24.18226563 3.3125 22.98828125 C3.34161804 16.54591567 2.8255146 11.0901773 0.64746094 5.00585938 C0 3 0 3 0 0 Z " fill="#F4F4F4" transform="translate(166,408)"/>
<path d="M0 0 C7.96750976 4.20184365 12.15531776 9.71595327 15 18.25 C15.942317 26.3404645 14.71008782 32.55551683 10 39.25 C4.87796649 45.04914668 -0.71598697 48.56487675 -8.41015625 49.5625 C-16.0087071 49.93831704 -21.5762008 47.5325328 -27.8125 43.375 C-33.70164294 37.65411829 -36.28423092 31.61424561 -36.4375 23.5 C-36.29779486 15.63542236 -34.46183779 10.87934608 -29.0625 5.21875 C-20.86855372 -2.35444277 -10.56910821 -4.50428437 0 0 Z " fill="#F4F4F4" transform="translate(96,191.75)"/>
<path d="M0 0 C5.64244862 3.47527977 9.82605801 8.79324198 11.8203125 15.125 C13.21551933 22.35017825 13.18334534 29.08223936 9.5234375 35.57421875 C4.41442294 42.90660075 -1.67860006 47.22233542 -10.62109375 48.9453125 C-18.49613759 49.32618233 -24.97155006 46.7849088 -30.81640625 41.5234375 C-36.53198098 35.3645163 -39.33169063 29.40552351 -39.0234375 20.94140625 C-38.1961807 13.43864668 -35.54345462 7.33335364 -29.7421875 2.390625 C-20.5499732 -4.08161145 -10.19821257 -4.6564186 0 0 Z " fill="#F4F4F4" transform="translate(439.7421875,192.609375)"/>
<path d="M0 0 C6.39838351 3.66812866 11.38921467 8.89748196 13.625 16 C14.66601608 24.97465444 14.04353941 32.58874836 8.625 40 C4.06591938 45.10053912 -1.24223534 48.47316031 -8.1328125 49.3515625 C-16.65307574 49.76559064 -22.97610457 47.81790924 -29.4453125 42.203125 C-34.87495504 36.52358259 -36.95539056 30.77648494 -37.8125 23.0625 C-37.48760617 16.266804 -34.75112938 10.06871263 -30.125 5.125 C-21.44264996 -2.62317314 -10.98428825 -4.93958085 0 0 Z " fill="#F4F4F4" transform="translate(378.375,98)"/>
<path d="M0 0 C7.31968536 4.2751022 11.10066193 10.19047233 13.25390625 18.31640625 C14.39755817 25.30827824 12.51449254 31.94450056 8.625 37.74609375 C3.30921599 44.29685789 -2.14352927 47.48283442 -10.4765625 48.72265625 C-17.53672778 49.12097305 -22.98000666 47.38600853 -28.74609375 43.31640625 C-34.3289504 38.28149664 -37.32259586 33.56123389 -38.08203125 25.94921875 C-38.17611584 17.50042287 -37.85097498 11.63089843 -31.91015625 5.38671875 C-22.40804986 -3.38725688 -12.03738214 -5.54531088 0 0 Z " fill="#F4F4F4" transform="translate(157.74609375,98.68359375)"/>
<path d="M0 0 C7.13867681 4.25122782 12.54834406 8.98939897 17 16 C17.61875 16.86625 18.2375 17.7325 18.875 18.625 C20.33486373 21.70693454 20.49214954 23.62526031 20 27 C17.84909549 30.33761045 16.79587201 31.73470933 13 33 C11.02307472 32.93671619 9.04809115 32.80118206 7.078125 32.6237793 C5.91345703 32.52294037 4.74878906 32.42210144 3.54882812 32.31820679 C2.37771484 32.21319855 1.20660156 32.10819031 0 32 C-2.02588285 31.83889199 -4.05192057 31.67971685 -6.078125 31.52270508 C-11.55321001 31.08280566 -17.02467572 30.60662961 -22.49560547 30.11791992 C-24.84533094 29.91313334 -27.19596958 29.71858388 -29.54736328 29.53393555 C-32.97186301 29.26333022 -36.39165105 28.95756853 -39.8125 28.64453125 C-40.86147461 28.56926712 -41.91044922 28.49400299 -42.99121094 28.41645813 C-51.07239611 27.62030539 -51.07239611 27.62030539 -54.15234375 24.0769043 C-56.33152952 20.44790347 -56.99167693 19.13198721 -56 15 C-53.96049524 12.02148572 -51.56538679 9.52989724 -49 7 C-48.20722656 6.17435547 -48.20722656 6.17435547 -47.3984375 5.33203125 C-35.04121619 -6.50776946 -14.90168605 -7.54623077 0 0 Z " fill="#F4F4F4" transform="translate(316,236)"/>
<path d="M0 0 C5.61459175 3.73940583 9.41002491 8.07671131 12 14.33203125 C13.22440924 23.51510059 12.6113074 31.76526824 7 39.33203125 C2.18318594 44.82694049 -3.39687408 47.70998721 -10.6015625 48.68359375 C-17.75100034 49.06623972 -23.1485849 47.46185653 -29 43.33203125 C-34.67909664 38.21032743 -37.57191116 33.46872133 -38.37109375 25.74609375 C-38.50817213 17.92456242 -38.54142721 12.16651471 -33 6.33203125 C-23.83651382 -2.94230356 -12.24056439 -6.36779361 0 0 Z " fill="#F4F4F4" transform="translate(269,64.66796875)"/>
<path d="M0 0 C0.33 0 0.66 0 1 0 C1 6.6 1 13.2 1 20 C-0.98 20.99 -0.98 20.99 -3 22 C-2.85691406 21.00871094 -2.71382813 20.01742187 -2.56640625 18.99609375 C-1.99860104 15.0214573 -1.46480587 11.04268281 -0.9375 7.0625 C-0.84662109 6.37865234 -0.75574219 5.69480469 -0.66210938 4.99023438 C-0.44110203 3.32686331 -0.22050715 1.66343745 0 0 Z " fill="#DFDFDF" transform="translate(511,228)"/>
<path d="M0 0 C0.33 0 0.66 0 1 0 C1 4.29 1 8.58 1 13 C0.01 13 -0.98 13 -2 13 C-2.99 13.495 -2.99 13.495 -4 14 C-3.69255859 13.11248047 -3.69255859 13.11248047 -3.37890625 12.20703125 C-2.0002429 8.16339184 -0.68249153 4.23144751 0 0 Z " fill="#D9D9D9" transform="translate(511,438)"/>
</svg>
