<?xml version="1.0" encoding="UTF-8"?>
<svg version="1.1" xmlns="http://www.w3.org/2000/svg" width="512" height="512">
<path d="M0 0 C168.96 0 337.92 0 512 0 C512 168.96 512 337.92 512 512 C343.04 512 174.08 512 0 512 C0 343.04 0 174.08 0 0 Z " fill="#F6F6F6" transform="translate(0,0)"/>
<path d="M0 0 C8.73561837 6.08428157 11.34491686 14.89495388 13.27612305 24.89038086 C13.4587822 25.80250839 13.64144135 26.71463593 13.82963562 27.65440369 C14.43149053 30.66924275 15.02239084 33.68611949 15.61328125 36.703125 C16.03755306 38.8394551 16.46251876 40.9756475 16.88813782 43.11170959 C18.01138901 48.7585061 19.12543524 54.40708023 20.23748779 60.05609131 C21.33989209 65.64846845 22.45043147 71.23922752 23.56054688 76.83007812 C25.08177416 84.49482937 26.60006058 92.16015113 28.11442852 99.82626057 C29.91561782 108.94347901 31.72428879 118.05910348 33.55151367 127.17114258 C33.73458289 128.08430205 33.91765211 128.99746153 34.10626888 129.9382925 C34.95204131 134.15520758 35.79931406 138.37181431 36.64872742 142.58799744 C39.1753407 155.15427589 41.53348264 167.74701969 43.78100586 180.36645508 C44.21440509 182.71470962 44.21440509 182.71470962 45.2265625 185.55078125 C45.8403139 193.46918046 46.38582715 201.08720812 41.2265625 207.55078125 C32.36470955 217.23608071 21.04387583 218.53625059 8.7265625 220.73828125 C7.22123042 221.01299463 5.71602072 221.28837954 4.2109375 221.56445312 C0.55085894 222.23431666 -3.1107962 222.89505646 -6.7734375 223.55078125 C-3.32522075 225.56294835 -0.09117325 226.13357764 3.8359375 226.734375 C4.48040833 226.83541031 5.12487915 226.93644562 5.78887939 227.0405426 C7.85052209 227.36275379 9.91339085 227.67602397 11.9765625 227.98828125 C14.6594027 228.40015207 17.3416094 228.81596652 20.0234375 229.234375 C20.69821136 229.33943359 21.37298523 229.44449219 22.06820679 229.55273438 C28.1770185 230.51682986 34.24798267 231.65262448 40.32226562 232.81176758 C46.57123191 233.9945853 52.83672186 235.08076928 59.1015625 236.17578125 C69.4436657 237.98895773 79.78114422 239.82613461 90.11328125 241.6953125 C91.1433429 241.88145615 92.17340454 242.06759979 93.23468018 242.25938416 C98.55730152 243.22154874 103.87934658 244.18676342 109.20068359 245.15600586 C119.51653414 247.02831594 129.83538822 248.83580635 140.19140625 250.47265625 C142.07547779 250.77523337 143.95951188 251.0780438 145.84350586 251.38110352 C149.32952776 251.94134659 152.81820895 252.47439911 156.31079102 252.99194336 C166.08028404 254.51296967 174.5374862 256.45537251 181.48046875 264 C181.91230469 264.73863281 182.34414063 265.47726562 182.7890625 266.23828125 C183.24410156 266.98464844 183.69914062 267.73101562 184.16796875 268.5 C187.98003696 275.88500299 186.15742392 284.28127189 184.7578125 292.12890625 C184.60216324 293.03620987 184.44651398 293.94351349 184.28614807 294.87831116 C183.77365745 297.85379759 183.25029828 300.82725531 182.7265625 303.80078125 C182.36070477 305.90900433 181.99539841 308.01732315 181.63061523 310.12573242 C180.5070318 316.60271455 179.36785797 323.0769006 178.2265625 329.55078125 C177.88681306 331.48322364 177.54712957 333.41567763 177.20751953 335.34814453 C174.16010825 352.67095398 171.05013103 369.98248523 167.93359375 387.29296875 C167.74104507 388.36296616 167.5484964 389.43296356 167.35011292 390.53538513 C166.38700982 395.88530614 165.42132172 401.2347369 164.45043945 406.58325195 C162.74066462 416.01768122 161.05817631 425.45330555 159.5 434.9140625 C159.11167288 437.23810211 158.72251774 439.562002 158.33331299 441.88589478 C157.99073315 443.96478881 157.66555037 446.04586764 157.34130859 448.12768555 C155.79802361 457.34973975 153.83510735 465.95352381 146.2890625 472.05078125 C135.94543685 478.85681003 124.7661641 476.77617714 113.17578125 474.5390625 C111.49031441 474.22649254 111.49031441 474.22649254 109.77079773 473.90760803 C107.38284468 473.46378307 104.99569413 473.01562131 102.60931396 472.56341553 C96.37719792 471.38262496 90.13926864 470.23319078 83.90234375 469.078125 C82.68792603 468.85219666 81.4735083 468.62626831 80.22229004 468.39349365 C71.69590191 466.81008855 63.16261753 465.31101664 54.6015625 463.92578125 C40.66582721 461.65555122 26.76323858 459.2094325 12.86743164 456.70703125 C10.93636338 456.35935999 9.0052924 456.01170383 7.07421875 455.6640625 C6.10863541 455.49008942 5.14305206 455.31611633 4.14820862 455.13687134 C-1.90148207 454.05155684 -7.956578 453.00498243 -14.0178833 451.98658752 C-18.03697536 451.3090929 -22.05324903 450.61573092 -26.0692749 449.9203186 C-27.9739945 449.59457002 -29.87995873 449.2760049 -31.78717041 448.96517944 C-54.74657432 445.21594055 -54.74657432 445.21594055 -61.7734375 435.98828125 C-67.18474363 426.68759884 -66.15343648 418.18112387 -64.3046875 407.83984375 C-64.07128159 406.47745323 -64.07128159 406.47745323 -63.8331604 405.08753967 C-63.32154346 402.11544981 -62.79771712 399.14566132 -62.2734375 396.17578125 C-61.90685133 394.06365125 -61.54081263 391.95142616 -61.17529297 389.83911133 C-58.66885334 375.41122638 -56.06039079 361.00190263 -53.41342163 346.59921265 C-49.90881387 327.52902995 -46.6200133 308.42299621 -43.36181641 289.30932617 C-42.37994282 283.55135535 -41.37816633 277.79702811 -40.37261963 272.04315186 C-39.75037988 268.41638846 -39.16036609 264.78519558 -38.57177734 261.15283203 C-38.16445149 258.74499621 -37.75643413 256.33727724 -37.34765625 253.9296875 C-37.17804886 252.83349594 -37.00844147 251.73730438 -36.83369446 250.6078949 C-35.29154791 241.75355362 -32.57416972 234.14811006 -25.06864929 228.7671051 C-23.43751945 227.6700248 -23.43751945 227.6700248 -21.7734375 226.55078125 C-22.37566478 226.67677798 -22.97789206 226.80277472 -23.59836864 226.93258953 C-44.47904053 231.29856408 -65.37828414 235.5688437 -86.28979969 239.78446674 C-92.04021503 240.94385349 -97.78971053 242.10745714 -103.53735352 243.28051758 C-109.17173725 244.43034602 -114.80814446 245.56971173 -120.44611168 246.70183372 C-122.57295366 247.13073867 -124.69906512 247.56328421 -126.82438087 247.9996891 C-129.78961361 248.60785534 -132.75726994 249.20250996 -135.72583008 249.79418945 C-136.58365082 249.973349 -137.44147156 250.15250854 -138.32528687 250.33709717 C-147.55181194 252.14520552 -156.16070085 252.86665295 -164.54296875 248.17578125 C-171.24029683 243.29646692 -174.40086177 236.34186304 -175.8515625 228.359375 C-176.03960449 227.34770264 -176.22764648 226.33603027 -176.42138672 225.29370117 C-176.62006348 224.2029126 -176.81874023 223.11212402 -177.0234375 221.98828125 C-178.75773255 212.7039007 -180.62407313 203.46358929 -182.6484375 194.23828125 C-185.38515468 181.69477169 -187.80751979 169.103369 -190.14990234 156.48120117 C-192.5663264 143.47907207 -195.15550446 130.51371017 -197.7734375 117.55078125 C-198.00491486 116.40384796 -198.23639221 115.25691467 -198.47488403 114.07522583 C-199.91000505 106.96855373 -201.35060025 99.86300921 -202.79541016 92.75830078 C-203.28873262 90.33073076 -203.78121995 87.9029909 -204.27294922 85.47509766 C-204.99527663 81.90881277 -205.72000889 78.34302437 -206.4453125 74.77734375 C-206.66507751 73.69006989 -206.88484253 72.60279602 -207.11126709 71.48257446 C-207.31528137 70.48237274 -207.51929565 69.48217102 -207.72949219 68.45166016 C-207.90760437 67.57442291 -208.08571655 66.69718567 -208.26922607 65.79336548 C-208.76790468 63.40000705 -208.76790468 63.40000705 -209.7734375 60.55078125 C-210.71678972 52.4514286 -209.44469179 46.27455637 -204.7734375 39.55078125 C-197.06278794 30.67979123 -185.74713544 29.60876772 -174.7734375 27.67578125 C-165.41293094 26.00025058 -156.08801472 24.22077508 -146.78295898 22.25805664 C-135.16420763 19.82334395 -123.52692656 17.49101677 -111.88023567 15.19414711 C-108.45210699 14.51806149 -105.02429241 13.8404018 -101.59654236 13.16239929 C-94.34327528 11.72800265 -87.08962569 10.29554659 -79.8359375 8.86328125 C-71.36510614 7.19051632 -62.89443821 5.5169301 -54.42410088 3.84166527 C-51.06253513 3.17719575 -47.70071693 2.5140147 -44.33888245 1.85090637 C-42.27416821 1.44273795 -40.20946525 1.03451245 -38.14477539 0.6262207 C-37.22365967 0.44490097 -36.30254395 0.26358124 -35.35351562 0.07676697 C-30.43991121 -0.89636542 -25.54603767 -1.92681049 -20.66405392 -3.04844379 C-13.08721243 -4.65459102 -6.73796618 -3.79679047 0 0 Z " fill="#F5F5F5" transform="translate(309.7734375,19.44921875)"/>
<path d="M0 0 C1.14126114 -0.00785502 1.14126114 -0.00785502 2.30557805 -0.01586872 C4.85101436 -0.03085134 7.39624933 -0.03157349 9.94172668 -0.03224182 C11.76858356 -0.0398646 13.59543723 -0.0482923 15.42228699 -0.0574646 C20.38325413 -0.07940773 25.34415963 -0.08820853 30.30516982 -0.09329104 C33.40672456 -0.09693554 36.50826319 -0.10317616 39.60981178 -0.11029243 C50.43644036 -0.13478854 61.26302103 -0.14783869 72.0896759 -0.15138245 C82.17067068 -0.15501544 92.25136058 -0.18489352 102.33226222 -0.22678703 C110.99487859 -0.26152031 119.65739411 -0.27693143 128.32007962 -0.27762848 C133.49040183 -0.27842041 138.66041361 -0.28712 143.83066368 -0.31562614 C148.69731702 -0.34185798 153.56340373 -0.34398341 158.43009567 -0.3279705 C160.21101304 -0.32615995 161.99196337 -0.33281105 163.77280998 -0.34878922 C174.56627974 -0.43968484 183.21913143 0.07230198 191.80427551 7.33665466 C192.57771301 8.29571716 192.57771301 8.29571716 193.36677551 9.27415466 C194.17115051 10.23321716 194.17115051 10.23321716 194.99177551 11.21165466 C198.16807732 15.97610737 198.65881671 20.29584488 198.63420105 25.91410828 C198.63873216 26.6756546 198.64326328 27.43720092 198.64793169 28.22182441 C198.66057579 30.76960323 198.65895532 33.31716828 198.65730286 35.86497498 C198.66328817 37.69345372 198.67009373 39.52192994 198.67765808 41.35040283 C198.69532673 46.31544225 198.70001388 51.28041272 198.70128965 56.24548054 C198.70271153 59.34903746 198.70698185 62.45257688 198.71228409 65.55612946 C198.7307885 76.38809318 198.73895434 87.22000769 198.73738098 98.05198669 C198.73618005 108.14091064 198.75727183 118.22962049 198.78886831 128.31849027 C198.81504426 136.98618615 198.82574769 145.65381218 198.82447016 154.32154727 C198.82396084 159.49569902 198.82962744 164.66966058 198.85082626 169.84377289 C198.87023033 174.71282871 198.87031823 179.58151337 198.855793 184.4505825 C198.85370637 186.2335254 198.85839707 188.01649166 198.87051392 189.79939461 C198.99028274 208.64968195 198.99028274 208.64968195 192.47224426 216.57884216 C191.83931458 217.09704529 191.20638489 217.61524841 190.55427551 218.14915466 C189.9290802 218.68282654 189.30388489 219.21649841 188.65974426 219.76634216 C183.01500131 223.47821743 178.1868705 224.71927753 171.47958374 224.66183472 C170.33364263 224.66991302 170.33364263 224.66991302 169.1645512 224.67815453 C166.62054571 224.69239097 164.07706374 224.68534124 161.53303528 224.6782074 C159.70263757 224.68391322 157.87224342 224.6908783 156.04185486 224.69900513 C151.08109519 224.71692795 146.1205125 224.71576981 141.1597302 224.71006274 C137.01459258 224.7069697 132.8694889 224.71306462 128.72435611 224.71910149 C118.94391961 224.73314216 109.16357045 224.73158915 99.38313293 224.72019958 C89.30095288 224.70871792 79.21903882 224.72279595 69.13689381 224.74959606 C60.47256142 224.77176309 51.80831247 224.77838819 43.14395374 224.77251965 C37.97266992 224.76915139 32.80155662 224.77155656 27.63029671 224.78877068 C22.76694584 224.80425372 17.90398862 224.8002691 13.04065323 224.78146553 C11.25890744 224.77778347 9.4771324 224.78087696 7.69541359 224.79135132 C5.25680845 224.80458961 2.81950116 224.79298981 0.38095093 224.77536011 C-0.31857883 224.78496511 -1.0181086 224.79457012 -1.73883623 224.80446619 C-8.23576239 224.70829409 -13.26971544 222.33753558 -18.09416199 218.12571716 C-18.72580261 217.39095154 -19.35744324 216.65618591 -20.00822449 215.89915466 C-20.65533386 215.16954529 -21.30244324 214.43993591 -21.96916199 213.68821716 C-25.46515688 208.6165626 -25.92706489 203.5171071 -25.90065002 197.50721741 C-25.90744669 196.36255794 -25.90744669 196.36255794 -25.91438067 195.19477403 C-25.9270012 192.64776705 -25.92540584 190.10097454 -25.92375183 187.55393982 C-25.92973851 185.72369106 -25.93654437 183.89344483 -25.94410706 182.0632019 C-25.96175904 177.09828883 -25.96646207 172.13344471 -25.96773863 167.16850328 C-25.96916112 164.06511628 -25.97343255 160.96174676 -25.97873306 157.85836411 C-25.99722994 147.02754861 -26.00540401 136.19678231 -26.00382996 125.36595154 C-26.00262831 115.2764189 -26.02373615 105.18710009 -26.05531728 95.09762156 C-26.08148209 86.4290719 -26.09219718 77.76059207 -26.09091914 69.09200323 C-26.09040961 63.91733935 -26.09608787 58.74286559 -26.11727524 53.56824112 C-26.13666126 48.7008166 -26.13677954 43.8337635 -26.12224197 38.96632576 C-26.12015331 37.18296198 -26.12485821 35.39957492 -26.13696289 33.61625099 C-26.15245372 31.17542 -26.14308299 28.73586374 -26.12770081 26.2950592 C-26.13798793 25.59484732 -26.14827506 24.89463544 -26.15887392 24.17320502 C-26.06868808 17.66613083 -23.70902932 12.6136127 -19.44963074 7.81321716 C-18.33394714 6.86575623 -18.33394714 6.86575623 -17.19572449 5.89915466 C-16.45451355 5.25204529 -15.71330261 4.60493591 -14.94963074 3.93821716 C-10.14215247 0.48461557 -5.79864891 -0.01982978 0 0 Z " fill="#F6F6F6" transform="translate(41.63322448730469,271.72584533691406)"/>
<path d="M0 0 C3.67371679 0.69487613 7.35065811 1.372261 11.02758789 2.04989624 C11.77412628 2.18772018 12.52066467 2.32554413 13.28982544 2.46754456 C20.10889328 3.71989609 26.94570848 4.85008425 33.78930664 5.96005249 C48.26829927 8.32229475 62.6850768 11.00130221 77.10873413 13.67782593 C90.16914291 16.0988981 103.23536553 18.44411956 116.34390259 20.59024048 C122.49430884 21.59758803 128.64171048 22.62322585 134.78930664 23.64755249 C136.45848145 23.9230896 136.45848145 23.9230896 138.16137695 24.20419312 C141.02090689 24.68452938 143.87408139 25.19105917 146.72680664 25.71005249 C147.50193604 25.83613892 148.27706543 25.96222534 149.07568359 26.09213257 C152.43318335 26.73171167 154.93567458 27.7368649 157.85571289 29.51864624 C160.98280074 34.57884295 159.72682475 38.9440685 158.78930664 44.64755249 C158.67699707 45.34503601 158.5646875 46.04251953 158.44897461 46.76113892 C157.47332967 52.75839975 156.38347975 58.73350258 155.28930664 64.71005249 C154.93270866 66.68161636 154.57676674 68.65329898 154.22143555 70.62509155 C153.66105714 73.73442311 153.10027978 76.84367666 152.5375061 79.95257568 C150.56790217 90.83785159 148.65288777 101.73257609 146.73892212 112.62774658 C143.84573695 129.0911979 140.92022937 145.54763796 137.89526367 161.98739624 C136.5987853 169.0693525 135.35391689 176.15698947 134.16040039 183.25692749 C134.02426834 184.06404175 133.88813629 184.87115601 133.74787903 185.70272827 C133.08844785 189.61606672 132.43512076 193.53024969 131.79248047 197.44638062 C131.55724516 198.85201266 131.32182206 200.2576133 131.08618164 201.66317749 C130.88347656 202.89326538 130.68077148 204.12335327 130.47192383 205.39071655 C129.61979585 209.45630567 128.95351967 212.48723784 125.96655273 215.46420288 C117.81228892 219.89610653 101.26364691 213.90444113 92.40740967 212.29818726 C86.73461493 211.26942937 81.05860297 210.25865556 75.38305664 209.24520874 C73.5983345 208.9257579 73.5983345 208.9257579 71.77755737 208.59985352 C59.63271316 206.43037225 47.47296155 204.35025071 35.31231689 202.27154541 C15.28304787 198.84553474 -4.72651924 195.32797724 -24.71069336 191.64755249 C-26.25735687 191.36283081 -26.25735687 191.36283081 -27.83526611 191.07235718 C-30.74194138 190.53643691 -33.64829577 189.99882637 -36.55444336 189.46005249 C-37.39035004 189.30528442 -38.22625671 189.15051636 -39.0874939 188.99105835 C-40.6667066 188.69689422 -42.24531936 188.39948661 -43.82324219 188.09848022 C-45.52670298 187.77674057 -47.23259115 187.46774455 -48.93994141 187.16732788 C-50.28149292 186.92164063 -50.28149292 186.92164063 -51.65014648 186.67098999 C-52.86595398 186.45515259 -52.86595398 186.45515259 -54.10632324 186.23495483 C-56.21069336 185.64755249 -56.21069336 185.64755249 -58.83569336 183.46005249 C-61.73950858 177.52043046 -59.8702708 170.78077328 -58.70678711 164.52645874 C-58.54835831 163.64686493 -58.3899295 162.76727112 -58.22669983 161.86102295 C-57.70600693 158.97634427 -57.17702974 156.0932483 -56.64819336 153.21005249 C-56.28031009 151.17900977 -55.91313249 149.14783912 -55.54663086 147.11654663 C-54.98420638 143.99952028 -54.42140451 140.88256898 -53.85641479 137.76600647 C-52.24135813 128.85288026 -50.67902899 119.93114554 -49.13088989 111.00619507 C-46.40667154 95.30944242 -43.58705348 79.63153755 -40.70547485 63.96292114 C-38.80597816 53.63103194 -36.96417423 43.29381371 -35.25366211 32.92880249 C-35.09608429 31.97976547 -34.93850647 31.03072845 -34.77615356 30.05293274 C-34.02293428 25.51299196 -33.28021638 20.97181447 -32.55639648 16.42709351 C-32.28924506 14.80389497 -32.02168949 13.18076287 -31.75366211 11.55770874 C-31.58534126 10.46087769 -31.58534126 10.46087769 -31.41362 9.34188843 C-30.71445488 5.18535906 -29.74347241 2.03923007 -27.21069336 -1.35244751 C-20.14035885 -6.06600385 -7.86430352 -1.4889632 0 0 Z " fill="#F5F5F5" transform="translate(320.210693359375,263.3524475097656)"/>
<path d="M0 0 C8.73561837 6.08428157 11.34491686 14.89495388 13.27612305 24.89038086 C13.4587822 25.80250839 13.64144135 26.71463593 13.82963562 27.65440369 C14.43149053 30.66924275 15.02239084 33.68611949 15.61328125 36.703125 C16.03755306 38.8394551 16.46251876 40.9756475 16.88813782 43.11170959 C18.01138901 48.7585061 19.12543524 54.40708023 20.23748779 60.05609131 C21.33989209 65.64846845 22.45043147 71.23922752 23.56054688 76.83007812 C25.08177416 84.49482937 26.60006058 92.16015113 28.11442852 99.82626057 C29.91561782 108.94347901 31.72428879 118.05910348 33.55151367 127.17114258 C33.73458289 128.08430205 33.91765211 128.99746153 34.10626888 129.9382925 C34.95204131 134.15520758 35.79931406 138.37181431 36.64872742 142.58799744 C39.1753407 155.15427589 41.53348264 167.74701969 43.78100586 180.36645508 C44.21440509 182.71470962 44.21440509 182.71470962 45.2265625 185.55078125 C45.8403139 193.46918046 46.38582715 201.08720812 41.2265625 207.55078125 C32.36470955 217.23608071 21.04387583 218.53625059 8.7265625 220.73828125 C7.22123042 221.01299463 5.71602072 221.28837954 4.2109375 221.56445312 C0.55085894 222.23431666 -3.1107962 222.89505646 -6.7734375 223.55078125 C-3.32522075 225.56294835 -0.09117325 226.13357764 3.8359375 226.734375 C4.48040833 226.83541031 5.12487915 226.93644562 5.78887939 227.0405426 C7.85052209 227.36275379 9.91339085 227.67602397 11.9765625 227.98828125 C14.6594027 228.40015207 17.3416094 228.81596652 20.0234375 229.234375 C20.69821136 229.33943359 21.37298523 229.44449219 22.06820679 229.55273438 C28.1770185 230.51682986 34.24798267 231.65262448 40.32226562 232.81176758 C46.57123191 233.9945853 52.83672186 235.08076928 59.1015625 236.17578125 C69.4436657 237.98895773 79.78114422 239.82613461 90.11328125 241.6953125 C91.1433429 241.88145615 92.17340454 242.06759979 93.23468018 242.25938416 C98.55730152 243.22154874 103.87934658 244.18676342 109.20068359 245.15600586 C119.51653414 247.02831594 129.83538822 248.83580635 140.19140625 250.47265625 C142.07547779 250.77523337 143.95951188 251.0780438 145.84350586 251.38110352 C149.32952776 251.94134659 152.81820895 252.47439911 156.31079102 252.99194336 C166.08028404 254.51296967 174.5374862 256.45537251 181.48046875 264 C181.91230469 264.73863281 182.34414063 265.47726562 182.7890625 266.23828125 C183.24410156 266.98464844 183.69914062 267.73101562 184.16796875 268.5 C187.98003696 275.88500299 186.15742392 284.28127189 184.7578125 292.12890625 C184.60216324 293.03620987 184.44651398 293.94351349 184.28614807 294.87831116 C183.77365745 297.85379759 183.25029828 300.82725531 182.7265625 303.80078125 C182.36070477 305.90900433 181.99539841 308.01732315 181.63061523 310.12573242 C180.5070318 316.60271455 179.36785797 323.0769006 178.2265625 329.55078125 C177.88681306 331.48322364 177.54712957 333.41567763 177.20751953 335.34814453 C174.16010825 352.67095398 171.05013103 369.98248523 167.93359375 387.29296875 C167.74104507 388.36296616 167.5484964 389.43296356 167.35011292 390.53538513 C166.38700982 395.88530614 165.42132172 401.2347369 164.45043945 406.58325195 C162.74066462 416.01768122 161.05817631 425.45330555 159.5 434.9140625 C159.11167288 437.23810211 158.72251774 439.562002 158.33331299 441.88589478 C157.99073315 443.96478881 157.66555037 446.04586764 157.34130859 448.12768555 C155.79802361 457.34973975 153.83510735 465.95352381 146.2890625 472.05078125 C135.94543685 478.85681003 124.7661641 476.77617714 113.17578125 474.5390625 C111.49031441 474.22649254 111.49031441 474.22649254 109.77079773 473.90760803 C107.38284468 473.46378307 104.99569413 473.01562131 102.60931396 472.56341553 C96.37719792 471.38262496 90.13926864 470.23319078 83.90234375 469.078125 C82.68792603 468.85219666 81.4735083 468.62626831 80.22229004 468.39349365 C71.69590191 466.81008855 63.16261753 465.31101664 54.6015625 463.92578125 C40.66582721 461.65555122 26.76323858 459.2094325 12.86743164 456.70703125 C10.93636338 456.35935999 9.0052924 456.01170383 7.07421875 455.6640625 C6.10863541 455.49008942 5.14305206 455.31611633 4.14820862 455.13687134 C-1.90148207 454.05155684 -7.956578 453.00498243 -14.0178833 451.98658752 C-18.03697536 451.3090929 -22.05324903 450.61573092 -26.0692749 449.9203186 C-27.9739945 449.59457002 -29.87995873 449.2760049 -31.78717041 448.96517944 C-54.74657432 445.21594055 -54.74657432 445.21594055 -61.7734375 435.98828125 C-67.18474363 426.68759884 -66.15343648 418.18112387 -64.3046875 407.83984375 C-64.07128159 406.47745323 -64.07128159 406.47745323 -63.8331604 405.08753967 C-63.32154346 402.11544981 -62.79771712 399.14566132 -62.2734375 396.17578125 C-61.90685133 394.06365125 -61.54081263 391.95142616 -61.17529297 389.83911133 C-58.66885334 375.41122638 -56.06039079 361.00190263 -53.41342163 346.59921265 C-49.90881387 327.52902995 -46.6200133 308.42299621 -43.36181641 289.30932617 C-42.37994282 283.55135535 -41.37816633 277.79702811 -40.37261963 272.04315186 C-39.75037988 268.41638846 -39.16036609 264.78519558 -38.57177734 261.15283203 C-38.16445149 258.74499621 -37.75643413 256.33727724 -37.34765625 253.9296875 C-37.17804886 252.83349594 -37.00844147 251.73730438 -36.83369446 250.6078949 C-35.29154791 241.75355362 -32.57416972 234.14811006 -25.06864929 228.7671051 C-23.43751945 227.6700248 -23.43751945 227.6700248 -21.7734375 226.55078125 C-22.37566478 226.67677798 -22.97789206 226.80277472 -23.59836864 226.93258953 C-44.47904053 231.29856408 -65.37828414 235.5688437 -86.28979969 239.78446674 C-92.04021503 240.94385349 -97.78971053 242.10745714 -103.53735352 243.28051758 C-109.17173725 244.43034602 -114.80814446 245.56971173 -120.44611168 246.70183372 C-122.57295366 247.13073867 -124.69906512 247.56328421 -126.82438087 247.9996891 C-129.78961361 248.60785534 -132.75726994 249.20250996 -135.72583008 249.79418945 C-136.58365082 249.973349 -137.44147156 250.15250854 -138.32528687 250.33709717 C-147.55181194 252.14520552 -156.16070085 252.86665295 -164.54296875 248.17578125 C-171.24029683 243.29646692 -174.40086177 236.34186304 -175.8515625 228.359375 C-176.03960449 227.34770264 -176.22764648 226.33603027 -176.42138672 225.29370117 C-176.62006348 224.2029126 -176.81874023 223.11212402 -177.0234375 221.98828125 C-178.75773255 212.7039007 -180.62407313 203.46358929 -182.6484375 194.23828125 C-185.38515468 181.69477169 -187.80751979 169.103369 -190.14990234 156.48120117 C-192.5663264 143.47907207 -195.15550446 130.51371017 -197.7734375 117.55078125 C-198.00491486 116.40384796 -198.23639221 115.25691467 -198.47488403 114.07522583 C-199.91000505 106.96855373 -201.35060025 99.86300921 -202.79541016 92.75830078 C-203.28873262 90.33073076 -203.78121995 87.9029909 -204.27294922 85.47509766 C-204.99527663 81.90881277 -205.72000889 78.34302437 -206.4453125 74.77734375 C-206.66507751 73.69006989 -206.88484253 72.60279602 -207.11126709 71.48257446 C-207.31528137 70.48237274 -207.51929565 69.48217102 -207.72949219 68.45166016 C-207.90760437 67.57442291 -208.08571655 66.69718567 -208.26922607 65.79336548 C-208.76790468 63.40000705 -208.76790468 63.40000705 -209.7734375 60.55078125 C-210.71678972 52.4514286 -209.44469179 46.27455637 -204.7734375 39.55078125 C-197.06278794 30.67979123 -185.74713544 29.60876772 -174.7734375 27.67578125 C-165.41293094 26.00025058 -156.08801472 24.22077508 -146.78295898 22.25805664 C-135.16420763 19.82334395 -123.52692656 17.49101677 -111.88023567 15.19414711 C-108.45210699 14.51806149 -105.02429241 13.8404018 -101.59654236 13.16239929 C-94.34327528 11.72800265 -87.08962569 10.29554659 -79.8359375 8.86328125 C-71.36510614 7.19051632 -62.89443821 5.5169301 -54.42410088 3.84166527 C-51.06253513 3.17719575 -47.70071693 2.5140147 -44.33888245 1.85090637 C-42.27416821 1.44273795 -40.20946525 1.03451245 -38.14477539 0.6262207 C-37.22365967 0.44490097 -36.30254395 0.26358124 -35.35351562 0.07676697 C-30.43991121 -0.89636542 -25.54603767 -1.92681049 -20.66405392 -3.04844379 C-13.08721243 -4.65459102 -6.73796618 -3.79679047 0 0 Z M-22.375 13.65234375 C-23.01037689 13.77128998 -23.64575378 13.89023621 -24.30038452 14.01278687 C-25.65403744 14.26747233 -27.00719119 14.52482356 -28.35986328 14.78466797 C-30.31548716 15.15986671 -32.27294645 15.52546029 -34.23046875 15.890625 C-43.06431705 17.55453619 -51.84846895 19.42147606 -60.6328125 21.328125 C-71.41984134 23.66309855 -82.22733044 25.85503273 -93.0625 27.953125 C-93.80737797 28.09736908 -94.55225594 28.24161316 -95.31970596 28.39022827 C-100.67853573 29.42680275 -106.0384303 30.45781597 -111.3984375 31.48828125 C-129.79912937 35.0282304 -148.19187135 38.59632806 -166.546875 42.3671875 C-167.26468769 42.51418531 -167.98250038 42.66118313 -168.72206497 42.81263542 C-181.29607477 44.53317845 -181.29607477 44.53317845 -192.3359375 49.67578125 C-195.64569364 56.29529353 -191.75268684 66.36731889 -190.40917969 73.45288086 C-190.03553927 75.42442529 -189.6661359 77.39677124 -189.296875 79.36914062 C-187.40135575 89.45701453 -185.39087824 99.52121062 -183.37060547 109.5847168 C-181.73518507 117.73303698 -180.11106575 125.88359899 -178.48672485 134.03413391 C-177.03882696 141.29913031 -175.58886004 148.56371345 -174.13866615 155.82825184 C-173.06416822 161.21122752 -171.99040306 166.59434735 -170.91821289 171.9777832 C-169.86377176 177.27192197 -168.80738094 182.56566847 -167.74971199 187.85916328 C-167.35320149 189.84535737 -166.95735745 191.83168465 -166.56225395 193.8181591 C-165.48828297 199.21667615 -164.40094536 204.61211972 -163.29267502 210.00370407 C-162.943127 211.71838327 -162.59918691 213.43421417 -162.26054764 215.15108109 C-161.77027081 217.63427808 -161.26223091 220.11324236 -160.75024414 222.59204102 C-160.60979644 223.3254946 -160.46934874 224.05894819 -160.32464504 224.81462765 C-159.37172802 229.30932467 -158.10325407 232.34192084 -154.7734375 235.55078125 C-148.77913906 236.2578664 -143.40595441 234.99790413 -137.5859375 233.61328125 C-125.56500872 230.87873999 -113.48916142 228.45404393 -101.3984375 226.05078125 C-99.40161038 225.65340646 -97.4047842 225.25602692 -95.40795898 224.85864258 C-92.49357278 224.278877 -89.57913704 223.69936508 -86.66456604 223.12052917 C-81.5273292 222.10008648 -76.39147007 221.07345657 -71.2578125 220.03515625 C-59.81062135 217.72066792 -48.34675292 215.53104303 -36.859375 213.42480469 C-27.22923075 211.65243655 -17.62695701 209.75805673 -8.03125 207.80859375 C-3.63588544 206.91724562 0.76513251 206.06371246 5.171875 205.23046875 C6.31060059 205.01197266 7.44932617 204.79347656 8.62255859 204.56835938 C10.80371078 204.1504825 12.98628188 203.73992249 15.17041016 203.33789062 C22.1392458 202.04647187 22.1392458 202.04647187 28.2265625 198.55078125 C31.60081558 191.80227509 28.32380719 182.14575192 26.81505966 175.23117256 C26.17210851 172.28150127 25.55074393 169.32738185 24.92783546 166.37342358 C24.58347231 164.74057714 24.23814742 163.10793329 23.89194298 161.47547626 C21.62577916 150.76881583 19.48993477 140.0359066 17.34375 129.3046875 C16.91364878 127.15716484 16.48349296 125.00965312 16.05328369 122.8621521 C15.1775792 118.4896996 14.30263987 114.11709488 13.42822266 109.74438477 C12.54153184 105.31084895 11.65347243 100.8775908 10.76416016 96.44458008 C1.76539193 51.586153 1.76539193 51.586153 -1.32302856 34.41688538 C-2.09643201 30.12278588 -2.88471711 25.83184474 -3.75830078 21.55688477 C-3.8997049 20.85604263 -4.04110901 20.1552005 -4.1867981 19.43312073 C-5.2196191 16.11912624 -6.99581466 14.5077428 -9.7734375 12.55078125 C-14.11919532 12.25163069 -18.10911586 12.84827412 -22.375 13.65234375 Z M-18.7734375 244.55078125 C-19.88020653 247.4945356 -20.3767569 250.47250404 -20.875 253.5703125 C-21.03424957 254.45636673 -21.19349915 255.34242096 -21.35757446 256.25532532 C-21.84922021 259.01746022 -22.31248156 261.78337952 -22.7734375 264.55078125 C-23.06177107 266.20000611 -23.35174776 267.84894475 -23.64355469 269.49755859 C-24.35638312 273.55738928 -25.04391123 277.6210266 -25.72232056 281.68673706 C-26.47257354 286.17917435 -27.23401256 290.66971248 -27.99609375 295.16015625 C-28.14839951 296.05790268 -28.30070526 296.95564911 -28.45762634 297.88059998 C-29.77125151 305.5950561 -31.16457177 313.29290266 -32.5859375 320.98828125 C-35.94834026 339.21610511 -39.05405436 357.48839853 -42.17114258 375.75952148 C-42.58253118 378.16395346 -42.99422828 380.56833268 -43.40625 382.97265625 C-43.60496201 384.13459 -43.80367401 385.29652374 -44.00840759 386.4936676 C-45.41581008 394.65618276 -46.92690838 402.79475414 -48.59939575 410.90740967 C-50.35705983 419.27593876 -50.35705983 419.27593876 -48.3984375 427.36328125 C-45.65586178 429.64876102 -44.62719999 429.96804935 -41.23706055 430.56982422 C-40.34280365 430.73359558 -39.44854675 430.89736694 -38.52719116 431.06610107 C-37.61845245 431.22604553 -36.70971375 431.38598999 -35.7734375 431.55078125 C-34.14403065 431.85818146 -32.51487511 432.16691708 -30.88598633 432.47705078 C-29.16764982 432.79680987 -27.44913568 433.11561543 -25.73046875 433.43359375 C-24.31270645 433.69625282 -24.31270645 433.69625282 -22.86630249 433.96421814 C-19.77311914 434.53622282 -16.67959208 435.10633089 -13.5859375 435.67578125 C-12.51187653 435.87364227 -11.43781555 436.0715033 -10.33120728 436.27536011 C6.40620573 439.35341818 23.16479017 442.28051888 39.94714355 445.10223389 C54.54070692 447.55716573 69.10817959 450.13164172 83.6640625 452.80078125 C101.1191509 456.00258235 101.1191509 456.00258235 118.6015625 459.05078125 C119.52767334 459.21094727 120.45378418 459.37111328 121.40795898 459.53613281 C129.369084 461.20809888 129.369084 461.20809888 136.79443359 458.92529297 C139.77392054 456.01639013 140.15413425 454.28608118 140.8515625 450.21484375 C141.08020996 448.93963867 141.30885742 447.66443359 141.54443359 446.35058594 C141.77222545 444.95905234 141.9995896 443.56744867 142.2265625 442.17578125 C142.47952277 440.72137252 142.73427225 439.26727395 142.99072266 437.81347656 C143.76304977 433.3969528 144.49684639 428.97450872 145.2265625 424.55078125 C145.63006785 422.13669526 146.03370469 419.72263125 146.4375 417.30859375 C147.03022788 413.74923666 147.61977797 410.18944559 148.20239258 406.62841797 C149.97894097 395.82860186 151.93560485 385.06522267 153.9140625 374.30078125 C157.73668947 353.50089125 161.34054944 332.6653989 164.90112305 311.81933594 C165.10751907 310.61356903 165.3139151 309.40780212 165.52656555 308.16549683 C165.91221398 305.91158881 166.29665559 303.6574738 166.67961121 301.40310669 C167.63932918 295.79398558 168.66631739 290.20838255 169.82022095 284.63577271 C170.37884276 281.76941139 170.69862979 279.4506232 170.2265625 276.55078125 C167.23342584 272.12372331 164.39874454 271.10477526 159.22265625 269.9609375 C156.70695421 269.49074767 154.18697467 269.04310609 151.6640625 268.61328125 C150.27659051 268.3626276 148.88938838 268.11047623 147.50244141 267.85693359 C143.08230352 267.05731445 138.65550006 266.29991178 134.2265625 265.55078125 C133.51941101 265.43067688 132.81225952 265.31057251 132.0836792 265.18682861 C125.60859878 264.08833903 119.13076136 263.00693877 112.64941406 261.94604492 C100.0513073 259.88103998 87.48092604 257.6725908 74.9140625 255.42578125 C73.93813141 255.25130463 72.96220032 255.076828 71.95669556 254.89706421 C68.17620399 254.22100342 64.39572459 253.5448752 60.61534119 252.86820984 C53.35652379 251.5702823 46.0918064 250.30902739 38.82324219 249.06689453 C32.74694162 248.01705642 26.68554718 246.89432852 20.625 245.7578125 C18.88664125 245.43300333 17.14827859 245.10821508 15.40991211 244.78344727 C11.96941587 244.14039629 8.53040683 243.49002814 5.09204102 242.83569336 C3.50020903 242.53735069 1.90833268 242.23924459 0.31640625 241.94140625 C-0.41071564 241.80100418 -1.13783752 241.66060211 -1.88699341 241.51594543 C-11.26680038 239.57721832 -11.26680038 239.57721832 -18.7734375 244.55078125 Z " fill="#040404" transform="translate(309.7734375,19.44921875)"/>
<path d="M0 0 C1.14126114 -0.00785502 1.14126114 -0.00785502 2.30557805 -0.01586872 C4.85101436 -0.03085134 7.39624933 -0.03157349 9.94172668 -0.03224182 C11.76858356 -0.0398646 13.59543723 -0.0482923 15.42228699 -0.0574646 C20.38325413 -0.07940773 25.34415963 -0.08820853 30.30516982 -0.09329104 C33.40672456 -0.09693554 36.50826319 -0.10317616 39.60981178 -0.11029243 C50.43644036 -0.13478854 61.26302103 -0.14783869 72.0896759 -0.15138245 C82.17067068 -0.15501544 92.25136058 -0.18489352 102.33226222 -0.22678703 C110.99487859 -0.26152031 119.65739411 -0.27693143 128.32007962 -0.27762848 C133.49040183 -0.27842041 138.66041361 -0.28712 143.83066368 -0.31562614 C148.69731702 -0.34185798 153.56340373 -0.34398341 158.43009567 -0.3279705 C160.21101304 -0.32615995 161.99196337 -0.33281105 163.77280998 -0.34878922 C174.56627974 -0.43968484 183.21913143 0.07230198 191.80427551 7.33665466 C192.57771301 8.29571716 192.57771301 8.29571716 193.36677551 9.27415466 C194.17115051 10.23321716 194.17115051 10.23321716 194.99177551 11.21165466 C198.16807732 15.97610737 198.65881671 20.29584488 198.63420105 25.91410828 C198.63873216 26.6756546 198.64326328 27.43720092 198.64793169 28.22182441 C198.66057579 30.76960323 198.65895532 33.31716828 198.65730286 35.86497498 C198.66328817 37.69345372 198.67009373 39.52192994 198.67765808 41.35040283 C198.69532673 46.31544225 198.70001388 51.28041272 198.70128965 56.24548054 C198.70271153 59.34903746 198.70698185 62.45257688 198.71228409 65.55612946 C198.7307885 76.38809318 198.73895434 87.22000769 198.73738098 98.05198669 C198.73618005 108.14091064 198.75727183 118.22962049 198.78886831 128.31849027 C198.81504426 136.98618615 198.82574769 145.65381218 198.82447016 154.32154727 C198.82396084 159.49569902 198.82962744 164.66966058 198.85082626 169.84377289 C198.87023033 174.71282871 198.87031823 179.58151337 198.855793 184.4505825 C198.85370637 186.2335254 198.85839707 188.01649166 198.87051392 189.79939461 C198.99028274 208.64968195 198.99028274 208.64968195 192.47224426 216.57884216 C191.83931458 217.09704529 191.20638489 217.61524841 190.55427551 218.14915466 C189.9290802 218.68282654 189.30388489 219.21649841 188.65974426 219.76634216 C183.01500131 223.47821743 178.1868705 224.71927753 171.47958374 224.66183472 C170.33364263 224.66991302 170.33364263 224.66991302 169.1645512 224.67815453 C166.62054571 224.69239097 164.07706374 224.68534124 161.53303528 224.6782074 C159.70263757 224.68391322 157.87224342 224.6908783 156.04185486 224.69900513 C151.08109519 224.71692795 146.1205125 224.71576981 141.1597302 224.71006274 C137.01459258 224.7069697 132.8694889 224.71306462 128.72435611 224.71910149 C118.94391961 224.73314216 109.16357045 224.73158915 99.38313293 224.72019958 C89.30095288 224.70871792 79.21903882 224.72279595 69.13689381 224.74959606 C60.47256142 224.77176309 51.80831247 224.77838819 43.14395374 224.77251965 C37.97266992 224.76915139 32.80155662 224.77155656 27.63029671 224.78877068 C22.76694584 224.80425372 17.90398862 224.8002691 13.04065323 224.78146553 C11.25890744 224.77778347 9.4771324 224.78087696 7.69541359 224.79135132 C5.25680845 224.80458961 2.81950116 224.79298981 0.38095093 224.77536011 C-0.31857883 224.78496511 -1.0181086 224.79457012 -1.73883623 224.80446619 C-8.23576239 224.70829409 -13.26971544 222.33753558 -18.09416199 218.12571716 C-18.72580261 217.39095154 -19.35744324 216.65618591 -20.00822449 215.89915466 C-20.65533386 215.16954529 -21.30244324 214.43993591 -21.96916199 213.68821716 C-25.46515688 208.6165626 -25.92706489 203.5171071 -25.90065002 197.50721741 C-25.90744669 196.36255794 -25.90744669 196.36255794 -25.91438067 195.19477403 C-25.9270012 192.64776705 -25.92540584 190.10097454 -25.92375183 187.55393982 C-25.92973851 185.72369106 -25.93654437 183.89344483 -25.94410706 182.0632019 C-25.96175904 177.09828883 -25.96646207 172.13344471 -25.96773863 167.16850328 C-25.96916112 164.06511628 -25.97343255 160.96174676 -25.97873306 157.85836411 C-25.99722994 147.02754861 -26.00540401 136.19678231 -26.00382996 125.36595154 C-26.00262831 115.2764189 -26.02373615 105.18710009 -26.05531728 95.09762156 C-26.08148209 86.4290719 -26.09219718 77.76059207 -26.09091914 69.09200323 C-26.09040961 63.91733935 -26.09608787 58.74286559 -26.11727524 53.56824112 C-26.13666126 48.7008166 -26.13677954 43.8337635 -26.12224197 38.96632576 C-26.12015331 37.18296198 -26.12485821 35.39957492 -26.13696289 33.61625099 C-26.15245372 31.17542 -26.14308299 28.73586374 -26.12770081 26.2950592 C-26.13798793 25.59484732 -26.14827506 24.89463544 -26.15887392 24.17320502 C-26.06868808 17.66613083 -23.70902932 12.6136127 -19.44963074 7.81321716 C-18.33394714 6.86575623 -18.33394714 6.86575623 -17.19572449 5.89915466 C-16.45451355 5.25204529 -15.71330261 4.60493591 -14.94963074 3.93821716 C-10.14215247 0.48461557 -5.79864891 -0.01982978 0 0 Z M-9.63322449 21.27415466 C-10.12321252 23.96760517 -10.30365558 26.02841556 -10.25468445 28.71324158 C-10.26107327 29.45310885 -10.26746209 30.19297612 -10.27404451 30.95526361 C-10.28928319 33.42995258 -10.26884248 35.90303755 -10.24845886 38.37767029 C-10.25196042 40.15352916 -10.25761939 41.92938489 -10.26527405 43.70523071 C-10.27952672 48.52557276 -10.26245579 53.3453447 -10.23898888 58.16563225 C-10.21888821 63.2094947 -10.22475903 68.2533333 -10.22709656 73.29722595 C-10.22704298 81.76765857 -10.20728098 90.23786817 -10.17521667 98.70823669 C-10.13832354 108.5018487 -10.12954105 118.29516854 -10.13651419 128.08884096 C-10.14281895 137.50910673 -10.13206537 146.92927228 -10.11254883 156.34951782 C-10.10437304 160.35898262 -10.10166561 164.36839621 -10.10324097 168.37786865 C-10.10411977 173.09917007 -10.08990477 177.82019374 -10.06401443 182.54142189 C-10.05685094 184.27442389 -10.0547699 186.00745544 -10.05813217 187.74046898 C-10.06184569 190.10563677 -10.04710461 192.46999346 -10.02763367 194.83506775 C-10.03296159 195.52135458 -10.03828952 196.20764142 -10.0437789 196.91472483 C-9.98311254 201.18415569 -9.23042013 203.8700443 -6.63322449 207.27415466 C-3.70602551 208.73775415 -0.76355388 208.41859676 2.44509888 208.41459656 C3.55105487 208.41905324 3.55105487 208.41905324 4.67935342 208.42359996 C7.1628186 208.43230762 9.6462357 208.43379695 12.12971497 208.43528748 C13.90512699 208.4399142 15.68053802 208.44493866 17.45594788 208.45033264 C22.28865529 208.46347299 27.12134879 208.46990483 31.95407128 208.4743433 C34.97164298 208.4772715 37.98921085 208.48137583 41.00678062 208.48584747 C50.44303442 208.49952694 59.8792795 208.5091913 69.31554252 208.51304936 C80.21755483 208.51753085 91.11944181 208.53508107 102.02141601 208.56404996 C110.44184958 208.58565004 118.86224784 208.59575276 127.28270882 208.59709048 C132.31478607 208.59813975 137.34674558 208.60407327 142.37879372 208.6219101 C147.11231276 208.63836177 151.84562519 208.64056043 156.5791626 208.63177109 C158.31701904 208.63099914 160.05488646 208.6353641 161.79271507 208.64522934 C164.16455781 208.65790452 166.53566391 208.65209656 168.90750122 208.64164734 C169.59583442 208.64970374 170.28416761 208.65776015 170.99335939 208.66606069 C175.26321233 208.62204169 178.00301547 207.94509759 181.36677551 205.27415466 C182.52603316 201.79638171 182.51174117 198.68581838 182.50721741 195.06884766 C182.51018853 194.32998367 182.51315965 193.59111968 182.51622081 192.82986587 C182.52491175 190.34717275 182.52641637 187.86452782 182.52790833 185.38182068 C182.53253614 183.60463864 182.53756075 181.82745759 182.54295349 180.05027771 C182.55608108 175.21769665 182.56252288 170.38512949 182.56696415 165.55253339 C182.56989365 162.53513161 182.57399817 159.51773365 182.57846832 156.50033379 C182.59214277 147.06461942 182.60181029 137.62891375 182.60567021 128.19319016 C182.61015421 117.29117791 182.62771817 106.38929084 182.65667081 95.48731667 C182.67826145 87.06602932 182.68837305 78.64477726 182.68971133 70.22346252 C182.69076103 65.19087315 182.69670401 60.15840145 182.71453094 55.12584114 C182.73096692 50.39395346 182.73318899 45.6622725 182.72439194 40.93036652 C182.72361922 39.19208919 182.72799507 37.45380094 182.73785019 35.71555138 C182.75050069 33.3456008 182.74473107 30.97639007 182.73426819 28.60644531 C182.74232459 27.9158814 182.750381 27.22531748 182.75868154 26.51382738 C182.72771478 23.52229912 182.49966531 21.5125528 181.03130722 18.8783865 C177.64810192 15.6177423 173.56711083 16.12341815 169.16819763 16.12025452 C168.43003921 16.11587226 167.69188079 16.11149001 166.93135393 16.10697496 C164.4510036 16.09359052 161.9706888 16.08740897 159.49031067 16.08128357 C157.71475056 16.07338249 155.93919206 16.06511354 154.16363525 16.0565033 C148.32771843 16.03028973 142.49179444 16.014979 136.65583801 16.00071716 C134.64785635 15.99535772 132.63987473 15.98998021 130.63189316 15.98458481 C122.281613 15.96295946 113.93133478 15.9442212 105.58103371 15.93296242 C93.60680261 15.91671178 81.6328954 15.88350302 69.65878642 15.82656157 C61.24258147 15.78790043 52.8264633 15.76833442 44.41017187 15.76304185 C39.38136477 15.75938392 34.35290319 15.74731526 29.32419205 15.71493912 C24.59466607 15.68492483 19.86569587 15.67852283 15.13609505 15.69032288 C13.39983489 15.69054415 11.66354942 15.68219463 9.9273777 15.66466904 C7.55735269 15.64204608 5.18935498 15.65023816 2.81932068 15.66615295 C1.78784407 15.64532982 1.78784407 15.64532982 0.73552954 15.62408602 C-4.38406488 15.70884029 -6.69521231 17.12598463 -9.63322449 21.27415466 Z " fill="#000000" transform="translate(41.63322448730469,271.72584533691406)"/>
<path d="M0 0 C4.49504128 1.39501281 5.04759827 2.66791627 7.32839966 6.55560303 C9.92607053 11.70325528 11.75211437 17.13563923 13.65234375 22.5703125 C14.12240556 23.89175084 14.59337944 25.21286504 15.06520081 26.53367615 C16.3172078 30.04535399 17.55807239 33.56086602 18.79641724 37.07738113 C20.84503771 42.88729059 22.91230297 48.69062167 24.97647476 54.49501991 C25.48970789 55.93887683 26.00251235 57.38288619 26.51488876 58.82704735 C29.68797776 67.77021953 32.91931591 76.68565441 36.28515625 85.55859375 C36.62304672 86.45324341 36.96093719 87.34789307 37.30906677 88.26965332 C38.82125226 92.26893851 40.34865914 96.26119439 41.90209961 100.24462891 C42.42498137 101.62246919 42.9472434 103.00054489 43.46875 104.37890625 C44.13680664 106.10089233 44.13680664 106.10089233 44.81835938 107.85766602 C45.76774133 111.70318017 45.58929759 114.29500923 44.625 118.125 C43.38648987 119.81080627 43.38648987 119.81080627 41.625 121.125 C34.39487295 122.22483182 26.84264887 120.73490141 19.72265625 119.4375 C18.70247406 119.25929214 17.68229187 119.08108429 16.63119507 118.8974762 C13.31495634 118.31572029 10.00127694 117.72060425 6.6875 117.125 C4.37715897 116.7166617 2.06669171 116.30903697 -0.24389648 115.90209961 C-7.29018726 114.65737497 -14.33294792 113.39345733 -21.375 112.125 C-23.01909851 111.82931122 -23.01909851 111.82931122 -24.69641113 111.52764893 C-36.10286881 109.47560588 -47.50786563 107.41518522 -58.90475464 105.31054688 C-62.2420982 104.69462755 -65.5793884 104.09002384 -68.92456055 103.51757812 C-70.4082312 103.26331055 -70.4082312 103.26331055 -71.921875 103.00390625 C-72.73624023 102.86927979 -73.55060547 102.73465332 -74.38964844 102.59594727 C-76.375 102.125 -76.375 102.125 -79.0625 100.5 C-80.94994185 97.08462903 -81.05268324 93.8936646 -80.375 90.125 C-78.92538601 87.49665404 -77.01175032 85.46633786 -74.9375 83.3125 C-73.82311366 82.08824459 -72.70984141 80.86297419 -71.59765625 79.63671875 C-71.04609863 79.04036621 -70.49454102 78.44401367 -69.92626953 77.82958984 C-67.8108013 75.50503851 -65.84117269 73.07637921 -63.875 70.625 C-59.9412143 65.77903211 -55.89052241 61.04401472 -51.81640625 56.31640625 C-48.78541716 52.79182097 -45.80507419 49.23451168 -42.875 45.625 C-39.44291987 41.3970752 -35.92948829 37.2497211 -32.375 33.125 C-28.80193465 28.97800228 -25.26773998 24.80892194 -21.8125 20.5625 C-18.40208397 16.37273844 -14.96884273 12.20394933 -11.5 8.0625 C-11.0352124 7.50167725 -10.5704248 6.94085449 -10.09155273 6.36303711 C-4.89194246 0.18118305 -4.89194246 0.18118305 0 0 Z " fill="#040404" transform="translate(379.375,313.875)"/>
<path d="M0 0 C1.32040283 0.01522705 1.32040283 0.01522705 2.66748047 0.03076172 C15.71002092 0.34273793 26.64644232 5.16818805 36.0625 14.375 C46.14779259 26.60850514 50.29781538 39.88155508 48.859375 55.59375 C46.73767373 67.95496608 39.37948044 79.52665108 29.5 87 C17.03433036 95.16907049 4.72480666 97.16756098 -9.9375 95.375 C-14.36832759 94.27080221 -18.01517113 92.68911265 -21.9375 90.375 C-22.73027344 89.94058594 -23.52304688 89.50617188 -24.33984375 89.05859375 C-35.47498764 82.37750742 -42.90796862 71.8854827 -46.4909668 59.45483398 C-48.72892902 49.03099572 -47.85683149 36.8024495 -42.9375 27.375 C-42.49019531 26.50488281 -42.04289063 25.63476562 -41.58203125 24.73828125 C-35.11393598 13.13732753 -25.08712307 4.97505806 -12.36425781 0.95507812 C-8.24190062 -0.03030625 -4.22082229 -0.07052267 0 0 Z " fill="#F5F5F5" transform="translate(226.9375,95.625)"/>
<path d="M0 0 C15.90916714 10.46374752 27.0520838 25.39259196 31.15234375 44.1015625 C33.69930546 61.06727441 29.81162481 77.80903259 20.625 92.25 C10.76279105 105.30314759 -3.83641293 116.67857992 -20.375 119.25 C-32.69686001 120.20980804 -46.1134577 120.94284265 -57.375 115.25 C-58.74205078 114.61384766 -58.74205078 114.61384766 -60.13671875 113.96484375 C-76.58711165 105.72817562 -88.02577867 92.46822735 -94.375 75.25 C-99.51275186 58.96804242 -97.24693102 40.51481276 -89.625 25.5625 C-80.03533519 9.08549488 -66.7948058 -0.56652337 -49.13671875 -6.9140625 C-32.4885834 -10.61364813 -14.86259981 -8.21112768 0 0 Z M-53.375 12.25 C-54.22191406 12.69730469 -55.06882812 13.14460938 -55.94140625 13.60546875 C-65.48910462 18.91290764 -71.39854625 25.56957843 -76.375 35.25 C-76.79136719 36.04792969 -77.20773438 36.84585938 -77.63671875 37.66796875 C-82.30465086 48.23223616 -82.15614004 61.60467211 -78.25 72.375 C-72.18730275 85.71631149 -63.17682382 95.70700946 -49.375 101.25 C-48.49457031 101.61351562 -47.61414063 101.97703125 -46.70703125 102.3515625 C-34.62254276 105.60998261 -20.24577306 104.34715042 -9.375 98.25 C2.89101226 91.06910276 10.28659017 80.71210433 14.625 67.25 C17.55879113 52.73053692 14.61493707 39.63734716 6.625 27.25 C0.36297192 18.13348618 -9.89936698 11.53780674 -20.53125 8.66796875 C-31.39104619 7.07181739 -43.69649011 6.59691014 -53.375 12.25 Z " fill="#040404" transform="translate(260.375,87.75)"/>
<path d="M0 0 C0.90151291 -0.02897369 1.80302582 -0.05794739 2.7318573 -0.08779907 C6.87376868 -0.18509293 11.015502 -0.25937238 15.15820312 -0.31347656 C17.34184879 -0.35011654 19.52527088 -0.40466679 21.70800781 -0.47753906 C24.85473693 -0.5810546 27.99758182 -0.62541884 31.14575195 -0.65771484 C32.11784103 -0.70102936 33.08993011 -0.74434387 34.09147644 -0.78897095 C40.72224189 -0.77055266 40.72224189 -0.77055266 43.62559509 2.10510254 C45.19783992 4.42318178 46.50210283 6.75499383 47.7590332 9.25634766 C48.39220459 10.3246582 49.02537598 11.39296875 49.67773438 12.49365234 C50.48174683 13.94626465 50.48174683 13.94626465 51.30200195 15.42822266 C52.20015625 17.04277344 52.20015625 17.04277344 53.11645508 18.68994141 C54.02234375 20.3315625 54.02234375 20.3315625 54.9465332 22.00634766 C56.16855455 24.20982489 57.3911882 26.41296268 58.61450195 28.61572266 C59.14712646 29.57961914 59.67975098 30.54351562 60.22851562 31.53662109 C61.70228167 34.28393507 61.70228167 34.28393507 63.58056641 36.73388672 C64.7590332 39.25634766 64.7590332 39.25634766 64.13476562 42.22827148 C62.80155921 45.16274515 61.38068056 47.92733371 59.74731445 50.70556641 C59.15370117 51.71941406 58.56008789 52.73326172 57.94848633 53.77783203 C57.3290918 54.82261719 56.70969727 55.86740234 56.0715332 56.94384766 C55.47147461 57.96929687 54.87141602 58.99474609 54.25317383 60.05126953 C53.03810434 62.11727921 51.79582132 64.16751642 50.52734375 66.20117188 C48.68596536 69.19614414 48.68596536 69.19614414 47.54736328 72.42480469 C45.98719121 76.00161459 44.86165849 77.84898078 41.7590332 80.25634766 C35.36423714 82.12953094 28.62054078 81.92047608 22.01708984 81.80029297 C18.82796586 81.75643612 15.6595626 81.84046265 12.47192383 81.93603516 C-2.13424604 82.06908702 -2.13424604 82.06908702 -7.1784668 77.72875977 C-9.28116055 74.33014211 -10.75002868 70.960746 -12.2409668 67.25634766 C-13.58002699 64.98448645 -14.95804447 62.73514277 -16.3737793 60.51025391 C-17.70642753 58.28093122 -19.03715966 56.05046199 -20.3659668 53.81884766 C-20.7146582 53.25270752 -21.06334961 52.68656738 -21.42260742 52.10327148 C-22.44643448 50.43812789 -23.44182325 48.75560333 -24.4362793 47.07275391 C-25.02425293 46.09765869 -25.61222656 45.12256348 -26.21801758 44.11791992 C-27.56316575 40.35503646 -26.88506834 38.84286376 -25.2409668 35.25634766 C-24.27630734 33.4008242 -23.25784703 31.57251701 -22.1940918 29.77197266 C-21.5959668 28.75361328 -20.9978418 27.73525391 -20.3815918 26.68603516 C-19.44573242 25.11208984 -19.44573242 25.11208984 -18.4909668 23.50634766 C-17.8825293 22.47251953 -17.2740918 21.43869141 -16.6472168 20.37353516 C-14.85309817 17.32966724 -13.0488413 14.29206196 -11.2409668 11.25634766 C-10.37181641 9.79165039 -10.37181641 9.79165039 -9.48510742 8.29736328 C-8.94563477 7.39179688 -8.40616211 6.48623047 -7.8503418 5.55322266 C-7.37048828 4.74723633 -6.89063477 3.94125 -6.39624023 3.11083984 C-4.46060867 0.00368486 -3.61721527 0.11314298 0 0 Z " fill="#F6F6F6" transform="translate(109.240966796875,343.74365234375)"/>
<path d="M0 0 C1.2015976 -0.01583633 2.40319519 -0.03167267 3.64120483 -0.04798889 C4.9360379 -0.04302902 6.23087097 -0.03806915 7.56494141 -0.03295898 C8.91249012 -0.03819676 10.26003517 -0.04447381 11.60757446 -0.05174255 C14.43045309 -0.06214351 17.25282758 -0.0575922 20.07568359 -0.04296875 C23.68295643 -0.02580625 27.28863258 -0.04924282 30.89572716 -0.08445835 C33.67888833 -0.10648689 36.46167091 -0.1049776 39.24489212 -0.09669304 C41.21794038 -0.09548019 43.19096535 -0.11537041 45.16390991 -0.13563538 C55.14609374 -0.03206089 55.14609374 -0.03206089 58.76074219 2.84887695 C62.12742509 6.81163066 62.12742509 6.81163066 63.32275391 9.11547852 C63.86307251 10.1254187 63.86307251 10.1254187 64.41430664 11.15576172 C64.97226929 12.23990356 64.97226929 12.23990356 65.54150391 13.34594727 C66.39417454 14.94119603 67.24981738 16.53485853 68.10791016 18.12719727 C68.56955566 18.98700195 69.03120117 19.84680664 69.50683594 20.73266602 C72.39184436 25.99782933 75.44264647 31.16708762 78.47900391 36.34594727 C79.08228516 37.3776001 79.68556641 38.40925293 80.30712891 39.47216797 C83.44232784 44.84951865 83.44232784 44.84951865 86.6965332 50.15478516 C88.65328667 53.61542212 88.58061231 55.58266775 88.04150391 59.53344727 C86.53430857 63.15886307 84.62702947 66.51115092 82.66650391 69.90844727 C82.12429199 70.87363281 81.58208008 71.83881836 81.0234375 72.83325195 C79.38068257 75.74398883 77.71575718 78.64073203 76.04150391 81.53344727 C75.56197266 82.36457031 75.08244141 83.19569336 74.58837891 84.05200195 C72.12381724 88.3100988 69.62175822 92.54391875 67.09179688 96.76342773 C66.12963537 98.3849226 65.19542467 100.02291862 64.26416016 101.66235352 C63.75755859 102.54793945 63.25095703 103.43352539 62.72900391 104.34594727 C62.11605469 105.43842773 62.11605469 105.43842773 61.49072266 106.55297852 C58.95827586 110.0137616 56.44580869 112.27563596 52.16481018 113.06156921 C50.58312294 113.0799157 50.58312294 113.0799157 48.96948242 113.09863281 C47.76796036 113.12092453 46.56643829 113.14321625 45.32850647 113.16618347 C44.03883469 113.16749771 42.7491629 113.16881195 41.42041016 113.17016602 C40.07428926 113.18048988 38.72817386 113.19155408 37.38206482 113.20332336 C34.56519073 113.22272141 31.74881281 113.22618895 28.93188477 113.21972656 C25.33204357 113.21372852 21.73477955 113.25797763 18.13546848 113.31561565 C15.35657101 113.35268885 12.57829095 113.35751245 9.79917717 113.35334206 C7.83044326 113.35759042 5.86185632 113.39307532 3.89344788 113.42912292 C-4.79433297 113.33982697 -4.79433297 113.33982697 -8.03761292 111.0933075 C-9.60677184 109.31965388 -10.79497925 107.59176124 -11.95849609 105.53344727 C-12.50900635 104.68967529 -13.0595166 103.84590332 -13.62670898 102.9765625 C-14.05717529 102.18967041 -14.4876416 101.40277832 -14.93115234 100.59204102 C-15.43235596 99.6891333 -15.93355957 98.78622559 -16.44995117 97.85595703 C-16.968396 96.90390381 -17.48684082 95.95185059 -18.02099609 94.97094727 C-21.4697127 88.7145601 -24.93998873 82.49655663 -28.69287109 76.41625977 C-29.29220459 75.43858643 -29.89153809 74.46091309 -30.5090332 73.45361328 C-31.65732355 71.59124131 -32.8190103 69.73704263 -33.99584961 67.89257812 C-38.98733974 59.73993979 -38.98733974 59.73993979 -38.57006836 54.71191406 C-37.10802402 49.50400121 -34.07092513 44.98681516 -31.27099609 40.40844727 C-30.24443418 38.68519773 -29.2178801 36.96194338 -28.19206238 35.23825073 C-27.14339302 33.48221332 -26.08684972 31.73111659 -25.02880859 29.98071289 C-23.05173763 26.70172457 -21.12492558 23.39517198 -19.20849609 20.08032227 C-18.06278359 18.1062938 -16.91695607 16.13233208 -15.77099609 14.15844727 C-15.24352783 13.24434082 -14.71605957 12.33023437 -14.17260742 11.38842773 C-13.675271 10.5416748 -13.17793457 9.69492187 -12.66552734 8.82250977 C-12.23731689 8.08726074 -11.80910645 7.35201172 -11.36791992 6.59448242 C-8.07260155 1.77565726 -5.94897967 0.03489728 0 0 Z M-3.95849609 25.53344727 C-4.59166748 26.60175781 -5.22483887 27.67006836 -5.87719727 28.77075195 C-6.41320557 29.73916016 -6.94921387 30.70756836 -7.50146484 31.70532227 C-8.10023437 32.78168945 -8.69900391 33.85805664 -9.31591797 34.96704102 C-9.91984375 36.06145508 -10.52376953 37.15586914 -11.14599609 38.28344727 C-12.36801744 40.4869245 -13.59065109 42.69006229 -14.81396484 44.89282227 C-15.34658936 45.85671875 -15.87921387 46.82061523 -16.42797852 47.8137207 C-17.95849609 50.53344727 -17.95849609 50.53344727 -19.7800293 53.01098633 C-21.2681177 55.53788442 -21.2681177 55.53788442 -20.33422852 58.50537109 C-19.0010221 61.43984476 -17.58014345 64.20443332 -15.94677734 66.98266602 C-15.35316406 67.99651367 -14.75955078 69.01036133 -14.14794922 70.05493164 C-13.52855469 71.0997168 -12.90916016 72.14450195 -12.27099609 73.22094727 C-11.6709375 74.24639648 -11.07087891 75.2718457 -10.45263672 76.32836914 C-9.23756723 78.39437881 -7.99528421 80.44461603 -6.72680664 82.47827148 C-4.95849609 85.53344727 -4.95849609 85.53344727 -3.74682617 88.7019043 C-2.1866541 92.2787142 -1.06112138 94.12608039 2.04150391 96.53344727 C8.43629997 98.40663055 15.17999633 98.19757569 21.78344727 98.07739258 C24.97257125 98.03353573 28.1409745 98.11756226 31.32861328 98.21313477 C41.90465147 98.54381036 41.90465147 98.54381036 50.97900391 94.00585938 C53.08169766 90.60724171 54.55056579 87.23784561 56.04150391 83.53344727 C57.3805641 81.26158606 58.75858158 79.01224238 60.17431641 76.78735352 C61.50696464 74.55803083 62.83769677 72.3275616 64.16650391 70.09594727 C64.51519531 69.52980713 64.86388672 68.96366699 65.22314453 68.38037109 C66.24697159 66.7152275 67.24236036 65.03270294 68.23681641 63.34985352 C68.82479004 62.3747583 69.41276367 61.39966309 70.01855469 60.39501953 C71.36370286 56.63213607 70.68560545 55.11996337 69.04150391 51.53344727 C68.07684445 49.67792381 67.05838414 47.84961662 65.99462891 46.04907227 C65.39650391 45.03071289 64.79837891 44.01235352 64.18212891 42.96313477 C63.55822266 41.91383789 62.93431641 40.86454102 62.29150391 39.78344727 C61.68306641 38.74961914 61.07462891 37.71579102 60.44775391 36.65063477 C58.65363528 33.60676685 56.84937841 30.56916157 55.04150391 27.53344727 C54.17235352 26.06875 54.17235352 26.06875 53.28564453 24.57446289 C52.47643555 23.21611328 52.47643555 23.21611328 51.65087891 21.83032227 C51.17102539 21.02433594 50.69117188 20.21834961 50.19677734 19.38793945 C49.17436885 17.59088209 49.17436885 17.59088209 48.04150391 16.53344727 C46.63215941 16.39390587 45.21608057 16.32137643 43.80053711 16.27709961 C42.8990242 16.24812592 41.99751129 16.21915222 41.06867981 16.18930054 C36.92676843 16.09200668 32.78503511 16.01772723 28.64233398 15.96362305 C26.45868832 15.92698306 24.27526623 15.87243282 22.0925293 15.79956055 C18.94580018 15.69604501 15.80295529 15.65168077 12.65478516 15.61938477 C11.68269608 15.57607025 10.71060699 15.53275574 9.70906067 15.48812866 C1.72493978 15.51030617 -0.50735881 18.66551281 -3.95849609 25.53344727 Z " fill="#030303" transform="translate(102.95849609375,327.466552734375)"/>
<path d="M0 0 C2.11853618 2.11853618 2.63857117 3.3387972 3.62890625 6.11303711 C3.93714828 6.9675798 4.24539032 7.8221225 4.56297302 8.70256042 C5.05773888 10.10082817 5.05773888 10.10082817 5.5625 11.52734375 C5.91043106 12.49589798 6.25836212 13.46445221 6.61683655 14.46235657 C7.74970627 17.61891961 8.87490267 20.77815924 10 23.9375 C11.53816879 28.2338612 13.07971915 32.52900683 14.62109375 36.82421875 C14.99954941 37.88061554 15.37800507 38.93701233 15.76792908 40.02542114 C17.92455402 46.0374622 20.10755573 52.03808544 22.34765625 58.01953125 C22.58761322 58.66079453 22.82757019 59.3020578 23.07479858 59.9627533 C24.14502377 62.81765359 25.22223427 65.6697413 26.30664062 68.51928711 C26.67080078 69.48745361 27.03496094 70.45562012 27.41015625 71.453125 C27.87627319 72.67757324 27.87627319 72.67757324 28.35180664 73.92675781 C29 76 29 76 29 79 C20.03029528 78.40044915 11.2689241 76.92177389 2.4375 75.3125 C0.96093992 75.04681575 -0.51570573 74.78160667 -1.99243164 74.5168457 C-4.29363935 74.10410065 -6.59475841 73.69090272 -8.89555359 73.27586365 C-14.48719236 72.26757109 -20.08235151 71.2808221 -25.6796875 70.3046875 C-27.24666659 70.0308613 -28.81364255 69.75701716 -30.38061523 69.4831543 C-32.64803604 69.08696542 -34.91554259 68.69131278 -37.18338013 68.29751587 C-39.27757765 67.93353239 -41.37125654 67.56669394 -43.46484375 67.19921875 C-44.657146 66.99127686 -45.84944824 66.78333496 -47.07788086 66.5690918 C-50 66 -50 66 -53 65 C-51.31078858 60.91190847 -48.44517134 57.8437182 -45.5625 54.5625 C-44.47359025 53.30761097 -43.3850569 52.05239524 -42.296875 50.796875 C-41.47026367 49.84651367 -41.47026367 49.84651367 -40.62695312 48.87695312 C-38.16776829 46.03988635 -35.73707204 43.17915925 -33.3125 40.3125 C-32.85746094 39.77496094 -32.40242188 39.23742187 -31.93359375 38.68359375 C-29.10854422 35.33749762 -26.32481936 31.960749 -23.5625 28.5625 C-20.0712986 24.26901174 -16.49092691 20.06307079 -12.875 15.875 C-8.41487927 10.70705762 -4.10206512 5.4597909 0 0 Z " fill="#F3F3F3" transform="translate(375,338)"/>
<path d="M0 0 C-0.99 0.66 -1.98 1.32 -3 2 C-2.34 2.66 -1.68 3.32 -1 4 C-5.05606165 3.53199289 -8.46588679 3.12046792 -12 1 C-3.96428571 -1.27678571 -3.96428571 -1.27678571 0 0 Z " fill="#C8C8C8" transform="translate(312,242)"/>
<path d="M0 0 C-4.40414508 2.99481865 -4.40414508 2.99481865 -7 4 C-10.4375 3.25 -10.4375 3.25 -13 2 C-13 1.67 -13 1.34 -13 1 C-11.39796533 0.63631108 -9.79325797 0.28438048 -8.1875 -0.0625 C-7.29417969 -0.25972656 -6.40085937 -0.45695313 -5.48046875 -0.66015625 C-3 -1 -3 -1 0 0 Z " fill="#B4B4B4" transform="translate(291,246)"/>
</svg>
