<?xml version="1.0" encoding="UTF-8"?>
<svg version="1.1" xmlns="http://www.w3.org/2000/svg" width="512" height="512">
<path d="M0 0 C168.96 0 337.92 0 512 0 C512 168.96 512 337.92 512 512 C343.04 512 174.08 512 0 512 C0 343.04 0 174.08 0 0 Z " fill="#F6F6F6" transform="translate(0,0)"/>
<path d="M0 0 C1.40554637 -0.00768982 1.40554637 -0.00768982 2.83948761 -0.015535 C5.96930648 -0.02539307 9.09718182 0.00753954 12.2268219 0.04037476 C14.4741308 0.04206771 16.72144303 0.0411162 18.96875 0.03771973 C25.0634736 0.03599855 31.1574884 0.07126959 37.2520473 0.11316347 C43.62349016 0.15067638 49.99494934 0.15419631 56.3664856 0.16131592 C67.05867719 0.17784453 77.75058893 0.21531905 88.44264221 0.26889038 C99.45337122 0.32400089 110.46402961 0.36645353 121.47486877 0.39193726 C122.1540647 0.3935136 122.83326063 0.39508994 123.53303825 0.39671405 C126.94051161 0.40454452 130.34798547 0.41212671 133.75545967 0.41958547 C162.00463937 0.48174224 190.25353184 0.58783022 218.50245667 0.7215271 C218.64281631 23.98327481 218.74852056 47.24495237 218.8133297 70.50703812 C218.84422585 81.30882195 218.88632523 92.11034218 218.95509338 102.91195679 C219.01502528 112.33015079 219.05363661 121.74815382 219.06698763 131.16653323 C219.07478807 136.15042953 219.09303201 141.13377962 219.13683701 146.11750031 C219.1777962 150.81586043 219.19007897 155.51345338 219.18110275 160.2119751 C219.18274303 161.92918834 219.19453876 163.64642928 219.21768951 165.36348724 C219.35168531 175.82153104 218.22141705 183.65269042 212.50245667 192.7215271 C211.52019725 194.43329778 210.54058617 196.14659404 209.56495667 197.8621521 C208.54798746 199.56758726 207.52701989 201.27064331 206.50245667 202.9715271 C205.35339422 204.89823786 204.20497918 206.82533484 203.05714417 208.7527771 C202.47029846 209.73633179 201.88345276 210.71988647 201.27882385 211.73324585 C198.36787565 216.63016807 195.49615114 221.54976724 192.62745667 226.4715271 C191.76785339 227.94480469 191.76785339 227.94480469 190.8908844 229.44784546 C187.75334241 234.83264592 184.63285226 240.226941 181.52980042 245.63168335 C181.19774597 246.2094754 180.86569153 246.78726746 180.52357483 247.38256836 C178.92555274 250.16330819 177.329991 252.94538982 175.73927307 255.73031616 C172.84683454 260.76906738 169.91140636 265.78063005 166.87355042 270.73324585 C166.08162292 272.03008301 166.08162292 272.03008301 165.2736969 273.3531189 C162.55974764 276.98206745 159.80847399 279.28618799 155.50245667 280.7215271 C148.13764384 281.51292146 143.79119814 279.26054618 137.50245667 275.5965271 C136.54895325 275.0588269 135.59544983 274.52112671 134.61305237 273.96713257 C131.56393083 272.23904039 128.5315311 270.48449583 125.50245667 268.7215271 C124.0375177 267.87171265 124.0375177 267.87171265 122.54298401 267.00473022 C118.58285339 264.70415193 114.62670026 262.39706139 110.67823792 260.07650757 C103.50412636 255.86356127 96.27275873 251.76592605 89.00245667 247.7215271 C79.77304374 242.585395 70.63008271 237.31939927 61.52198792 231.9715271 C54.39717477 227.7990875 47.21699525 223.73657466 40.00245667 219.7215271 C30.77314264 214.58521321 21.63008694 209.31940175 12.52198792 203.9715271 C5.39717477 199.7990875 -1.78300475 195.73657466 -8.99754333 191.7215271 C-18.22685736 186.58521321 -27.36991306 181.31940175 -36.47801208 175.9715271 C-43.60283 171.79908471 -50.78310975 167.73676965 -57.99754333 163.7215271 C-68.38300291 157.93849324 -78.67814719 152.01503509 -88.92332458 145.9871521 C-92.46592541 143.90291077 -96.02264973 141.84954984 -99.60301208 139.8309021 C-100.3828949 139.3864978 -101.16277771 138.94209351 -101.96629333 138.48422241 C-103.38416791 137.677307 -104.80693699 136.87889331 -106.23582458 136.09164429 C-111.19752569 133.24581263 -114.88667244 129.94326889 -117.49754333 124.7215271 C-118.65913291 115.84625673 -114.99541628 110.2539644 -110.49754333 102.8465271 C-109.76734313 101.61140406 -109.03894057 100.37521669 -108.3122406 99.13803101 C-106.42994781 95.94349581 -104.52549518 92.76280159 -102.61503601 89.58505249 C-100.86354919 86.66428153 -99.13219933 83.73183975 -97.39988708 80.7996521 C-94.76191683 76.33658958 -92.11475523 71.87917008 -89.46238708 67.4246521 C-85.41108736 60.60077852 -81.4502832 53.72780912 -77.49754333 46.8465271 C-75.68644864 43.70752894 -73.87378735 40.5694443 -72.06004333 37.43197632 C-71.09718809 35.76172337 -70.13803957 34.08931939 -69.18504333 32.41342163 C-62.05382291 19.88259046 -62.05382291 19.88259046 -55.49754333 16.7215271 C-48.93895918 16.10579504 -44.94838826 17.46431382 -39.24754333 20.5965271 C-38.2072699 21.14373413 -38.2072699 21.14373413 -37.14598083 21.70199585 C-35.85786061 22.38060325 -34.57316897 23.06579591 -33.29344177 23.76010132 C-31.3792034 24.78487983 -29.4433535 25.75826004 -27.49754333 26.7215271 C-27.20097839 26.14708862 -26.90441345 25.57265015 -26.59886169 24.98080444 C-25.22642712 22.34430637 -23.83103349 19.72062362 -22.43504333 17.0965271 C-21.96904724 16.19289429 -21.50305115 15.28926147 -21.02293396 14.35824585 C-20.54920349 13.47523804 -20.07547302 12.59223022 -19.58738708 11.6824646 C-18.95111389 10.47276001 -18.95111389 10.47276001 -18.30198669 9.23861694 C-13.19719281 2.11773682 -8.6838454 -0.17510082 0 0 Z " fill="#040404" transform="translate(293.49754333496094,-0.721527099609375)"/>
<path d="M0 0 C97.68 0 195.36 0 296 0 C296 34.32 296 68.64 296 104 C198.32 104 100.64 104 0 104 C0 69.68 0 35.36 0 0 Z " fill="#F7F7F7" transform="translate(200,392)"/>
<path d="M0 0 C97.68 0 195.36 0 296 0 C296 34.32 296 68.64 296 104 C198.32 104 100.64 104 0 104 C0 69.68 0 35.36 0 0 Z " fill="#F7F7F7" transform="translate(16,248)"/>
<path d="M0 0 C4.13998234 0.59499575 7.09334263 1.97741831 10.69921875 4.0703125 C11.81256592 4.71178223 12.92591309 5.35325195 14.07299805 6.01416016 C15.27788189 6.71768806 16.48271453 7.42130365 17.6875 8.125 C18.94337567 8.85142442 20.19964827 9.57716298 21.45629883 10.30224609 C24.68537622 12.16733989 27.90991905 14.0401231 31.13330078 15.91503906 C36.14561229 18.82828944 41.16724361 21.72547153 46.1875 24.625 C47.25170166 25.24060791 48.31590332 25.85621582 49.41235352 26.49047852 C56.78146828 30.74526835 64.19136336 34.92163847 71.625 39.0625 C80.85697681 44.20519332 90.00689153 49.47308342 99.12158203 54.82055664 C106.82385028 59.333003 114.58302927 63.73645628 122.36474609 68.11010742 C129.20201536 71.9615248 135.98364538 75.90054466 142.75 79.875 C151.26706882 84.87390706 159.85381598 89.72807585 168.5 94.5 C178.15332365 99.8277756 187.71564983 105.2868206 197.22265625 110.87109375 C203.94466085 114.81526334 210.70593152 118.68141902 217.5 122.5 C229.41304895 129.19713819 241.21391965 136.08238955 253 143 C252.3495786 146.18521166 251.2229883 148.65083242 249.62109375 151.47265625 C249.1204541 152.35800049 248.61981445 153.24334473 248.10400391 154.15551758 C247.55405762 155.11482178 247.00411133 156.07412598 246.4375 157.0625 C245.86177246 158.07401123 245.28604492 159.08552246 244.69287109 160.12768555 C239.59744618 169.04093951 234.36513832 177.8716613 229.11206055 186.69262695 C220.57840547 201.03397981 212.27077913 215.50566429 204 230 C199.88598471 229.40573776 196.95337406 228.04782817 193.37109375 225.96484375 C192.26830078 225.32869141 191.16550781 224.69253906 190.02929688 224.03710938 C188.8319987 223.33729528 187.634734 222.63742389 186.4375 221.9375 C185.1846756 221.21214604 183.93141237 220.48754952 182.67773438 219.76367188 C180.07364711 218.25927818 177.47147829 216.75164289 174.87060547 215.24169922 C168.931232 211.79718502 162.96430043 208.40111604 157 205 C154.66637252 203.66718124 152.33318723 202.33358927 150 201 C148.83334147 200.33331909 147.66667481 199.66665242 146.5 199 C27.50000001 131.00000001 27.50000001 131.00000001 25.75006104 130.00003052 C24.58319593 129.33325336 23.41632581 128.66648497 22.24945068 127.99972534 C19.33577909 126.33482094 16.42219422 124.66976514 13.50878906 123.00439453 C8.22327761 119.9832709 2.93711101 116.96332191 -2.35223389 113.94891357 C-17.95528814 105.0565412 -33.50756716 96.08384735 -49 87 C-48.34593456 83.76879704 -47.18015522 81.28005757 -45.55078125 78.421875 C-44.78459473 77.07101807 -44.78459473 77.07101807 -44.00292969 75.69287109 C-43.44508789 74.72172363 -42.88724609 73.75057617 -42.3125 72.75 C-41.43899902 71.21786865 -41.43899902 71.21786865 -40.54785156 69.65478516 C-34.11071814 58.39066271 -27.56465215 47.19012116 -21 36 C-20.2633106 34.74367331 -19.52665839 33.48732481 -18.79003906 32.23095703 C-18.41053101 31.58368652 -18.03102295 30.93641602 -17.64001465 30.26953125 C-16.86533986 28.94825191 -16.09068161 27.62696287 -15.31604004 26.30566406 C-13.43974537 23.10545018 -11.56288537 19.90557149 -9.68457031 16.70654297 C-6.42596021 11.15475273 -3.17442129 5.60046865 0 0 Z " fill="#F6F6F6" transform="translate(242,33)"/>
<path d="M0 0 C1.22167374 -0.00619858 2.44334747 -0.01239716 3.70204163 -0.01878357 C6.28336796 -0.02588161 8.86474007 -0.02270813 11.44604492 -0.01000977 C15.39262307 0.0038447 19.33682557 -0.03020753 23.28320312 -0.06835938 C25.79296933 -0.06931068 28.3027385 -0.06745116 30.8125 -0.0625 C31.99077866 -0.07575821 33.16905731 -0.08901642 34.38304138 -0.10267639 C43.51201238 0.00090633 43.51201238 0.00090633 47.13891602 2.79321289 C50.76135081 7.09776743 51.73311566 10.29712634 51.66796875 15.8671875 C51.66152344 16.84365234 51.65507813 17.82011719 51.6484375 18.82617188 C51.62330078 20.33727539 51.62330078 20.33727539 51.59765625 21.87890625 C51.58863281 22.90564453 51.57960938 23.93238281 51.5703125 24.99023438 C51.54681956 27.51572552 51.51095076 30.04109617 51.47265625 32.56640625 C56.75265625 32.56640625 62.03265625 32.56640625 67.47265625 32.56640625 C67.42044922 30.28863281 67.42044922 30.28863281 67.3671875 27.96484375 C67.33904075 25.95704235 67.31174154 23.94922894 67.28515625 21.94140625 C67.26001953 20.94238281 67.23488281 19.94335938 67.20898438 18.9140625 C67.14135803 12.10634419 67.72645252 7.75345373 72.30224609 2.44311523 C77.30459456 -0.51800079 82.29096512 -0.02399051 88 0 C89.8325106 -0.00929787 89.8325106 -0.00929787 91.70204163 -0.01878357 C94.28336796 -0.02588161 96.86474007 -0.02270813 99.44604492 -0.01000977 C103.39262307 0.0038447 107.33682557 -0.03020753 111.28320312 -0.06835938 C113.79296933 -0.06931068 116.3027385 -0.06745116 118.8125 -0.0625 C119.99077866 -0.07575821 121.16905731 -0.08901642 122.38304138 -0.10267639 C131.51201238 0.00090633 131.51201238 0.00090633 135.13891602 2.79321289 C138.76135081 7.09776743 139.73311566 10.29712634 139.66796875 15.8671875 C139.66297363 16.74802002 139.65797852 17.62885254 139.65283203 18.53637695 C139.63462402 19.63941162 139.61641602 20.74244629 139.59765625 21.87890625 C139.55640625 25.40578125 139.51515625 28.93265625 139.47265625 32.56640625 C147.39265625 32.56640625 155.31265625 32.56640625 163.47265625 32.56640625 C163.35452218 25.59607338 163.35452218 25.59607338 163.20239258 18.62646484 C163.14526737 11.92991575 163.80859583 7.65812409 168.30224609 2.44311523 C173.30459456 -0.51800079 178.29096512 -0.02399051 184 0 C185.8325106 -0.00929787 185.8325106 -0.00929787 187.70204163 -0.01878357 C190.28336796 -0.02588161 192.86474007 -0.02270813 195.44604492 -0.01000977 C199.39262307 0.0038447 203.33682557 -0.03020753 207.28320312 -0.06835938 C209.79296933 -0.06931068 212.3027385 -0.06745116 214.8125 -0.0625 C215.99077866 -0.07575821 217.16905731 -0.08901642 218.38304138 -0.10267639 C227.51201238 0.00090633 227.51201238 0.00090633 231.13891602 2.79321289 C234.76135081 7.09776743 235.73311566 10.29712634 235.66796875 15.8671875 C235.66152344 16.84365234 235.65507812 17.82011719 235.6484375 18.82617188 C235.63167969 19.83357422 235.61492187 20.84097656 235.59765625 21.87890625 C235.58863281 22.90564453 235.57960938 23.93238281 235.5703125 24.99023438 C235.54681826 27.51586524 235.51396756 30.04101435 235.47265625 32.56640625 C236.0773877 32.54545898 236.68211914 32.52451172 237.30517578 32.50292969 C240.06916396 32.4193168 242.83288538 32.36760571 245.59765625 32.31640625 C246.54898437 32.28289062 247.5003125 32.249375 248.48046875 32.21484375 C254.36080977 32.13317235 257.85185492 32.53876643 262.47265625 36.56640625 C265.96793525 40.53402025 267.59280306 42.83918343 267.61982727 48.09442139 C267.63056023 49.52435928 267.63056023 49.52435928 267.64151001 50.98318481 C267.64419891 52.03255219 267.64688782 53.08191956 267.6496582 54.16308594 C267.6562294 55.26564728 267.6628006 56.36820862 267.66957092 57.50418091 C267.68933753 61.16554832 267.70097407 64.82687465 267.7109375 68.48828125 C267.71501303 69.7366703 267.71908855 70.98505936 267.72328758 72.27127838 C267.7420085 78.19690228 267.75657081 84.12251306 267.76489955 90.04815936 C267.77466681 96.88420678 267.80097165 103.71992995 267.84140044 110.55586314 C267.87522796 116.4793258 267.88704701 122.40270925 267.89110374 128.32627106 C267.89598039 130.84447681 267.90762482 133.36267883 267.92614174 135.88082123 C267.95044434 139.40486045 267.94958386 142.92805137 267.94262695 146.45214844 C267.96184204 148.01405411 267.96184204 148.01405411 267.98144531 149.60751343 C267.93832753 155.59703995 267.45142301 159.00014863 263.47265625 163.56640625 C259.28641182 167.25428825 256.99841016 168.68993312 251.46440506 168.70062733 C250.39820411 168.70508517 249.33200316 168.70954301 248.23349309 168.71413594 C246.46242542 168.7138594 246.46242542 168.7138594 244.65557861 168.71357727 C243.40853614 168.71725396 242.16149366 168.72093065 240.87666202 168.72471875 C237.40388121 168.73475463 233.93111769 168.73845809 230.45832443 168.74110806 C226.71723442 168.74500642 222.97615816 168.75458509 219.2350769 168.76332092 C210.19465012 168.78309875 201.1542222 168.79315328 192.11377919 168.80204871 C187.85879831 168.80642952 183.60381869 168.81179687 179.34883881 168.81703758 C165.20820499 168.83405129 151.06757196 168.84854606 136.92692947 168.85578632 C133.25597381 168.85769629 129.58501814 168.85961661 125.9140625 168.86157227 C125.00163925 168.86205601 124.08921599 168.86253975 123.14914355 168.86303815 C108.36433936 168.87134066 93.57961603 168.89668066 78.79484716 168.92915294 C63.62320674 168.96220385 48.45160744 168.98023331 33.27993083 168.98343056 C24.7585224 168.98559751 16.23723186 168.99437299 7.71585846 169.01989174 C0.45942704 169.0415719 -6.79685786 169.04966245 -14.05331799 169.03992496 C-17.75637702 169.03537238 -21.45913357 169.03732156 -25.16215134 169.0566864 C-29.17575882 169.07749436 -33.18869208 169.06735821 -37.20233154 169.05415344 C-38.37412043 169.06512269 -39.54590932 169.07609193 -40.75320697 169.08739358 C-46.99114803 169.0376764 -50.81271127 168.80318552 -55.52734375 164.56640625 C-59.02262275 160.59879225 -60.64749056 158.29362907 -60.67451477 153.03839111 C-60.68167007 152.08509918 -60.68882538 151.13180725 -60.69619751 150.14962769 C-60.69888641 149.10026031 -60.70157532 148.05089294 -60.7043457 146.96972656 C-60.7142025 145.31588455 -60.7142025 145.31588455 -60.72425842 143.62863159 C-60.74402503 139.96726418 -60.75566157 136.30593785 -60.765625 132.64453125 C-60.76970053 131.3961422 -60.77377605 130.14775314 -60.77797508 128.86153412 C-60.796696 122.93591022 -60.81125831 117.01029944 -60.81958705 111.08465314 C-60.82935431 104.24860572 -60.85565915 97.41288255 -60.89608794 90.57694936 C-60.92991546 84.6534867 -60.94173451 78.73010325 -60.94579124 72.80654144 C-60.95066789 70.28833569 -60.96231232 67.77013367 -60.98082924 65.25199127 C-61.00513184 61.72795205 -61.00427136 58.20476113 -60.99731445 54.68066406 C-61.01012451 53.63939362 -61.02293457 52.59812317 -61.03613281 51.52529907 C-60.99301503 45.53577255 -60.50611051 42.13266387 -56.52734375 37.56640625 C-51.72321537 33.33419792 -49.3574221 32.44105808 -42.98828125 32.46875 C-41.68632813 32.47197266 -40.384375 32.47519531 -39.04296875 32.47851562 C-37.66275976 32.48687159 -36.28255143 32.49533654 -34.90234375 32.50390625 C-33.51432449 32.50892124 -32.12630353 32.51348415 -30.73828125 32.51757812 C-27.33459243 32.52939649 -23.93098936 32.54587191 -20.52734375 32.56640625 C-20.5430542 31.93138184 -20.55876465 31.29635742 -20.57495117 30.64208984 C-20.63762965 27.74195395 -20.67643792 24.84196101 -20.71484375 21.94140625 C-20.73998047 20.94238281 -20.76511719 19.94335938 -20.79101562 18.9140625 C-20.85864197 12.10634419 -20.27354748 7.75345373 -15.69775391 2.44311523 C-10.69540544 -0.51800079 -5.70903488 -0.02399051 0 0 Z M-44.52734375 48.56640625 C-44.52734375 82.88640625 -44.52734375 117.20640625 -44.52734375 152.56640625 C53.15265625 152.56640625 150.83265625 152.56640625 251.47265625 152.56640625 C251.47265625 118.24640625 251.47265625 83.92640625 251.47265625 48.56640625 C153.79265625 48.56640625 56.11265625 48.56640625 -44.52734375 48.56640625 Z " fill="#000000" transform="translate(60.52734375,199.43359375)"/>
<path d="M0 0 C72.93 0 145.86 0 221 0 C221 56.76 221 113.52 221 172 C219.02 169.525 219.02 169.525 217 167 C212.51969703 162.91501788 207.21594728 160.03841589 202 157 C202.58073956 152.62832164 204.21160903 149.61708195 206.5 145.875 C209.90593793 140.27753643 211.45899255 136.65539203 211 130 C208.87279184 125.18886838 205.51859919 123.10570903 201.09375 120.6015625 C200.41380981 120.2035141 199.73386963 119.8054657 199.0333252 119.39535522 C196.86196658 118.12713603 194.68154595 116.8755985 192.5 115.625 C190.35550508 114.38187066 188.2130336 113.13532034 186.07104492 111.88787842 C184.67511141 111.07525901 183.2781448 110.26441157 181.88012695 109.4553833 C176.926424 106.5785664 172.09003899 103.55394707 167.31445312 100.38818359 C162.52524048 97.51566639 158.61705675 96.31018601 153 97 C147.56826851 100.7191558 144.78424243 105.11918244 141.625 110.8125 C140.95017578 111.99489258 140.95017578 111.99489258 140.26171875 113.20117188 C139.16378557 115.12839501 138.07702304 117.06103894 137 119 C133.20950293 117.57250019 129.72877544 115.83763458 126.1875 113.875 C125.21167969 113.33617188 124.23585938 112.79734375 123.23046875 112.2421875 C122.49441406 111.83226563 121.75835937 111.42234375 121 111 C121.58093022 106.67087614 123.16497691 103.70407089 125.4375 100 C129.1952319 93.84955781 131.65726643 89.36138401 131 82 C128.8600838 77.19287228 125.52166625 75.10744476 121.09375 72.6015625 C120.41380981 72.2035141 119.73386963 71.8054657 119.0333252 71.39535522 C116.86196658 70.12713603 114.68154595 68.8755985 112.5 67.625 C110.35550508 66.38187066 108.2130336 65.13532034 106.07104492 63.88787842 C104.67511141 63.07525901 103.2781448 62.26441157 101.88012695 61.4553833 C96.926424 58.5785664 92.09003899 55.55394707 87.31445312 52.38818359 C82.52524048 49.51566639 78.61705675 48.31018601 73 49 C67.38465643 52.78145269 64.80502084 57.30968171 61.75 63.25 C60.89547389 64.88275525 60.03632873 66.51310408 59.171875 68.140625 C58.8015918 68.85766602 58.43130859 69.57470703 58.04980469 70.31347656 C57 72 57 72 55 73 C52.55851287 71.82808618 50.27118007 70.60879278 47.9375 69.25 C47.28716797 68.8890625 46.63683594 68.528125 45.96679688 68.15625 C41.12504692 65.37514077 41.12504692 65.37514077 40 62 C40.6809082 60.27001953 40.6809082 60.27001953 41.80078125 58.3828125 C42.20103516 57.69316406 42.60128906 57.00351562 43.01367188 56.29296875 C43.6565918 55.21982422 43.6565918 55.21982422 44.3125 54.125 C50.0004336 44.75370072 50.0004336 44.75370072 51 34 C48.8600838 29.19287228 45.52166625 27.10744476 41.09375 24.6015625 C40.41380981 24.2035141 39.73386963 23.8054657 39.0333252 23.39535522 C36.86196658 22.12713603 34.68154595 20.8755985 32.5 19.625 C30.35550508 18.38187066 28.2130336 17.13532034 26.07104492 15.88787842 C24.67511141 15.07525901 23.2781448 14.26441157 21.88012695 13.4553833 C16.926424 10.5785664 12.09003899 7.55394707 7.31445312 4.38818359 C4.94351281 2.9661196 2.59051598 1.95449136 0 1 C0 0.67 0 0.34 0 0 Z " fill="#F6F6F6" transform="translate(291,0)"/>
<path d="M0 0 C1.8325106 -0.00929787 1.8325106 -0.00929787 3.70204163 -0.01878357 C6.28336796 -0.02588161 8.86474007 -0.02270813 11.44604492 -0.01000977 C15.39262307 0.0038447 19.33682557 -0.03020753 23.28320312 -0.06835938 C25.79296933 -0.06931068 28.3027385 -0.06745116 30.8125 -0.0625 C31.99077866 -0.07575821 33.16905731 -0.08901642 34.38304138 -0.10267639 C43.51201238 0.00090633 43.51201238 0.00090633 47.13891602 2.79321289 C50.76135081 7.09776743 51.73311566 10.29712634 51.66796875 15.8671875 C51.66152344 16.84365234 51.65507812 17.82011719 51.6484375 18.82617188 C51.63167969 19.83357422 51.61492187 20.84097656 51.59765625 21.87890625 C51.58863281 22.90564453 51.57960938 23.93238281 51.5703125 24.99023438 C51.54681826 27.51586524 51.51396756 30.04101435 51.47265625 32.56640625 C52.0773877 32.54545898 52.68211914 32.52451172 53.30517578 32.50292969 C56.06916396 32.4193168 58.83288538 32.36760571 61.59765625 32.31640625 C62.54898437 32.28289062 63.5003125 32.249375 64.48046875 32.21484375 C70.36080977 32.13317235 73.85185492 32.53876643 78.47265625 36.56640625 C82.15438426 40.74566507 83.59844761 43.02662672 83.59291077 48.55239868 C83.59497276 50.13417656 83.59497276 50.13417656 83.59707642 51.74790955 C83.59348114 52.90956131 83.58988586 54.07121307 83.58618164 55.26806641 C83.58632767 56.48755478 83.58647369 57.70704315 83.58662415 58.96348572 C83.5860458 62.31245806 83.58102171 65.66136918 83.57405019 69.01033068 C83.56780973 72.50838065 83.5672123 76.0064314 83.56602478 79.50448608 C83.56291351 86.13075486 83.55470287 92.75700719 83.54467529 99.38326871 C83.53350782 106.92609554 83.5280021 114.46892315 83.52297986 122.01175618 C83.51252009 137.52998241 83.49492459 153.04819221 83.47265625 168.56640625 C43.19088356 168.65793159 2.90912441 168.72842963 -37.37273145 168.77066757 C-42.12674301 168.77567048 -46.88075437 168.78084777 -51.63476562 168.78613281 C-52.58121665 168.78718205 -53.52766767 168.7882313 -54.50279902 168.78931233 C-69.83414494 168.80672472 -85.16543095 168.838267 -100.49674131 168.87501743 C-116.22427913 168.91240365 -131.95178555 168.93463719 -147.67936599 168.94276023 C-157.38668437 168.94825282 -167.09383343 168.96561004 -176.8010997 168.99807212 C-183.45480511 169.01919138 -190.1084228 169.02561217 -196.7621593 169.02041176 C-200.60292418 169.01784593 -204.44339288 169.02182068 -208.2841053 169.04322815 C-212.44668836 169.06626048 -216.60863862 169.05837114 -220.77127075 169.04742432 C-221.98722431 169.05907568 -223.20317787 169.07072705 -224.45597851 169.08273149 C-230.77883071 169.03761663 -234.76354413 168.8973584 -239.52734375 164.56640625 C-243.02262275 160.59879225 -244.64749056 158.29362907 -244.67451477 153.03839111 C-244.68167007 152.08509918 -244.68882538 151.13180725 -244.69619751 150.14962769 C-244.69888641 149.10026031 -244.70157532 148.05089294 -244.7043457 146.96972656 C-244.7142025 145.31588455 -244.7142025 145.31588455 -244.72425842 143.62863159 C-244.74402503 139.96726418 -244.75566157 136.30593785 -244.765625 132.64453125 C-244.76970053 131.3961422 -244.77377605 130.14775314 -244.77797508 128.86153412 C-244.796696 122.93591022 -244.81125831 117.01029944 -244.81958705 111.08465314 C-244.82935431 104.24860572 -244.85565915 97.41288255 -244.89608794 90.57694936 C-244.92991546 84.6534867 -244.94173451 78.73010325 -244.94579124 72.80654144 C-244.95066789 70.28833569 -244.96231232 67.77013367 -244.98082924 65.25199127 C-245.00513184 61.72795205 -245.00427136 58.20476113 -244.99731445 54.68066406 C-245.01012451 53.63939362 -245.02293457 52.59812317 -245.03613281 51.52529907 C-244.99301503 45.53577255 -244.50611051 42.13266387 -240.52734375 37.56640625 C-235.25554142 32.92219943 -232.0725965 32.42182787 -225.20053101 32.44615173 C-224.3290255 32.44529731 -223.45752 32.44444288 -222.55960524 32.44356257 C-219.62223583 32.44190777 -216.68492279 32.44742915 -213.74755859 32.45288086 C-211.64876812 32.45316276 -209.54997755 32.45300495 -207.45118713 32.45243835 C-201.73866925 32.45215048 -196.02617221 32.45804559 -190.31365919 32.46501231 C-184.34921339 32.47124752 -178.38476716 32.47184978 -172.4203186 32.47303772 C-161.11914542 32.47615054 -149.81798186 32.48436327 -138.51681292 32.49438721 C-125.65365101 32.50554987 -112.79048865 32.51105918 -99.9273231 32.51608264 C-73.46065797 32.52654592 -46.9940014 32.54414441 -20.52734375 32.56640625 C-20.55090942 31.61386963 -20.55090942 31.61386963 -20.57495117 30.64208984 C-20.63762965 27.74195395 -20.67643792 24.84196101 -20.71484375 21.94140625 C-20.73998047 20.94238281 -20.76511719 19.94335938 -20.79101562 18.9140625 C-20.85924091 12.04605034 -20.06485968 7.68357266 -15.62280273 2.22680664 C-10.62541347 -0.45378681 -5.58206393 -0.02345695 0 0 Z M-228.52734375 48.56640625 C-228.52734375 82.88640625 -228.52734375 117.20640625 -228.52734375 152.56640625 C-130.84734375 152.56640625 -33.16734375 152.56640625 67.47265625 152.56640625 C67.47265625 118.24640625 67.47265625 83.92640625 67.47265625 48.56640625 C-30.20734375 48.56640625 -127.88734375 48.56640625 -228.52734375 48.56640625 Z " fill="#000000" transform="translate(428.52734375,343.43359375)"/>
<path d="M0 0 C44.88 0 89.76 0 136 0 C136 34.32 136 68.64 136 104 C91.12 104 46.24 104 0 104 C0 69.68 0 35.36 0 0 Z " fill="#F7F7F7" transform="translate(16,392)"/>
<path d="M0 0 C1.42808748 -0.00542613 2.85616936 -0.01255154 4.28424072 -0.02124023 C8.14794996 -0.03941853 12.01123021 -0.03242907 15.87494659 -0.01972389 C19.92624533 -0.00956757 23.97750835 -0.01899686 28.02880859 -0.02526855 C34.83112148 -0.03253733 41.63326042 -0.02297757 48.43554688 -0.00390625 C56.28994627 0.01786112 64.14393029 0.01080919 71.99831963 -0.01121187 C78.75269045 -0.02938792 85.50693654 -0.03191346 92.26132393 -0.0214572 C96.29071991 -0.01523434 100.3199209 -0.0143532 104.3493042 -0.02760315 C108.13831694 -0.03919329 111.92679628 -0.03107895 115.71575165 -0.00802612 C117.1028327 -0.0027558 118.48995897 -0.00422406 119.87702179 -0.01307678 C133.4149048 -0.09148705 133.4149048 -0.09148705 138.9140625 4.51757812 C143.47874898 10.31222556 143.48822677 15.46901813 143.43164062 22.66601562 C143.4386499 23.76770081 143.44565918 24.86938599 143.45288086 26.00445557 C143.4704382 29.63408866 143.45884532 33.26293755 143.4453125 36.89257812 C143.44800804 39.42171376 143.45189098 41.95084838 143.45690918 44.47998047 C143.46280121 49.77582643 143.45463411 55.07139319 143.43554688 60.3671875 C143.41378042 66.47661704 143.42083278 72.58551251 143.4428525 78.69492912 C143.46324034 84.58908376 143.46102056 90.48307348 143.44932556 96.3772583 C143.44666042 98.87786942 143.44992051 101.3784942 143.45924377 103.87908936 C143.46942136 107.37613847 143.4538895 110.87216734 143.43164062 114.36914062 C143.43973755 115.39896057 143.44783447 116.42878052 143.45617676 117.48980713 C143.38318529 123.69395148 142.80281472 127.58099636 138.9140625 132.51757812 C132.50494345 138.03281662 124.72068305 137.05352943 116.70727539 136.97167969 C115.15946482 136.97055037 113.6116521 136.97118673 112.06384277 136.97344971 C107.87618506 136.97459449 103.68898829 136.95112374 99.50143743 136.92315388 C95.11991432 136.89810068 90.73837994 136.89579514 86.35679626 136.89105225 C78.06604984 136.87863396 69.77551512 136.84582794 61.48486179 136.80565429 C52.04355473 136.76090081 42.60223742 136.73894055 33.16085064 136.71887255 C13.74513471 136.67709425 -5.67038436 136.60676457 -25.0859375 136.51757812 C-25.17946353 120.34053609 -25.24995706 104.16358203 -25.29318619 87.9863348 C-25.31379358 80.47460315 -25.34187903 72.9630397 -25.38769531 65.45141602 C-25.42761925 58.90271517 -25.45338357 52.35413615 -25.46229148 45.80531698 C-25.46749692 42.33911748 -25.4796928 38.87326647 -25.50885773 35.40717888 C-25.5411851 31.53367558 -25.54189334 27.66051026 -25.54003906 23.78686523 C-25.55442017 22.64318985 -25.56880127 21.49951447 -25.58361816 20.32118225 C-25.55008976 13.84927986 -25.21548968 9.63113047 -21.0859375 4.51757812 C-14.81065152 -0.74199137 -7.8576869 -0.05015053 0 0 Z M-9.0859375 16.51757812 C-9.0859375 50.83757812 -9.0859375 85.15757812 -9.0859375 120.51757812 C35.7940625 120.51757812 80.6740625 120.51757812 126.9140625 120.51757812 C126.9140625 86.19757813 126.9140625 51.87757813 126.9140625 16.51757812 C82.0340625 16.51757812 37.1540625 16.51757812 -9.0859375 16.51757812 Z " fill="#000000" transform="translate(25.0859375,375.482421875)"/>
<path d="M0 0 C4.338441 1.59269727 8.30276452 3.72660566 12.3125 6 C13.00021484 6.38792725 13.68792969 6.77585449 14.39648438 7.17553711 C22.07672124 11.54919874 29.54692759 16.25263074 37 21 C36.60167969 21.72445312 36.20335937 22.44890625 35.79296875 23.1953125 C35.26316406 24.16210938 34.73335938 25.12890625 34.1875 26.125 C33.66542969 27.07632813 33.14335937 28.02765625 32.60546875 29.0078125 C31.0116185 31.97834606 29.50164299 34.98204595 28 38 C19.58783564 33.89581483 11.36720439 29.53487659 3.25 24.875 C2.15945313 24.26785156 1.06890625 23.66070312 -0.0546875 23.03515625 C-1.08335937 22.44347656 -2.11203125 21.85179688 -3.171875 21.2421875 C-4.1009668 20.7147998 -5.03005859 20.18741211 -5.98730469 19.64404297 C-6.65149414 19.10150879 -7.31568359 18.55897461 -8 18 C-8 13.27740792 -6.35101802 10.65777319 -4 6.75 C-3.6184375 6.1003125 -3.236875 5.450625 -2.84375 4.78125 C-1.90356117 3.18292899 -0.95279986 1.59083547 0 0 Z " fill="#F2F2F2" transform="translate(289,18)"/>
<path d="M0 0 C4.338441 1.59269727 8.30276452 3.72660566 12.3125 6 C13.00021484 6.38792725 13.68792969 6.77585449 14.39648438 7.17553711 C22.07672124 11.54919874 29.54692759 16.25263074 37 21 C36.04416032 22.93873142 35.08523808 24.8759433 34.125 26.8125 C33.59132813 27.89144531 33.05765625 28.97039062 32.5078125 30.08203125 C31 33 31 33 29 36 C25.22954824 34.583396 21.79620026 32.86002579 18.2890625 30.8828125 C17.20882813 30.27566406 16.12859375 29.66851562 15.015625 29.04296875 C13.89671875 28.41003906 12.7778125 27.77710937 11.625 27.125 C10.51382812 26.49980469 9.40265625 25.87460938 8.2578125 25.23046875 C2.82758065 22.17273105 -2.59395594 19.10029616 -8 16 C-6.42986223 10.03347646 -3.24970218 5.17090975 0 0 Z " fill="#F2F2F2" transform="translate(369,66)"/>
<path d="M0 0 C3.40240665 1.29387825 6.53585809 2.76904826 9.6953125 4.57421875 C10.5716333 5.07405273 11.4479541 5.57388672 12.35083008 6.08886719 C13.26630615 6.61641602 14.18178223 7.14396484 15.125 7.6875 C16.06045654 8.22407227 16.99591309 8.76064453 17.9597168 9.31347656 C24.42184449 13.03948919 30.78744041 16.86799315 37 21 C36.07487334 22.98498051 35.13449763 24.96286018 34.1875 26.9375 C33.66542969 28.03964844 33.14335937 29.14179688 32.60546875 30.27734375 C31 33 31 33 28 34 C25.52319336 32.92358398 25.52319336 32.92358398 22.58984375 31.24609375 C20.98012695 30.3344043 20.98012695 30.3344043 19.33789062 29.40429688 C18.21576172 28.75525391 17.09363281 28.10621094 15.9375 27.4375 C14.84244141 26.81552734 13.74738281 26.19355469 12.61914062 25.55273438 C6.02388283 21.79355528 -0.50952584 17.93708486 -7 14 C-5.53967505 8.68972746 -3.01679014 4.53669968 0 0 Z " fill="#F1F1F1" transform="translate(449,114)"/>
<path d="M0 0 C13.2 0 26.4 0 40 0 C40 5.28 40 10.56 40 16 C26.8 16 13.6 16 0 16 C0 10.72 0 5.44 0 0 Z " fill="#F7F7F7" transform="translate(424,360)"/>
<path d="M0 0 C13.2 0 26.4 0 40 0 C40 5.28 40 10.56 40 16 C26.8 16 13.6 16 0 16 C0 10.72 0 5.44 0 0 Z " fill="#F7F7F7" transform="translate(240,216)"/>
<path d="M0 0 C13.2 0 26.4 0 40 0 C40 5.28 40 10.56 40 16 C26.8 16 13.6 16 0 16 C0 10.72 0 5.44 0 0 Z " fill="#F7F7F7" transform="translate(144,216)"/>
<path d="M0 0 C13.2 0 26.4 0 40 0 C40 5.28 40 10.56 40 16 C26.8 16 13.6 16 0 16 C0 10.72 0 5.44 0 0 Z " fill="#F7F7F7" transform="translate(56,216)"/>
<path d="M0 0 C0.33 0 0.66 0 1 0 C1 3.63 1 7.26 1 11 C-2.63 11 -6.26 11 -10 11 C-9.2575 10.443125 -8.515 9.88625 -7.75 9.3125 C-4.52326049 6.59910541 -1.89487672 3.78975344 0 0 Z " fill="#EBEBEB" transform="translate(511,501)"/>
<path d="M0 0 C4 4.75 4 4.75 4 7 C4.78375 7.28875 5.5675 7.5775 6.375 7.875 C9 9 9 9 11 11 C7.37 11 3.74 11 0 11 C0 7.37 0 3.74 0 0 Z " fill="#EBEBEB" transform="translate(0,501)"/>
<path d="M0 0 C0.33 0 0.66 0 1 0 C1 2.97 1 5.94 1 9 C-0.98 9.99 -2.96 10.98 -5 12 C-3.68938409 7.76570244 -2.05643741 3.92592596 0 0 Z " fill="#E8E8E8" transform="translate(511,180)"/>
</svg>
