<?xml version="1.0" encoding="UTF-8"?>
<svg version="1.1" xmlns="http://www.w3.org/2000/svg" width="512" height="512">
<path d="M0 0 C168.96 0 337.92 0 512 0 C512 168.96 512 337.92 512 512 C343.04 512 174.08 512 0 512 C0 343.04 0 174.08 0 0 Z " fill="#020202" transform="translate(0,0)"/>
<path d="M0 0 C97.02 0 194.04 0 294 0 C290.73400268 1.63299866 287.95980875 2.65978799 284.5 3.6875 C270.32918471 8.330261 258.83425943 16.52581102 252.00254697 29.9616825 C248.89371678 36.02471922 245.07677554 40.47833931 240.23701477 45.23054504 C239.46236238 46.007204 238.68770999 46.78386296 237.88958329 47.58405703 C235.30727928 50.16825702 232.71099732 52.73792668 230.11450195 55.30786133 C228.25409 57.1638682 226.3945749 59.02077443 224.53588867 60.87850952 C220.54045724 64.86923133 216.53790561 68.8526925 212.53045082 72.83133888 C206.73327244 78.58704013 200.94822894 84.3548166 195.16620757 90.12573942 C185.77927011 99.49419343 176.38416926 108.85441392 166.9831543 118.20874023 C166.1403432 119.04737139 166.1403432 119.04737139 165.28050562 119.90294459 C164.71791252 120.46274662 164.15531942 121.02254866 163.57567805 121.59931439 C155.59026784 129.54514579 147.60682238 137.49294431 139.62573242 145.44311523 C139.06363468 146.00303127 138.50153694 146.56294731 137.92240594 147.13983051 C128.55556859 156.47064172 119.19277668 165.80550546 109.83205384 175.14245051 C104.06058821 180.89873162 98.28500051 186.65082102 92.50402715 192.39755388 C88.08041294 196.79532916 83.66164717 201.19794502 79.24462128 205.60233688 C77.42987817 207.41012279 75.61339325 209.21616207 73.79507256 211.0203495 C71.31946644 213.47713045 68.85002779 215.93994851 66.3820343 218.40437317 C65.65588136 219.12197195 64.92972841 219.83957074 64.18157083 220.57891494 C63.52231046 221.23969061 62.86305009 221.90046628 62.18381214 222.58126545 C61.61314481 223.14900505 61.04247747 223.71674466 60.45451719 224.30168849 C57.56248133 227.67846383 56.75003443 230.37817842 56.74831772 234.79141235 C56.74049448 236.24178422 56.74049448 236.24178422 56.73251319 237.72145653 C56.73697463 238.78097841 56.74143608 239.8405003 56.74603271 240.93212891 C56.74135274 242.62361274 56.74135274 242.62361274 56.73657823 244.34926796 C56.72857752 248.14175207 56.73493003 251.93407709 56.74121094 255.7265625 C56.73960257 258.43984307 56.73501418 261.1531168 56.73059082 263.86639404 C56.72168957 270.47930882 56.72362208 277.09217825 56.7294161 283.70509481 C56.73392971 289.07872992 56.7345468 294.45235231 56.73236847 299.82598877 C56.732062 300.59029162 56.73175554 301.35459447 56.73143978 302.14205801 C56.73080034 303.69464096 56.73015192 305.2472239 56.7294946 306.79980683 C56.72378916 321.36426781 56.73035255 335.92870363 56.74109533 350.49316049 C56.75003104 362.99480189 56.74847906 375.49640615 56.73925781 387.99804688 C56.72855895 402.50978139 56.72433851 417.02149383 56.73048234 431.53323174 C56.73111945 433.08015823 56.73174819 434.62708473 56.73236847 436.17401123 C56.73267702 436.93516286 56.73298557 437.6963145 56.73330347 438.48053133 C56.73503157 443.84878164 56.73211285 449.21701797 56.72740936 454.58526611 C56.7218048 461.1258318 56.72330802 467.66634948 56.73397085 474.20690966 C56.73923333 477.54511783 56.74020112 480.88317942 56.73467255 484.2213974 C56.72923531 487.83696942 56.73602925 491.45231372 56.74603271 495.06787109 C56.73934055 496.65715392 56.73934055 496.65715392 56.73251319 498.27854347 C56.73772868 499.24545805 56.74294418 500.21237263 56.74831772 501.20858765 C56.74880478 502.46069062 56.74880478 502.46069062 56.74930167 503.73808861 C57.15192614 507.37074494 58.44028867 509.44028867 61 512 C40.87 512 20.74 512 0 512 C0 343.04 0 174.08 0 0 Z " fill="#F6F6F6" transform="translate(0,0)"/>
<path d="M0 0 C70.62 0 141.24 0 214 0 C214 168.96 214 337.92 214 512 C193.54 512 173.08 512 152 512 C153.32 511.01 154.64 510.02 156 509 C156.95877074 506.12368778 157.12781587 504.32404346 157.13422108 501.3372221 C157.14090784 499.8916869 157.14090784 499.8916869 157.14772969 498.41694897 C157.14754533 497.35587849 157.14736097 496.294808 157.14717102 495.20158386 C157.15084771 494.07619353 157.1545244 492.9508032 157.1583125 491.79131013 C157.16937199 488.00043593 157.173197 484.20958911 157.17700195 480.41870117 C157.18273165 477.70881413 157.18989843 474.99893121 157.19691467 472.28904724 C157.2166767 464.14337361 157.22674432 455.99769873 157.23564246 447.85200712 C157.24002522 444.01692576 157.24539201 440.18184578 157.25063133 436.34676552 C157.26764228 423.60007482 157.28213728 410.85338499 157.28938007 398.10668468 C157.29128999 394.79890632 157.29321032 391.49112795 157.29516602 388.18334961 C157.29564976 387.3612103 157.2961335 386.53907099 157.2966319 385.69201837 C157.30493532 372.3687085 157.33027807 359.04548833 157.36274669 345.72221764 C157.39580242 332.04668181 157.41382743 318.37119159 157.41702431 304.69561559 C157.41919064 297.01594023 157.4279573 289.33639572 157.45348549 281.65675926 C157.47517211 275.11766469 157.48325297 268.57873275 157.47351871 262.0396063 C157.46896809 258.7030253 157.47307682 255.36705261 157.49028015 252.0304718 C157.50789021 248.41315123 157.50094564 244.79668721 157.48774719 241.17936707 C157.49871644 240.12498874 157.50968568 239.07061042 157.52098733 237.98428124 C157.43287753 228.0086463 152.66441223 223.36461632 145.87530518 216.64152527 C145.15726581 215.92248262 144.43922645 215.20343998 143.69942832 214.46260816 C141.29815461 212.0603837 138.88981491 209.66537244 136.48144531 207.27026367 C134.75630244 205.54732248 133.03160751 203.82393267 131.30732727 202.10012817 C127.59705962 198.3927919 123.88378244 194.6884987 120.16779327 190.98689842 C114.79465303 185.63446606 109.42754548 180.27601709 104.06197307 174.91599957 C95.35508282 166.21835624 86.64410151 157.52482285 77.93017578 148.83422852 C77.4090802 148.31452625 76.88798462 147.79482398 76.35109827 147.25937317 C75.82932584 146.73899627 75.30755341 146.21861937 74.7699697 145.68247348 C67.36170875 138.29400727 59.95443474 130.90455347 52.54833984 123.51391602 C52.02666651 122.99333353 51.50499318 122.47275105 50.96751156 121.93639334 C42.2826838 113.26956165 33.59986778 104.60071632 24.91808581 95.93083364 C19.56128848 90.58164041 14.20241938 85.23453758 8.84088388 79.89009336 C4.74105672 75.8031566 0.64362853 71.71382194 -3.45292091 67.62360001 C-5.13877584 65.94123199 -6.82550246 64.25973699 -8.51313591 62.57915306 C-10.80544196 60.2962167 -13.09471946 58.01028692 -15.38323975 55.72355652 C-16.06142722 55.04964613 -16.73961469 54.37573573 -17.4383533 53.68140382 C-22 49.11406451 -22 49.11406451 -22 48 C-21.42006287 47.99635437 -20.84012573 47.99270874 -20.24261475 47.98895264 C-14.20772191 47.94714932 -8.17359115 47.87781941 -2.13916016 47.79248047 C0.11304096 47.76425089 2.36534152 47.7430463 4.61767578 47.72900391 C7.85501083 47.7076024 11.09114774 47.66096505 14.328125 47.609375 C15.33554749 47.60814636 16.34296997 47.60691772 17.38092041 47.60565186 C22.86345768 47.56227339 22.86345768 47.56227339 27.62695312 45.13037109 C29.62838607 42.02501835 29.70925704 40.65872837 29 37 C27.1986446 33.82049921 24.99931669 30.99878612 22.75 28.125 C21.8067688 26.88665405 21.8067688 26.88665405 20.84448242 25.62329102 C19.54462655 23.91721998 18.239479 22.21516834 16.92919922 20.51708984 C15.09255586 18.12076068 13.29145342 15.70262426 11.50390625 13.26953125 C10.96475586 12.53782715 10.42560547 11.80612305 9.87011719 11.05224609 C8.85192483 9.66986644 7.83556908 8.28613167 6.82128906 6.90087891 C4.69363217 4.04439903 2.99147707 1.99431805 0 0 Z " fill="#F6F6F6" transform="translate(298,0)"/>
<path d="M0 0 C3.2721028 1.40624963 4.05427924 2.07909261 6.1875 5.1875 C12.70123372 14.66380538 26.42673851 22.64034974 37.77734375 24.78515625 C52.46183081 26.20457064 67.57527453 24.58074853 80 16 C80.71800781 15.51273437 81.43601563 15.02546875 82.17578125 14.5234375 C86.12475566 11.70789816 89.03775068 8.87371065 92 5 C92.66 5 93.32 5 94 5 C94.16491943 5.66193359 94.32983887 6.32386719 94.49975586 7.00585938 C106.47337747 54.52425393 127.60781745 95.96156672 160.625 132.3125 C161.50027344 133.2921875 162.37554687 134.271875 163.27734375 135.28125 C165.91104734 138.08673256 165.91104734 138.08673256 169.12890625 140.09375 C173.67183028 143.38925556 176.2999044 146.25674782 177.68212891 151.67285156 C181.35484583 176.17572962 173.96227426 212.07545148 163 234 C119.44 234 75.88 234 31 234 C29.35 228.06 27.7 222.12 26 216 C25.18917969 213.18082031 24.37835938 210.36164063 23.54296875 207.45703125 C10.50615041 160.63861766 10.50615041 160.63861766 18.56298828 146.19873047 C22.39146893 141.23759743 26.97580188 137.41573014 31.94482422 133.64160156 C34.76224327 131.39114709 36.7852004 128.96976943 39 126.125 C39.67289062 125.26519531 40.34578125 124.40539062 41.0390625 123.51953125 C41.68617188 122.68808594 42.33328125 121.85664063 43 121 C44.45721381 119.26988978 45.91558538 117.54075416 47.375 115.8125 C63.54221425 95.96836723 92.97478053 57.36697708 91 31 C89.5 28.5 89.5 28.5 87 27 C84 26.33333333 84 26.33333333 81 27 C76.4655395 30.37363861 75.13777362 35.14275264 73.25 40.25 C69.68867195 49.48745503 65.64493641 58.26389793 61 67 C60.62649414 67.71365723 60.25298828 68.42731445 59.86816406 69.16259766 C49.58104001 88.73896903 36.68346592 105.95315779 21.64453125 122.1328125 C18.64485352 125.38504803 15.73595494 128.7079643 12.8515625 132.0625 C12.24054688 132.701875 11.62953125 133.34125 11 134 C10.35981934 134.69480469 9.71963867 135.38960937 9.06005859 136.10546875 C4.52036651 138.91606478 0.41004204 138.43238562 -4.8125 138.25 C-5.79154297 138.23195313 -6.77058594 138.21390625 -7.77929688 138.1953125 C-10.18720771 138.14832887 -12.59309335 138.08265694 -15 138 C-15.00546844 136.15290436 -15.00546844 136.15290436 -15.01104736 134.26849365 C-15.0479616 122.67325845 -15.10569519 111.0782897 -15.18390274 99.48325729 C-15.22344026 93.52186723 -15.25559801 87.56062627 -15.27099609 81.59912109 C-15.28612123 75.84772599 -15.32049326 70.09674065 -15.36830902 64.34552765 C-15.38316559 62.14949349 -15.39104345 59.95340084 -15.39188385 57.75731659 C-15.39424236 54.68509546 -15.42123258 51.61401705 -15.45410156 48.54199219 C-15.4490712 47.63065018 -15.44404083 46.71930817 -15.43885803 45.78034973 C-15.50115706 40.76687366 -15.50115706 40.76687366 -17.84661865 36.43487549 C-20.80298676 34.46494102 -22.51723174 34.41953862 -26 35 C-28.30765606 36.48325952 -28.30765606 36.48325952 -30 39 C-30.39626344 41.76051411 -30.54764885 44.12425215 -30.51898193 46.88397217 C-30.53023381 48.08353778 -30.53023381 48.08353778 -30.541713 49.30733705 C-30.56203075 51.98998472 -30.55387968 54.67179047 -30.54589844 57.35449219 C-30.55463124 59.27624856 -30.56511599 61.19799765 -30.57722473 63.11973572 C-30.60514117 68.34046433 -30.60848817 73.56095635 -30.60750484 78.78174877 C-30.61062909 84.23640968 -30.63623711 89.69096327 -30.65948486 95.14556885 C-30.70008581 105.47627186 -30.72039521 115.80691168 -30.73345876 126.1376822 C-30.74931493 137.89818841 -30.78772472 149.65858687 -30.82805204 161.41903067 C-30.91050712 185.61267232 -30.9615867 209.80624556 -31 234 C-49.48 234 -67.96 234 -87 234 C-87 160.08 -87 86.16 -87 10 C-83.74346649 11.62826675 -81.21175203 13.23674327 -78.3125 15.375 C-66.36537035 23.81342784 -53.46578188 26.55785343 -39 25 C-22.46546804 21.94353823 -9.88410358 13.42249568 0 0 Z " fill="#F6F6F6" transform="translate(159,262)"/>
<path d="M0 0 C3.30174324 1.38278136 4.79317036 2.78022325 6.75 5.75 C13.45250515 14.9576494 26.50439411 22.65502351 37.77734375 24.78515625 C55.69057879 26.51666403 71.5113615 23.203874 85.76953125 11.78125 C88 10 88 10 89 10 C89 83.92 89 157.84 89 234 C70.52 234 52.04 234 33 234 C32.9906543 228.11381836 32.98130859 222.22763672 32.97167969 216.16308594 C32.93796912 196.75289981 32.88265575 177.34282017 32.81609726 157.93272018 C32.77625898 146.16005977 32.74389084 134.38746668 32.72900391 122.61474609 C32.71601219 112.35568046 32.68911113 102.09676264 32.64538693 91.83778024 C32.62271626 86.40385149 32.60709267 80.97010542 32.60811615 75.53612518 C32.60885945 70.42415107 32.5910417 65.31258166 32.55883217 60.2007122 C32.55029573 58.32216931 32.54860847 56.44358121 32.55419731 54.56502724 C32.56080262 52.00419828 32.54300118 49.44467007 32.51898193 46.88397217 C32.53062256 45.76334684 32.53062256 45.76334684 32.54249835 44.62008262 C32.48537008 41.19053499 32.23776304 39.31722141 30.15506363 36.53850174 C27.21133478 34.43697123 25.54041714 34.40993048 22 35 C19.66021646 36.37696795 19.66021646 36.37696795 18 39 C17.39180307 42.17545709 17.43629858 45.31665784 17.45410156 48.54199219 C17.43859505 49.99127357 17.43859505 49.99127357 17.42277527 51.46983337 C17.39328543 54.66234946 17.39184676 57.85423326 17.390625 61.046875 C17.37564757 63.26077488 17.35892135 65.47466357 17.34051514 67.6885376 C17.29678061 73.514796 17.27682889 79.34090366 17.26177979 85.16729736 C17.2422308 91.11292456 17.20025828 97.05838844 17.16015625 103.00390625 C17.08478792 114.66922054 17.03453646 126.33449839 17 138 C13.62269029 138.11685998 10.24590537 138.18746734 6.8671875 138.25 C5.91481201 138.28351563 4.96243652 138.31703125 3.98120117 138.3515625 C-1.8651913 138.43272717 -5.32380813 138.06616419 -9.875 134 C-11.30369541 132.3791261 -12.68353644 130.71327945 -14 129 C-15.18391097 127.68426168 -16.37121971 126.37156981 -17.5625 125.0625 C-18.11679687 124.40378906 -18.67109375 123.74507813 -19.2421875 123.06640625 C-21.1594734 120.81253016 -23.17062201 118.66507153 -25.1875 116.5 C-47.40822789 91.8187145 -63.86018503 61.41998507 -75.1875 30.375 C-75.58646484 29.28968994 -75.98542969 28.20437988 -76.39648438 27.08618164 C-76.75419922 26.07547607 -77.11191406 25.06477051 -77.48046875 24.0234375 C-77.79910889 23.12544434 -78.11774902 22.22745117 -78.44604492 21.30224609 C-79 19 -79 19 -78 16 C-76.62328125 16.72316406 -76.62328125 16.72316406 -75.21875 17.4609375 C-73.97939148 18.09939492 -72.73979523 18.73739102 -71.5 19.375 C-70.89929688 19.69210937 -70.29859375 20.00921875 -69.6796875 20.3359375 C-57.51237873 26.54903134 -43.50826761 26.91116998 -30.5625 22.875 C-19.87562366 19.30101972 -10.63842942 13.70373959 -3.6875 4.75 C-2.99011719 3.85796875 -2.29273438 2.9659375 -1.57421875 2.046875 C-1.05472656 1.37140625 -0.53523438 0.6959375 0 0 Z " fill="#F6F6F6" transform="translate(351,262)"/>
<path d="M0 0 C2.49984382 3.3331251 4.24919315 6.24924527 6.09416199 9.94108582 C6.53903055 10.82720133 6.53903055 10.82720133 6.99288636 11.73121816 C7.98238335 13.70459126 8.96615196 15.68076337 9.94995117 17.65698242 C10.65940662 19.07482008 11.36920846 20.49248446 12.07933044 21.9099884 C14.00424693 25.75497821 15.92415971 29.60244663 17.84307647 33.45043349 C19.85038222 37.4738289 21.86190559 41.49511477 23.87287903 45.51667786 C27.24732813 52.26651221 30.61867633 59.01788803 33.98803711 65.77026367 C37.8886233 73.58718393 41.79340493 81.40199662 45.70058459 89.21562308 C49.4555766 96.72499781 53.20828568 104.23551079 56.95971107 111.74666786 C58.55837427 114.94753298 60.15772236 118.14805451 61.75758934 121.3483181 C63.63827488 125.11069013 65.516927 128.87407054 67.39397621 132.63825798 C68.08506904 134.02337594 68.77684853 135.40815152 69.46934509 136.79256821 C70.41034606 138.674083 71.34889591 140.55679964 72.28678894 142.43986511 C72.81384524 143.49565356 73.34090155 144.55144201 73.88392925 145.63922405 C75 148 75 148 75 149 C50.25 149 25.5 149 0 149 C0 99.83 0 50.66 0 0 Z " fill="#F6F6F6" transform="translate(264,75)"/>
<path d="M0 0 C0.33 0 0.66 0 1 0 C1 49.17 1 98.34 1 149 C-23.75 149 -48.5 149 -74 149 C-68.74983988 137.91632863 -63.50728697 126.86671145 -58.01147461 115.90942383 C-57.36958872 114.62593562 -56.72788134 113.34235814 -56.08633423 112.05870056 C-54.38003188 108.64581448 -52.67130489 105.23414807 -50.96206355 101.82273316 C-49.16290262 98.23075703 -47.36607975 94.63761161 -45.56898499 91.04460144 C-42.18159029 84.27289284 -38.79216182 77.50220444 -35.40195996 70.73190087 C-31.53564156 63.0105275 -27.67165499 55.28798804 -23.80784214 47.56536067 C-15.87444759 31.70896216 -7.93819653 15.85399498 0 0 Z " fill="#F6F6F6" transform="translate(247,75)"/>
<path d="M0 0 C4.50876985 3.77764419 8.81740822 7.67209108 12.96690369 11.83992004 C13.52416423 12.3956206 14.08142477 12.95132115 14.655572 13.52386111 C16.50183659 15.36617178 18.34454749 17.2119942 20.18725586 19.05786133 C21.51811405 20.38736308 22.84918458 21.71665231 24.18045044 23.04574585 C27.77936558 26.64011819 31.37512996 30.23762689 34.97018504 33.83585954 C38.73363413 37.60184536 42.499528 41.36538519 46.26502991 45.12931824 C52.58058569 51.44305751 58.89403582 57.75889658 65.20629883 64.07592773 C72.51348612 71.38857079 79.82428803 78.69758531 87.13695043 86.00475293 C93.41488634 92.27815978 99.69088265 98.55350202 105.9652434 104.83048457 C109.71329538 108.58009865 113.46202715 112.32902638 117.21250725 116.07621193 C120.73188157 119.59271008 124.24882455 123.11162148 127.7638588 126.63245773 C129.05787347 127.92780077 130.35275115 129.2222823 131.64852715 130.51586342 C133.40865661 132.27328471 135.16571572 134.03371733 136.92198181 135.79499817 C137.44248499 136.31327063 137.96298818 136.83154309 138.49926418 137.36552078 C142 140.88584926 142 140.88584926 142 142 C118.57 142 95.14 142 71 142 C59.50751714 120.16428256 59.50751714 120.16428256 54.37280273 109.875 C53.49520042 108.12242386 53.49520042 108.12242386 52.59986877 106.33444214 C51.03249347 103.20414942 49.46755258 100.07264627 47.90324664 96.94081879 C46.25271712 93.63718434 44.6001966 90.33454587 42.94801331 87.03173828 C40.18583247 81.50917928 37.42531022 75.98579369 34.66577148 70.46191406 C31.47792165 64.08073096 28.28714483 57.70101771 25.0949139 51.3220253 C22.33825815 45.81324686 19.58315679 40.30369313 16.82936245 34.79348373 C15.19101276 31.51522831 13.55212906 28.23724289 11.91183281 24.95996094 C10.0931488 21.3260102 8.27772861 17.69043864 6.46264648 14.0546875 C5.9209079 12.97323456 5.37916931 11.89178162 4.8210144 10.77755737 C4.3292421 9.79119293 3.83746979 8.80482849 3.33079529 7.78857422 C2.90224463 6.93109589 2.47369398 6.07361755 2.03215694 5.19015503 C1 3 1 3 0 0 Z " fill="#F6F6F6" transform="translate(286,82)"/>
<path d="M0 0 C0 3.61460563 -0.99598442 5.3641334 -2.61277771 8.5930481 C-3.19190918 9.75688019 -3.77104065 10.92071228 -4.36772156 12.11981201 C-5.01773897 13.41082391 -5.66787417 14.70177651 -6.31811523 15.99267578 C-6.99679689 17.35082973 -7.67495618 18.70924481 -8.35263062 20.06790161 C-10.19636075 23.76050338 -12.04754822 27.4493209 -13.90017581 31.137465 C-15.83496569 34.99203237 -17.7632899 38.84983178 -19.69239807 42.70724487 C-22.93260349 49.18396124 -26.17731366 55.65840405 -29.42504883 62.13134766 C-33.59857148 70.44950436 -37.76466612 78.77135804 -41.92842007 87.09440804 C-45.50254928 94.23869138 -49.08008774 101.38126637 -52.6581738 108.52356863 C-53.81103545 110.82518721 -54.96342424 113.12704209 -56.11575127 115.42892838 C-57.92359505 119.03973354 -59.73355589 122.64946976 -61.54519272 126.25837326 C-62.2114511 127.5863559 -62.87702846 128.91468045 -63.5418911 130.24336243 C-64.44615106 132.05014471 -65.35311513 133.8555729 -66.26023865 135.66091919 C-66.76814658 136.6737604 -67.27605452 137.6866016 -67.7993536 138.73013496 C-69 141 -69 141 -70 142 C-72.20867831 142.09432985 -74.42041521 142.11742431 -76.63110352 142.11352539 C-77.32375305 142.11367142 -78.01640259 142.11381744 -78.7300415 142.1139679 C-81.02969446 142.11326874 -83.32926737 142.10547628 -85.62890625 142.09765625 C-87.21931412 142.09579208 -88.80972257 142.09436817 -90.40013123 142.09336853 C-94.5939593 142.08954329 -98.78775295 142.07971295 -102.98156738 142.06866455 C-107.25788914 142.05845057 -111.53421644 142.05387094 -115.81054688 142.04882812 C-124.20704708 142.03809069 -132.60351926 142.02101419 -141 142 C-137.22152362 137.4892731 -133.32539622 133.18121007 -129.15335083 129.03309631 C-128.59694471 128.47583577 -128.04053859 127.91857523 -127.46727169 127.344428 C-125.62263192 125.49815549 -123.77446764 123.65545405 -121.92626953 121.81274414 C-120.59513724 120.48189422 -119.26422571 119.15082347 -117.93351746 117.81954956 C-114.33498316 114.22072925 -110.73338173 110.62499285 -107.1312089 107.02981496 C-103.36179037 103.26666264 -99.59521789 99.50066387 -95.82833862 95.73497009 C-88.70130878 88.61104394 -81.57173442 81.48967 -74.44123542 74.36921638 C-66.32077103 66.25994302 -58.20315792 58.14781799 -50.08577943 50.03545582 C-33.39368345 33.35380245 -16.6980218 16.67572159 0 0 Z " fill="#F6F6F6" transform="translate(225,82)"/>
<path d="M0 0 C25.74 0 51.48 0 78 0 C74.34958811 12.16803963 69.91995024 20.44672358 58.9921875 27.25 C49.59241517 32.26321191 38.61720977 33.8645743 28.19140625 31.3125 C17.8392452 27.43649586 8.44827065 20.9489201 3.45703125 10.890625 C0 2.79516807 0 2.79516807 0 0 Z " fill="#F5F5F5" transform="translate(361,240)"/>
<path d="M0 0 C25.74 0 51.48 0 78 0 C74.34958811 12.16803963 69.91995024 20.44672358 58.9921875 27.25 C49.59241517 32.26321191 38.61720977 33.8645743 28.19140625 31.3125 C17.8392452 27.43649586 8.44827065 20.9489201 3.45703125 10.890625 C0 2.79516807 0 2.79516807 0 0 Z " fill="#F5F5F5" transform="translate(265,240)"/>
<path d="M0 0 C25.74 0 51.48 0 78 0 C74.34958811 12.16803963 69.91995024 20.44672358 58.9921875 27.25 C49.59241517 32.26321191 38.61720977 33.8645743 28.19140625 31.3125 C17.8392452 27.43649586 8.44827065 20.9489201 3.45703125 10.890625 C0 2.79516807 0 2.79516807 0 0 Z " fill="#F5F5F5" transform="translate(169,240)"/>
<path d="M0 0 C25.74 0 51.48 0 78 0 C74.34958811 12.16803963 69.91995024 20.44672358 58.9921875 27.25 C49.43415674 32.3476164 38.24188017 34.00398822 27.7109375 31.08984375 C17.57821448 27.1008857 8.3832647 20.95399262 3.51953125 10.95703125 C0 2.70535714 0 2.70535714 0 0 Z " fill="#F5F5F5" transform="translate(73,240)"/>
<path d="M0 0 C5.94 0 11.88 0 18 0 C21.11759452 10.95881711 24.04108755 21.94827721 26.8125 33 C27.12646729 34.2468457 27.44043457 35.49369141 27.76391602 36.77832031 C28.05451904 37.94459961 28.34512207 39.11087891 28.64453125 40.3125 C28.90596924 41.36050781 29.16740723 42.40851563 29.43676758 43.48828125 C30 46 30 46 30 48 C20.1 48 10.2 48 0 48 C0 32.16 0 16.32 0 0 Z " fill="#F4F4F4" transform="translate(144,448)"/>
<path d="M0 0 C5.94 0 11.88 0 18 0 C18 15.84 18 31.68 18 48 C8.1 48 -1.8 48 -12 48 C-9.77049565 37.70997992 -7.41982307 27.46678507 -4.875 17.25 C-4.49480713 15.71569336 -4.49480713 15.71569336 -4.10693359 14.15039062 C-3.74075928 12.69149414 -3.74075928 12.69149414 -3.3671875 11.203125 C-3.15175293 10.34364258 -2.93631836 9.48416016 -2.71435547 8.59863281 C-1.9176721 5.70051326 -0.95046311 2.85138934 0 0 Z " fill="#F4F4F4" transform="translate(350,448)"/>
<path d="M0 0 C2.93622426 2.00641991 4.81143874 4.65213833 6.859375 7.50390625 C7.27058594 8.05884766 7.68179687 8.61378906 8.10546875 9.18554688 C11.109375 13.2822363 11.109375 13.2822363 11.109375 14.44140625 C-0.440625 14.44140625 -11.990625 14.44140625 -23.890625 14.44140625 C-18.26370879 7.68910679 -18.26370879 7.68910679 -15.4453125 6.140625 C-14.84332031 5.80353516 -14.24132812 5.46644531 -13.62109375 5.11914062 C-13.00878906 4.79236328 -12.39648438 4.46558594 -11.765625 4.12890625 C-11.14558594 3.78279297 -10.52554687 3.43667969 -9.88671875 3.08007812 C-2.80209505 -0.82789172 -2.80209505 -0.82789172 0 0 Z " fill="#F1F1F1" transform="translate(292.890625,17.55859375)"/>
<path d="M0 0 C5.28 0 10.56 0 16 0 C16 5.28 16 10.56 16 16 C10.72 16 5.44 16 0 16 C0 10.72 0 5.44 0 0 Z " fill="#F7F7F7" transform="translate(352,416)"/>
<path d="M0 0 C5.28 0 10.56 0 16 0 C16 5.28 16 10.56 16 16 C10.72 16 5.44 16 0 16 C0 10.72 0 5.44 0 0 Z " fill="#F7F7F7" transform="translate(144,416)"/>
<path d="M0 0 C0 3.21123369 -0.53628833 4.42523131 -1.96875 7.23046875 C-2.37480469 8.03291016 -2.78085938 8.83535156 -3.19921875 9.66210938 C-3.62847656 10.49548828 -4.05773437 11.32886719 -4.5 12.1875 C-4.92925781 13.03248047 -5.35851562 13.87746094 -5.80078125 14.74804688 C-6.86185495 16.83482515 -7.92842564 18.9185998 -9 21 C-10.32 20.34 -11.64 19.68 -13 19 C-13 18.34 -13 17.68 -13 17 C-14.65 17.66 -16.3 18.32 -18 19 C-12.44964797 12.21623641 -6.23557973 6.14477032 0 0 Z " fill="#F1F1F1" transform="translate(225,82)"/>
<path d="M0 0 C6.03331362 4.98404168 11.5184171 10.41915303 17 16 C16.01 16.33 15.02 16.66 14 17 C13.67 17.99 13.34 18.98 13 20 C12.01 20.33 11.02 20.66 10 21 C8.32666842 17.87852455 6.66248284 14.75226502 5 11.625 C4.52304687 10.73554687 4.04609375 9.84609375 3.5546875 8.9296875 C3.10351562 8.07890625 2.65234375 7.228125 2.1875 6.3515625 C1.76855469 5.56604004 1.34960938 4.78051758 0.91796875 3.97119141 C0 2 0 2 0 0 Z " fill="#F0F0F0" transform="translate(286,82)"/>
<path d="M0 0 C3.96 1.98 3.96 1.98 8 4 C8 4.66 8 5.32 8 6 C7.01 6 6.02 6 5 6 C5 6.66 5 7.32 5 8 C4.01 8 3.02 8 2 8 C0.74335022 5.09399739 0 3.20395416 0 0 Z " fill="#E1E1E1" transform="translate(272,278)"/>
<path d="M0 0 C2.32472205 2.85306797 3.7508258 5.54074837 5 9 C3.35 8.67 1.7 8.34 0 8 C0 5.36 0 2.72 0 0 Z " fill="#ECECEC" transform="translate(264,75)"/>
<path d="M0 0 C3.16115776 1.36983503 3.9927092 1.9890638 6 5 C5.01 5.33 4.02 5.66 3 6 C2.01 5.34 1.02 4.68 0 4 C0 2.68 0 1.36 0 0 Z " fill="#E3E3E3" transform="translate(72,272)"/>
<path d="M0 0 C0 3.69418201 -1.28179295 5.77836178 -3 9 C-3.99 8.01 -4.98 7.02 -6 6 C-4.02 4.02 -2.04 2.04 0 0 Z " fill="#DEDEDE" transform="translate(225,82)"/>
<path d="M0 0 C3.3 0 6.6 0 10 0 C6.39338934 1.80330533 3.91606575 2.46599103 0 3 C0 2.01 0 1.02 0 0 Z " fill="#D2D2D2" transform="translate(284,0)"/>
<path d="M0 0 C2.31 1.98 4.62 3.96 7 6 C6.67 6.66 6.34 7.32 6 8 C2.24623848 6.74874616 1.75926711 5.4347596 0 2 C0 1.34 0 0.68 0 0 Z " fill="#DFDFDF" transform="translate(286,82)"/>
</svg>
