<?xml version="1.0" encoding="UTF-8"?>
<svg version="1.1" xmlns="http://www.w3.org/2000/svg" width="512" height="512">
<path d="M0 0 C168.96 0 337.92 0 512 0 C512 168.96 512 337.92 512 512 C343.04 512 174.08 512 0 512 C0 343.04 0 174.08 0 0 Z " fill="#020202" transform="translate(0,0)"/>
<path d="M0 0 C0.33 0 0.66 0 1 0 C1 141.57 1 283.14 1 429 C-105.92 429 -212.84 429 -323 429 C-323 428.67 -323 428.34 -323 428 C-321.76507813 427.78085937 -320.53015625 427.56171875 -319.2578125 427.3359375 C-291.00521127 422.13291642 -268.08894065 411.88789546 -247 392 C-246.32324219 391.38769531 -245.64648438 390.77539062 -244.94921875 390.14453125 C-225.19031594 371.57353843 -212.37432939 342.83917274 -210 316 C-209.99712614 314.66652672 -210.01578255 313.33278897 -210.05859375 312 C-210.12421215 308.35624859 -210.10740282 305.4764038 -209 302 C-206.09180989 299.59577288 -203.21914426 298.27193287 -199.76171875 296.76953125 C-193.04208344 293.83001985 -187.53927978 288.71788692 -182 284 C-181.31164062 283.41605469 -180.62328125 282.83210938 -179.9140625 282.23046875 C-162.65746228 266.22963052 -150.83067267 239.68181778 -149.89501953 216.38623047 C-149.30837857 194.81897669 -152.18332656 176.49115036 -163.14086914 157.6340332 C-166.04890267 152.50669487 -166.04890267 152.50669487 -165.80716515 150.00198174 C-164.82939294 147.57684965 -163.62387385 146.24089606 -161.78067017 144.38626099 C-161.09155045 143.68579147 -160.40243073 142.98532196 -159.69242859 142.2636261 C-158.55037712 141.12597054 -158.55037712 141.12597054 -157.38525391 139.96533203 C-156.58657394 139.15818253 -155.78789398 138.35103302 -154.9650116 137.51942444 C-152.31003275 134.84096974 -149.64391591 132.17394052 -146.9765625 129.5078125 C-145.11749408 127.64163968 -143.25872371 125.77516991 -141.40023804 123.90841675 C-137.49004924 119.9836007 -133.57286563 116.06585895 -129.65234375 112.15136719 C-125.16374006 107.66934383 -120.68991143 103.17296294 -116.22331107 98.66902077 C-112.36297146 94.77761657 -108.49264098 90.89633458 -104.61481225 87.02235878 C-102.31078849 84.72037225 -100.01162997 82.41390717 -97.71995926 80.09961319 C-84.97699873 67.24493659 -71.79305242 55.06084012 -56 46 C-55.56655273 46.4439209 -55.13310547 46.8878418 -54.68652344 47.34521484 C-52.71298571 49.36041732 -50.73161696 51.36774289 -48.75 53.375 C-48.06808594 54.07367188 -47.38617188 54.77234375 -46.68359375 55.4921875 C-45.68779297 56.49765625 -45.68779297 56.49765625 -44.671875 57.5234375 C-43.76066895 58.450354 -43.76066895 58.450354 -42.83105469 59.39599609 C-38.84825959 62.8849246 -35.40541703 63.43902276 -30.25 63.3203125 C-25.91659681 62.70340441 -23.28254743 60.19409589 -20.1875 57.3125 C-18.35023105 53.73466046 -17.70150933 50.01015727 -18 46 C-19.95695883 40.96974157 -22.8568909 37.76284297 -26.6875 34.125 C-27.19861328 33.62742188 -27.70972656 33.12984375 -28.23632812 32.6171875 C-29.48408112 31.40441824 -30.74109864 30.20119281 -32 29 C-27.70108267 24.43185754 -22.90867396 20.6866346 -17.9375 16.875 C-17.13505859 16.25496094 -16.33261719 15.63492188 -15.50585938 14.99609375 C-13.34119315 13.32543849 -11.17401848 11.65846478 -9 10 C-8.29560791 9.43941895 -7.59121582 8.87883789 -6.86547852 8.30126953 C-5 7 -5 7 -3 7 C-2.690625 6.21625 -2.38125 5.4325 -2.0625 4.625 C-1 2 -1 2 0 0 Z " fill="#F6F6F6" transform="translate(511,83)"/>
<path d="M0 0 C141.57 0 283.14 0 429 0 C427.68 0.99 426.36 1.98 425 3 C420.09648733 7.43331282 416.39280829 12.68111342 412.5 18 C404.69072165 28.67010309 404.69072165 28.67010309 400 33 C399.19175781 32.15695313 398.38351562 31.31390625 397.55078125 30.4453125 C396.47176157 29.33814448 395.39231171 28.23139558 394.3125 27.125 C393.51682617 26.29162109 393.51682617 26.29162109 392.70507812 25.44140625 C388.61401556 21.27504806 385.50154706 19.27289604 379.5625 18.625 C373.99880552 19.21065205 371.21499981 21.59315811 367.625 25.75 C365.67090809 29.65818382 365.12492086 32.71132385 366 37 C368.1940981 42.67603639 371.88905653 46.24470026 376.1875 50.375 C376.84169922 51.01566406 377.49589844 51.65632813 378.16992188 52.31640625 C379.77330922 53.88468292 381.38328872 55.44548219 383 57 C377.86165804 65.08729308 372.01318178 72.55353324 366 80 C365.56703613 80.54027832 365.13407227 81.08055664 364.68798828 81.63720703 C362.31480702 84.55267427 359.90129729 87.113449 357 89.5 C353.58771812 92.40203413 350.86327855 95.54938226 348 99 C346.27176521 100.5718516 344.49406129 102.06744677 342.69921875 103.5625 C339.51104588 106.25962096 336.67028906 109.12862423 334.125 112.4375 C331.86842716 115.15866136 329.43782796 117.26868968 326.734375 119.52734375 C323.53825929 122.24116272 320.68094819 125.11476735 318.125 128.4375 C315.86842716 131.15866136 313.43782796 133.26868968 310.734375 135.52734375 C307.53825929 138.24116272 304.68094819 141.11476735 302.125 144.4375 C299.86842716 147.15866136 297.43782796 149.26868968 294.734375 151.52734375 C290.66156651 154.98556177 287.31337396 158.8315618 284 163 C282.0625 165.375 282.0625 165.375 280 167 C275.39276969 166.65197181 271.6791993 164.3910778 267.6875 162.25 C259.70022197 158.11037093 251.69992444 155.29742119 243 153 C241.98135864 152.71962891 241.98135864 152.71962891 240.94213867 152.43359375 C234.67595269 150.84789374 228.62946826 150.69159363 222.1875 150.75 C221.12305664 150.75604248 220.05861328 150.76208496 218.96191406 150.76831055 C211.79445744 150.85897525 204.98798473 151.3250174 198 153 C196.62521484 153.25716797 196.62521484 153.25716797 195.22265625 153.51953125 C171.87307269 158.3774983 149.34236544 174.35238169 136 194 C132.78172226 199.20052939 129.73541269 204.52917462 127 210 C125.13671875 210.34716797 125.13671875 210.34716797 122.6875 210.4921875 C121.78572021 210.5547876 120.88394043 210.6173877 119.95483398 210.68188477 C118.97973877 210.74561279 118.00464355 210.80934082 117 210.875 C93.4991334 212.78119192 72.21110691 220.08072541 53 234 C51.70449219 234.93392578 51.70449219 234.93392578 50.3828125 235.88671875 C21.39556539 257.97444539 6.8113648 288.6475308 1 324 C0.67 324 0.34 324 0 324 C0 217.08 0 110.16 0 0 Z " fill="#F6F6F6" transform="translate(0,0)"/>
<path d="M0 0 C1.875 1.66015625 1.875 1.66015625 3 3 C0.25882525 6.72799766 -2.74275153 9.58408835 -6.265625 12.52734375 C-9.46174071 15.24116272 -12.31905181 18.11476735 -14.875 21.4375 C-17.13157284 24.15866136 -19.56217204 26.26868968 -22.265625 28.52734375 C-25.46174071 31.24116272 -28.31905181 34.11476735 -30.875 37.4375 C-33.13020721 40.15701458 -35.55651824 42.26616294 -38.26171875 44.51953125 C-41.13923846 46.97027276 -43.88841111 49.59736418 -46.23828125 52.5625 C-48.78961006 54.64429379 -51.20865974 54.78335895 -54.4375 55.3125 C-69.57537176 58.3774134 -80.85847961 66.65882076 -89.9375 79 C-98.84952038 92.71581674 -102.49109956 107.76851116 -99.3125 123.9453125 C-95.17368306 140.74201125 -87.1153544 154.11558695 -72.5 163.5 C-58.80344603 171.34290769 -43.28638105 174.74511141 -27.68359375 171.12890625 C-11.44054354 166.67650635 1.40146632 157.90755912 10.3125 143.5 C12.83875107 138.8884966 14.16149325 135.49978518 14.83674622 130.2449646 C17.3575502 114.71950389 31.22081953 104.33976329 42.05786133 94.04949951 C45.00463039 91.23731747 47.91354242 88.38651372 50.82617188 85.5390625 C56.51509392 79.9882807 62.24357223 74.4807413 68 69 C71 70 71 70 72.28125 72.046875 C81.43937149 92.35911881 81.1610659 112.95389971 73.40625 133.6484375 C65.14252732 153.34364321 50.22605462 165.89019247 31 174 C25.76379557 176.42838466 22.62777371 178.74445258 20 184 C19.86981213 185.81750319 19.79739021 187.63929652 19.75390625 189.4609375 C19.70459961 191.12962891 19.70459961 191.12962891 19.65429688 192.83203125 C19.59411295 195.15487478 19.53672206 197.47779273 19.48242188 199.80078125 C18.67338938 226.45305932 7.88973728 251.42407879 -11.55859375 269.96875 C-21.15852407 277.95589203 -31.42904244 284.30383731 -43 289 C-43.66644531 289.30292969 -44.33289063 289.60585938 -45.01953125 289.91796875 C-66.57668992 299.17016975 -93.25217564 296.49522411 -114.58203125 288.4453125 C-133.3432381 280.51200218 -147.08732601 267.05428275 -161.34375 252.89453125 C-161.86269333 252.37966345 -162.38163666 251.86479565 -162.91630554 251.33432579 C-165.66048915 248.61080238 -168.40152543 245.88415527 -171.14013672 243.1550293 C-173.92830882 240.37791051 -176.72797731 237.61268895 -179.53038788 234.84994984 C-181.72170238 232.68509033 -183.90378852 230.51109432 -186.08369446 228.33475304 C-187.11028156 227.31295352 -188.14016435 226.29445147 -189.17375183 225.27973366 C-198.79369138 215.82468786 -207.53241479 205.25807113 -213.375 193 C-213.85767334 192.00963745 -213.85767334 192.00963745 -214.35009766 190.99926758 C-217.3886222 184.55145991 -219.39194535 177.94002534 -221 171 C-221.22429687 170.14921875 -221.44859375 169.2984375 -221.6796875 168.421875 C-226.94702589 145.4764831 -221.71995702 120.107017 -210 100 C-207.55655886 96.11753621 -204.92457562 92.53177322 -202 89 C-201.31292969 88.16210938 -200.62585938 87.32421875 -199.91796875 86.4609375 C-184.97608739 69.06912605 -163.26085903 55.26226618 -140 53 C-134.14276818 52.69225022 -128.28192325 52.52192363 -122.41699219 52.46557617 C-114.21833439 52.47894272 -114.21833439 52.47894272 -107 49 C-103.68317425 44.805547 -101.52571244 40.11646076 -99.25 35.3125 C-89.83790291 16.10732949 -75.45304275 3.06765324 -55.32421875 -4.2578125 C-37.39341829 -9.98361433 -16.88375092 -8.08213645 0 0 Z " fill="#F5F5F5" transform="translate(253,187)"/>
<path d="M0 0 C0.33 0 0.66 0 1 0 C1.23074219 1.26972656 1.46148437 2.53945313 1.69921875 3.84765625 C8.59401045 40.70744297 25.42226008 64.462042 51.32421875 90.59765625 C51.88991892 91.1686801 52.45561909 91.73970394 53.03846169 92.32803154 C56.02991398 95.3459183 59.02483824 98.36031438 62.0222168 101.37231445 C64.46388656 103.82731912 66.89806995 106.28939315 69.32592773 108.75805664 C87.64412357 127.72372871 87.64412357 127.72372871 109 143 C109.84667236 143.51667236 110.69334473 144.03334473 111.56567383 144.56567383 C113.53778634 145.73864401 115.52148102 146.82790089 117.5625 147.875 C118.25956055 148.2373877 118.95662109 148.59977539 119.67480469 148.97314453 C132.79319941 155.59766663 147.3912429 159.56776891 162 161 C162 161.33 162 161.66 162 162 C108.54 162 55.08 162 0 162 C0 108.54 0 55.08 0 0 Z " fill="#F5F5F5" transform="translate(0,350)"/>
<path d="M0 0 C3.62083128 1.69854037 5.94255354 3.71104782 8.765625 6.5703125 C9.65507812 7.46621094 10.54453125 8.36210938 11.4609375 9.28515625 C12.38132812 10.22230469 13.30171875 11.15945312 14.25 12.125 C15.19484856 13.07988637 16.14015633 14.03431859 17.0859375 14.98828125 C19.39518338 17.32109087 21.69963203 19.65844086 24 22 C22.40821971 25.92570652 19.70805719 28.56640918 16.7482605 31.49224854 C16.20752274 32.03469515 15.66678498 32.57714176 15.10966122 33.13602614 C13.29641438 34.9525674 11.47611144 36.76186772 9.65576172 38.57128906 C8.3545611 39.87192556 7.05380068 41.17300257 5.75344849 42.4744873 C2.22095427 46.00755599 -1.31767812 49.53441876 -4.85742807 53.06021595 C-8.55523933 56.74553558 -12.24739802 60.43650928 -15.94015503 64.12689209 C-22.93428425 71.11480194 -29.93349669 78.09759734 -36.93454063 85.07857871 C-44.90451653 93.02620987 -52.86882286 100.97951209 -60.83265328 108.9333005 C-77.21545916 125.29519401 -93.60538744 141.6499374 -110 158 C-113.82026877 156.72657708 -114.37177718 155.26245927 -116.5625 151.9375 C-121.34426803 145.13676325 -127.13815974 140.57456017 -134 136 C-132.40821971 132.07429348 -129.70805719 129.43359082 -126.7482605 126.50775146 C-126.20752274 125.96530485 -125.66678498 125.42285824 -125.10966122 124.86397386 C-123.29641438 123.0474326 -121.47611144 121.23813228 -119.65576172 119.42871094 C-118.3545611 118.12807444 -117.05380068 116.82699743 -115.75344849 115.5255127 C-112.22095427 111.99244401 -108.68232188 108.46558124 -105.14257193 104.93978405 C-101.44476067 101.25446442 -97.75260198 97.56349072 -94.05984497 93.87310791 C-87.06571575 86.88519806 -80.06650331 79.90240266 -73.06545937 72.92142129 C-65.09548347 64.97379013 -57.13117714 57.02048791 -49.16734672 49.0666995 C-32.78454084 32.70480599 -16.39461256 16.3500626 0 0 Z " fill="#F5F5F5" transform="translate(376,112)"/>
<path d="M0 0 C7.88352337 5.17973308 13.38130307 11.12694907 16.02734375 20.33203125 C17.17069293 30.80830052 15.46651668 39.32680858 8.90234375 47.64453125 C4.01408254 52.87137333 -3.34369583 56.90224954 -10.5390625 57.5703125 C-20.30055123 57.81212252 -28.1816584 55.81548679 -35.44140625 49.03515625 C-42.00231311 41.73782107 -44.49430054 34.17287756 -44.27734375 24.421875 C-43.38096672 15.33169253 -38.84248718 8.21714779 -31.97265625 2.33203125 C-22.5898245 -4.01212671 -10.19007406 -5.37018801 0 0 Z " fill="#F4F4F4" transform="translate(225.97265625,272.66796875)"/>
<path d="M0 0 C4.50827867 1.92876216 7.60151401 4.22659068 11.05566406 7.68334961 C11.52149902 8.14553391 11.98733398 8.6077182 12.46728516 9.08390808 C13.99086601 10.59944395 15.50340472 12.12547867 17.015625 13.65234375 C18.0779188 14.71515675 19.14073246 15.77745039 20.20404053 16.83924866 C22.42431606 19.05961364 24.63935749 21.28503013 26.85058594 23.5144043 C29.68225988 26.36880583 32.52491831 29.21195736 35.37134171 32.05164242 C37.56447985 34.24143702 39.75259593 36.43619336 41.93914032 38.63257027 C42.9855821 39.68285455 44.03336766 40.73180177 45.08252716 41.77937126 C46.54732314 43.24379568 48.00544129 44.71455921 49.46191406 46.18725586 C50.29209045 47.02203964 51.12226685 47.85682343 51.9776001 48.71690369 C54.87272079 51.98521841 55.90935053 54.02098568 56.3125 58.375 C55.84273574 63.82426543 54.09583126 67.25666639 50 70.8125 C46.00173895 73.72789869 43.11136738 74.14325418 38.23046875 74.42578125 C32.92969024 73.41389884 28.83771837 69.09095287 25.12792969 65.40258789 C24.21388367 64.49807388 23.29983765 63.59355988 22.35809326 62.66163635 C21.37902412 61.68230584 20.40029269 60.70263761 19.421875 59.72265625 C18.40412793 58.70880149 17.38615953 57.69516886 16.36798096 56.68174744 C14.2432107 54.56441006 12.12231948 52.44327693 10.00390625 50.31958008 C7.29328569 47.60314973 4.57143162 44.8982925 1.84635544 42.19637394 C-0.25556637 40.10919918 -2.35050425 38.01512229 -4.44350433 35.91900444 C-5.44426672 34.91875414 -6.44738374 33.92085377 -7.45291901 32.92540169 C-8.857623 31.53307104 -10.25180025 30.1301445 -11.64550781 28.72680664 C-12.44015442 27.93278946 -13.23480103 27.13877228 -14.05352783 26.32069397 C-17.82915389 21.81917951 -18.49934516 17.79240389 -18 12 C-16.71630107 7.34659136 -15.1750964 4.76290547 -11.25 2.0625 C-7.36126366 -0.095535 -4.47617766 -0.66313743 0 0 Z " fill="#020202" transform="translate(106,350)"/>
<path d="M0 0 C11.45121453 2.47593828 22.7684779 9.38376233 29.73828125 18.78125 C34.0178132 25.49257554 38.93743771 34.24391881 38 42.4375 C36.31933594 44.24267578 36.31933594 44.24267578 33.984375 45.8828125 C33.14519531 46.48480469 32.30601562 47.08679688 31.44140625 47.70703125 C30.55324219 48.31933594 29.66507812 48.93164062 28.75 49.5625 C27.44095703 50.49255859 27.44095703 50.49255859 26.10546875 51.44140625 C24.47506648 52.59886741 22.83980117 53.74953016 21.19824219 54.89111328 C18.97186422 56.40231164 18.97186422 56.40231164 16.96582031 58.19873047 C15 59.4375 15 59.4375 13.09010315 59.2016449 C10.66222855 58.31401024 9.43006691 57.25999093 7.5925293 55.44995117 C6.94893967 54.82227341 6.30535004 54.19459564 5.64225769 53.54789734 C4.95980484 52.8656459 4.27735199 52.18339447 3.57421875 51.48046875 C2.86723343 50.78109695 2.16024811 50.08172516 1.43183899 49.36116028 C-0.05882713 47.88129392 -1.54553979 46.39743614 -3.02856445 44.90991211 C-5.30744878 42.63005338 -7.60682162 40.37235382 -9.90820312 38.11523438 C-11.35286123 36.67578142 -12.79626473 35.23506799 -14.23828125 33.79296875 C-14.93085526 33.11679001 -15.62342926 32.44061127 -16.33699036 31.74394226 C-16.96481918 31.10680801 -17.59264801 30.46967377 -18.23950195 29.81323242 C-18.79813431 29.25665451 -19.35676666 28.7000766 -19.93232727 28.12663269 C-21 26.4375 -21 26.4375 -20.8021698 24.42475891 C-19.49246321 21.18015148 -17.37953862 18.48232172 -15.3125 15.6875 C-14.39297065 14.441597 -13.47369855 13.19550411 -12.5546875 11.94921875 C-12.11092773 11.34899902 -11.66716797 10.7487793 -11.20996094 10.13037109 C-10.18586205 8.69754186 -9.24310637 7.20710779 -8.3203125 5.70703125 C-6.01991109 2.03548662 -4.55343169 -0.13367873 0 0 Z " fill="#F3F3F3" transform="translate(444,29.5625)"/>
<path d="M0 0 C21.78 0 43.56 0 66 0 C66 21.78 66 43.56 66 66 C65.67 66 65.34 66 65 66 C64.79246094 64.93523437 64.58492188 63.87046875 64.37109375 62.7734375 C61.34876053 48.18408735 56.13361996 36.20958347 46 25 C45.37351562 24.29230469 44.74703125 23.58460937 44.1015625 22.85546875 C32.14964192 10.09862291 16.57733029 4.72313942 0 1 C0 0.67 0 0.34 0 0 Z " fill="#F4F4F4" transform="translate(446,0)"/>
<path d="M0 0 C6.55377097 5.38640924 12.47246635 11.35885127 18.4375 17.375 C19.46525983 18.40778595 20.49325285 19.44033991 21.52148438 20.47265625 C24.01701598 22.97910287 26.50938082 25.4886708 29 28 C26.12551595 30.91261983 23.35153096 33.64151525 20 36 C16.09148801 34.41568547 13.47632644 31.73364905 10.578125 28.7734375 C10.07327576 28.26575836 9.56842651 27.75807922 9.04827881 27.23501587 C7.44407904 25.61966158 5.84699144 23.99747791 4.25 22.375 C3.16061893 21.27558302 2.0707801 20.17661941 0.98046875 19.078125 C-1.68501885 16.3906398 -4.34415143 13.69700979 -7 11 C-5.23931224 6.42810261 -3.22724875 3.65188674 0 0 Z " fill="#EEEEEE" transform="translate(404,79)"/>
<path d="M0 0 C0.66 0.33 1.32 0.66 2 1 C1.875 3.3125 1.875 3.3125 1 6 C-0.99107248 7.01765927 -2.99218823 8.01577854 -5 9 C-7.36702059 12.04797373 -7.36702059 12.04797373 -9 15 C-9.66 14.67 -10.32 14.34 -11 14 C-9.35504034 11.85349184 -7.70907674 9.70776711 -6.0625 7.5625 C-5.59392578 6.95083984 -5.12535156 6.33917969 -4.64257812 5.70898438 C-1.11328125 1.11328125 -1.11328125 1.11328125 0 0 Z " fill="#DFDFDF" transform="translate(168,201)"/>
<path d="M0 0 C1.64177401 3.28354802 0.26642648 6.65628996 -0.4375 10.125 C-0.58509766 10.87910156 -0.73269531 11.63320313 -0.88476562 12.41015625 C-1.25057648 14.27461157 -1.62452356 16.13746714 -2 18 C-2.33 18 -2.66 18 -3 18 C-3.08074203 15.37438891 -3.1403623 12.75124324 -3.1875 10.125 C-3.21263672 9.37863281 -3.23777344 8.63226563 -3.26367188 7.86328125 C-3.29296875 5.6953125 -3.29296875 5.6953125 -3 2 C-2.01 1.34 -1.02 0.68 0 0 Z " fill="#E5E5E5" transform="translate(3,306)"/>
<path d="M0 0 C0.66 0.33 1.32 0.66 2 1 C1.2575 1.6496875 1.2575 1.6496875 0.5 2.3125 C-1.33218192 3.99740483 -1.33218192 3.99740483 -1 7 C-2.32 7.33 -3.64 7.66 -5 8 C-5 5 -5 5 -2.5 2.3125 C-1.675 1.549375 -0.85 0.78625 0 0 Z " fill="#E9E9E9" transform="translate(182,190)"/>
</svg>
