<?xml version="1.0" encoding="UTF-8"?>
<svg version="1.1" xmlns="http://www.w3.org/2000/svg" width="512" height="512">
<path d="M0 0 C168.96 0 337.92 0 512 0 C512 168.96 512 337.92 512 512 C343.04 512 174.08 512 0 512 C0 343.04 0 174.08 0 0 Z " fill="#030303" transform="translate(0,0)"/>
<path d="M0 0 C7.87241865 5.48520204 14.58957303 12.31296708 21.32470703 19.09765625 C22.41933389 20.19284867 23.51440414 21.28759809 24.60987854 22.38194275 C27.55376804 25.32526338 30.49149255 28.27466587 33.42806864 31.22528076 C36.5087183 34.31851634 39.59511304 37.40600918 42.68087769 40.49414062 C48.51050095 46.32995572 54.33501145 52.17084565 60.15765846 58.01362038 C66.79223 64.67062282 73.43254817 71.32188053 80.07333207 77.97268486 C93.72191501 91.6421177 107.36333988 105.31867342 121 119 C119.37580849 123.09283507 116.43937944 125.83385252 113.36862183 128.87188721 C112.78704854 129.45516934 112.20547526 130.03845148 111.60627854 130.63940883 C109.65483968 132.59414392 107.69633472 134.54164142 105.73779297 136.48925781 C104.33807145 137.88841524 102.93879007 139.2880131 101.53991699 140.6880188 C97.73883737 144.48967304 93.93161583 148.28512248 90.123281 152.07950687 C86.14519873 156.04510007 82.17276663 160.01634482 78.19973755 163.98699951 C70.67436897 171.50614796 63.14391594 179.02018294 55.61163342 186.53240466 C47.0370751 195.08462056 38.46818438 203.64250544 29.8997705 212.20087671 C12.27282312 229.80691003 -5.36124751 247.40579431 -23 265 C-29.3119898 259.7803918 -35.08894692 254.08001875 -40.88891602 248.30395508 C-41.97362432 247.22716307 -43.05850876 246.15054848 -44.14355469 245.07409668 C-47.68404928 241.55963145 -51.21926819 238.03988514 -54.75390625 234.51953125 C-55.97683606 233.30196776 -57.19977145 232.08440989 -58.42271233 230.86685753 C-63.5112844 225.79988035 -68.59842577 220.73147395 -73.6818552 215.65933704 C-80.93957547 208.41785314 -88.20564846 201.18498989 -95.48367745 193.96391565 C-100.617097 188.86929124 -105.7408071 183.76502878 -110.85750335 178.65360945 C-113.90647522 175.60827597 -116.95941512 172.56719759 -120.02282906 169.53638649 C-122.90592433 166.68354319 -125.77670428 163.81884288 -128.63884735 160.94498444 C-129.68495642 159.8986561 -130.73527683 158.8565167 -131.79030418 157.81918144 C-140.60720915 149.14202706 -148.04684388 140.20769505 -148.25 127.375 C-148.06079275 111.82216396 -139.81662107 103.51295074 -129.26611328 92.99145508 C-128.29259517 92.01358064 -127.31949284 91.03529212 -126.34677124 90.05662537 C-123.72330759 87.41986282 -121.09357074 84.78944572 -118.46217966 82.16059709 C-116.25865699 79.95814986 -114.05813089 77.75272033 -111.8575362 75.5473482 C-106.66370463 70.34245401 -101.46460362 65.14286539 -96.26220703 59.9465332 C-90.90936795 54.59973828 -85.56578369 49.24381988 -80.22661793 43.88337404 C-75.62716672 39.26627171 -71.02189125 34.65503533 -66.41198146 30.04837531 C-63.66529409 27.30349456 -60.92084103 24.5564733 -58.18204117 21.80372047 C-55.60645916 19.21550664 -53.02363934 16.63473482 -50.43524551 14.05933571 C-49.04344571 12.67100472 -47.65899701 11.27531623 -46.27484131 9.87936401 C-33.10151583 -3.18444712 -17.69774525 -9.1081276 0 0 Z " fill="#F5F5F5" transform="translate(165,93)"/>
<path d="M0 0 C3.61128674 1.5298315 5.92801528 3.67428719 8.69259644 6.43190002 C9.37740969 7.11097496 9.37740969 7.11097496 10.07605755 7.80376858 C11.60220464 9.31961027 13.12112272 10.84249135 14.64013672 12.36547852 C15.7340195 13.45501324 16.82831922 14.5441295 17.92300415 15.63285828 C20.89481861 18.59127579 23.860188 21.55607467 26.8240447 24.52246213 C29.30207077 27.00155829 31.78306804 29.47767039 34.26402295 31.95383495 C40.12189909 37.80061167 45.97442543 43.6527061 51.82373047 49.50805664 C57.84639097 55.53674646 63.87814414 61.55622654 69.91447246 67.57122856 C75.10390686 72.74300557 80.28747057 77.92061617 85.46645939 83.10285324 C88.55627858 86.19448018 91.64824973 89.28387183 94.74593735 92.36761665 C97.66323239 95.27227206 100.57308548 98.18418836 103.47756577 101.10165596 C104.53994863 102.16639153 105.60485148 103.22862009 106.67255402 104.28802109 C112.52535492 110.09861634 117.77688525 115.87186694 122 123 C122.61875 124.03125 123.2375 125.0625 123.875 126.125 C127.06989693 134.35138133 125.9586856 145.33436993 122.48161602 153.28360367 C120.90808534 156.16851644 119.16817852 158.29552971 116.94258118 160.70843506 C116.13919626 161.57951653 115.33581135 162.45059799 114.50808144 163.34807587 C110.51287725 167.57241175 106.45334948 171.72716683 102.35620117 175.85253906 C101.43781967 176.78070435 100.51943817 177.70886963 99.57322693 178.66516113 C96.56692114 181.70240902 93.55545782 184.73451142 90.54296875 187.765625 C90.02707758 188.28481349 89.51118641 188.80400198 88.97966218 189.33892345 C84.10008367 194.24922908 79.2184647 199.157498 74.33202648 204.06097794 C68.12508212 210.28984383 61.92844313 216.52858476 55.74533099 222.781111 C51.37086377 227.20298645 46.98480461 231.61315435 42.59019262 236.01500869 C39.97668861 238.63343677 37.3683542 241.25654491 34.77248192 243.89246368 C31.87556306 246.83349834 28.95496807 249.74990949 26.03198242 252.66503906 C25.19159424 253.52542786 24.35120605 254.38581665 23.48535156 255.27227783 C16.16061479 262.50949548 7.43854727 268.71244198 -3.22265625 268.8203125 C-4.34994141 268.78550781 -4.34994141 268.78550781 -5.5 268.75 C-6.25152344 268.77320313 -7.00304687 268.79640625 -7.77734375 268.8203125 C-20.15178589 268.69510735 -29.2789526 260.60026761 -37.4833889 252.23184395 C-38.01770845 251.68627783 -38.55202801 251.14071171 -39.10253906 250.57861328 C-40.25571287 249.4237431 -41.41021726 248.27020029 -42.56593323 247.11787415 C-45.6716723 244.01384293 -48.75867682 240.89178533 -51.84243107 237.76593256 C-55.0786519 234.49197456 -58.33209455 231.23521867 -61.5836792 227.97653198 C-67.72591972 221.81570988 -73.85271627 215.63976713 -79.97399211 209.45812213 C-86.94887196 202.41596839 -93.94098051 195.39102719 -100.93452501 188.36741662 C-115.30881515 173.93056305 -129.66153978 159.47243417 -144 145 C-140.18797454 140.4465405 -136.24966791 136.10580553 -132.03945923 131.91920471 C-131.47080245 131.34969351 -130.90214568 130.78018231 -130.31625688 130.1934132 C-128.430159 128.30568197 -126.54053498 126.42152239 -124.65087891 124.53735352 C-123.29019035 123.17694732 -121.92972252 121.81632031 -120.56945801 120.45549011 C-116.89034787 116.77609391 -113.20816998 113.09978186 -109.52542162 109.42402768 C-105.67192186 105.57679328 -101.82126733 101.72671325 -97.9703064 97.87693787 C-90.68390461 90.59364002 -83.3949582 83.31289435 -76.10508764 76.0330686 C-67.80324859 67.74241981 -59.50426016 59.44892004 -51.20550656 51.15518296 C-34.14016797 34.10028753 -17.07126367 17.04896451 0 0 Z " fill="#F6F6F6" transform="translate(298,226)"/>
<path d="M0 0 C1.23345154 -0.0071553 2.46690308 -0.01431061 3.73773193 -0.02168274 C5.10205053 -0.02452286 6.4663694 -0.0272346 7.83068848 -0.02983093 C9.26991946 -0.03609878 10.70914884 -0.04274586 12.14837646 -0.04974365 C16.87384928 -0.07075714 21.5993223 -0.08114696 26.3248291 -0.09111023 C27.95530718 -0.0951595 29.58578508 -0.09927648 31.21626282 -0.10346031 C38.88145558 -0.12251001 46.54663876 -0.13673866 54.21185064 -0.14507228 C63.0389231 -0.154829 71.86574375 -0.18110835 80.69272757 -0.22157317 C87.52776082 -0.25182273 94.36272229 -0.2665497 101.19782114 -0.26985329 C105.27385549 -0.27219469 109.34962079 -0.28103489 113.42558289 -0.30631447 C117.26703416 -0.32975406 121.10804231 -0.33376545 124.94954681 -0.32355309 C126.35067477 -0.32306136 127.75182571 -0.32927312 129.15288544 -0.34310913 C142.11938988 -0.46387318 152.41103384 1.52460256 161.85217285 10.78388977 C171.23914204 21.20428675 171.27274913 31.94448628 171.20812988 45.38545227 C171.20756514 47.03193149 171.20788356 48.67841121 171.20901489 50.32489014 C171.20958694 54.7767983 171.19785657 59.22859793 171.18386698 63.68048096 C171.17133498 68.33961939 171.17018717 72.99876052 171.16781616 77.65791321 C171.16160864 86.47270495 171.14520769 95.28744688 171.12511718 104.10221672 C171.1027355 114.14089832 171.09175905 124.17958234 171.08172631 134.2182827 C171.06084081 154.86127324 171.02567901 175.50421899 170.9810791 196.14717102 C147.2064898 196.6159441 123.43260024 196.96781152 99.65430832 197.18341446 C88.61142559 197.28622037 77.57142619 197.42616595 66.53039551 197.65596008 C56.89822477 197.85633511 47.26814284 197.9845699 37.6339457 198.02894092 C32.53897211 198.0548539 27.44996935 198.11498138 22.35692596 198.26177216 C-14.66416271 199.28287065 -14.66416271 199.28287065 -26.54162598 188.13496399 C-37.47018201 175.78670082 -36.66967803 160.2287801 -36.14559436 144.76503134 C-36.02997535 140.73045285 -36.02868281 136.69563184 -36.01332092 132.65965271 C-35.97221344 125.89841574 -35.8590474 119.14178922 -35.69250488 112.38252258 C-35.45835806 102.87503848 -35.35682396 93.36947195 -35.28107154 83.85959029 C-35.21738601 76.43172934 -35.1200583 69.00423579 -35.01501465 61.57685852 C-35.00403205 60.78789358 -34.99304945 59.99892863 -34.98173404 59.18605566 C-34.91589999 54.64127096 -34.83245859 50.09736822 -34.72411156 45.55339241 C-34.67859243 43.5351154 -34.64621379 41.51655513 -34.61434937 39.49801636 C-34.28281439 27.23405306 -32.08391376 18.31167082 -23.3548584 9.45967102 C-16.48471284 3.18556549 -9.28707058 0.03701802 0 0 Z " fill="#F6F6F6" transform="translate(324.0189208984375,16.852828979492188)"/>
<path d="M0 0 C0.33 0 0.66 0 1 0 C1.14695313 0.81082031 1.29390625 1.62164062 1.4453125 2.45703125 C5.16053419 20.79826937 16.32228766 31.47502649 29.17102051 44.3114624 C30.1666559 45.30968902 31.16207903 46.30812739 32.15731096 47.30675626 C34.86515659 50.02258498 37.57605135 52.73535128 40.28751969 55.44756246 C43.22183454 58.38374296 46.15330174 61.32276444 49.08518982 64.2613678 C55.48106006 70.67075538 61.88064785 77.07642225 68.28107262 83.48126125 C72.28101792 87.48397768 76.28022887 91.48742728 80.27931213 95.49100494 C91.36455296 106.58842504 102.45073042 117.68490754 113.54036713 128.77793503 C114.24848129 129.48626876 114.95659546 130.19460249 115.68616763 130.92440088 C116.39589806 131.63434959 117.10562849 132.3442983 117.8368659 133.0757606 C119.27487179 134.51420994 120.71287612 135.95266084 122.15087891 137.39111328 C122.86416676 138.10462256 123.57745461 138.81813185 124.31235725 139.55326262 C135.88303322 151.127891 147.44693292 162.70926425 159.00794774 174.29354164 C170.89375983 186.20307586 182.78519813 198.10696811 194.68229437 210.00523019 C201.35565017 216.67950175 208.02657917 223.35615909 214.69129944 230.03905487 C220.36222022 235.72538757 226.03826874 241.40653877 231.72102606 247.08104339 C234.61809808 249.97421412 237.51271564 252.86973108 240.4008007 255.77187538 C243.04796799 258.43181095 245.70205108 261.08464148 248.36165565 263.73213962 C249.77028253 265.13789487 251.17156161 266.55100129 252.57250643 267.96441245 C259.12790235 274.46909739 265.86709607 280.32963137 274.75 283.3125 C275.63171875 283.61800781 276.5134375 283.92351562 277.421875 284.23828125 C279.93441434 284.98062242 282.42349882 285.53196651 285 286 C285 286.33 285 286.66 285 287 C190.95 287 96.9 287 0 287 C0 192.29 0 97.58 0 0 Z " fill="#F6F6F6" transform="translate(0,225)"/>
<path d="M0 0 C104.61 0 209.22 0 317 0 C317 0.33 317 0.66 317 1 C315.98292969 1.23783203 315.98292969 1.23783203 314.9453125 1.48046875 C299.88323006 5.25642017 289.01651248 12.54706553 280.3984375 25.65625 C274.57975314 35.40823496 273.70109798 44.8943286 273.68115234 56.02539062 C273.67110672 57.31403015 273.6610611 58.60266968 273.65071106 59.93035889 C273.623553 63.44215741 273.60830411 66.95391614 273.59528303 70.4657917 C273.57958993 74.1440293 273.55281961 77.82218638 273.5272522 81.50036621 C273.48057333 88.45576532 273.44377673 95.41117977 273.41057932 102.36665487 C273.37228069 110.28935142 273.32289096 118.21196687 273.27259517 126.13459492 C273.16943744 142.42300493 273.08012481 158.71146005 273 175 C267.59724933 170.49828886 262.6068917 165.72259776 257.66894531 160.71899414 C256.86629242 159.9100621 256.06363953 159.10113007 255.23666382 158.26768494 C253.50329127 156.5205221 251.77098821 154.7722977 250.03964996 153.02311897 C247.29234581 150.24902821 244.54055765 147.47946239 241.78729248 144.71128845 C240.84011526 143.7589686 239.89294506 142.80664177 238.94578171 141.85430813 C238.47174581 141.37768667 237.99770991 140.90106521 237.50930929 140.41000068 C231.11085382 133.97566462 224.7172221 127.53659261 218.33398438 121.0871582 C213.54991151 116.25357371 208.75516461 111.43077194 203.95436859 106.61379814 C202.13437273 104.7839468 200.31802768 102.95045634 198.50553131 101.11317635 C195.96251533 98.53616474 193.40708136 95.97207894 190.84863281 93.41040039 C190.11371613 92.65953156 189.37879944 91.90866272 188.62161255 91.13504028 C180.33980106 82.90039173 171.18188095 77.37087497 160 74 C159.38253906 73.80535156 158.76507813 73.61070313 158.12890625 73.41015625 C144.65199206 70.81368654 130.42261698 73.54509493 119 81 C112.03292687 86.92188823 105.52164572 93.32561016 99.05566406 99.78320312 C98.10845591 100.72576643 97.16105724 101.66813831 96.21348572 102.6103363 C93.67202531 105.13884386 91.13375775 107.67053115 88.59652805 110.20328331 C87.0058593 111.79099756 85.41461519 113.37813305 83.82320404 114.96510315 C78.82758018 119.9471066 73.83392198 124.9310677 68.84316182 129.91794348 C63.11102061 135.64559613 57.37237913 141.36662971 51.62804818 147.08205652 C47.16471 151.5237232 42.70720682 155.97119154 38.25402427 160.42303991 C35.60385207 163.0721694 32.95135994 165.71886644 30.29273224 168.35951233 C27.32898686 171.30359279 24.37744534 174.25962934 21.42675781 177.21679688 C20.12214851 178.507584 20.12214851 178.507584 18.79118347 179.82444763 C9.00963252 189.67325416 3.35250181 199.24478351 1 213 C0.67 213 0.34 213 0 213 C0 142.71 0 72.42 0 0 Z " fill="#F6F6F6" transform="translate(0,0)"/>
<path d="M0 0 C55.11 0 110.22 0 167 0 C167.16121214 41.9778492 167.16121214 41.9778492 167.1953125 59.5859375 C167.21903513 71.737699 167.24690388 83.88934944 167.30175781 96.04101562 C167.34169085 104.8915265 167.3674483 113.74194717 167.37635398 122.59254563 C167.38155778 127.27667354 167.39374407 131.96054344 167.42292023 136.64458847 C167.4501916 141.05884759 167.45842144 145.47274388 167.45243073 149.88707924 C167.45352574 151.50190646 167.46140964 153.11674658 167.4768219 154.73150063 C167.59105689 167.32403872 165.85415501 177.44574901 157 187 C147.05856426 196.62937274 134.56791469 197.59158212 121.390625 197.390625 C119.92804751 197.38314372 118.46545984 197.37745974 117.00286865 197.37347412 C113.19526384 197.35836573 109.38829142 197.31921689 105.58093262 197.2746582 C101.67904204 197.23338133 97.77704702 197.21539468 93.875 197.1953125 C86.24971496 197.15270385 78.62494684 197.08463846 71 197 C74.68655367 192.58502701 78.48584269 188.42136341 82.625 184.41796875 C83.67232201 183.3930347 84.71918288 182.36762926 85.765625 181.34179688 C87.38014796 179.76421224 88.99745071 178.18995611 90.62304688 176.6237793 C97.15892272 170.31467854 102.88731055 164.21878201 107 156 C107.48210937 155.04351562 107.96421875 154.08703125 108.4609375 153.1015625 C113.00042847 140.80225791 112.91679191 126.27610762 107.77734375 114.21484375 C102.58366273 104.82055919 96.77739306 97.20347466 89.11743164 89.67919922 C88.14017243 88.7047135 87.16380895 87.72932883 86.18826294 86.75312805 C83.56738323 84.1353388 80.93451333 81.52992851 78.29926229 78.9266181 C75.53574812 76.19206153 72.78416341 73.44555367 70.03135681 70.70022583 C64.82970167 65.51608173 59.61835526 60.34180289 54.4029898 55.1714555 C46.72784087 47.56183175 39.06565591 39.93917044 31.40571499 32.31424141 C30.84440335 31.75549918 30.28309171 31.19675695 29.70477062 30.62108314 C28.58633803 29.50774715 27.46793757 28.39437889 26.34957021 27.28097737 C23.07048352 24.0171682 19.78789022 20.75693736 16.50225556 17.49972034 C14.46867503 15.48308745 12.43699125 13.46455108 10.40568924 11.4456234 C9.00714784 10.0569819 7.60605649 8.67091004 6.20491028 7.28489685 C5.38202515 6.46641769 4.55914001 5.64793854 3.71131897 4.80465698 C2.99035066 4.08980574 2.26938234 3.37495449 1.52656651 2.63844109 C0 1 0 1 0 0 Z " fill="#F4F4F4" transform="translate(328,230)"/>
<path d="M0 0 C0.33 0 0.66 0 1 0 C1 36.96 1 73.92 1 112 C-69.29 112 -139.58 112 -212 112 C-212 111.67 -212 111.34 -212 111 C-211.24976563 110.84144531 -210.49953125 110.68289063 -209.7265625 110.51953125 C-193.36704907 106.79022151 -183.28424883 98.9020486 -173.43969727 85.38327026 C-159.9245242 67.02999799 -143.26386392 45.29969669 -119.4609375 41.63769531 C-99.0485111 39.06909337 -77.84185706 40.31918502 -57.4206543 42.32937622 C-42.80113173 43.68933316 -30.34447254 41.19025062 -18.44140625 32.03125 C-8.2831952 23.457901 -3.01554429 12.83845587 0 0 Z " fill="#F6F6F6" transform="translate(511,400)"/>
<path d="M0 0 C7.07220852 4.07083222 12.3149502 10.11865362 14.625 18 C15.7227031 26.10928166 13.99968168 33.4275686 9.1171875 40.04296875 C3.43874355 46.23643436 -2.9396846 49.15459361 -11.3125 49.5625 C-18.35254846 49.29345356 -23.99200272 47.07545207 -29.22265625 42.3203125 C-35.58134512 35.28982113 -36.94416783 29.0075808 -36.71484375 19.6328125 C-36.05939453 12.62628639 -33.59336761 8.90032865 -28.5 4.1875 C-19.91240971 -2.68885201 -10.41234172 -4.71261949 0 0 Z " fill="#040404" transform="translate(237.375,190)"/>
<path d="M0 0 C6.37712355 4.70663421 10.10113142 10.80219473 11.44921875 18.59765625 C11.95451325 26.40164908 9.39421198 32.62280677 5 39 C0.16555334 43.95914469 -5.22299612 46.59699462 -12.1484375 47.3359375 C-20.29404293 47.43455258 -25.91248601 46.88107389 -31.93359375 41.1640625 C-38.47131362 34.06907337 -40.65697865 28.20890946 -40.40234375 18.54296875 C-39.53466656 10.90235504 -36.45966565 5.85121566 -30.5625 1 C-20.84530577 -5.79244663 -10.2855186 -5.84286603 0 0 Z " fill="#040404" transform="translate(467,38)"/>
<path d="M0 0 C5.56000622 3.99877259 9.17964183 8.96208736 11.15625 15.55078125 C12.30630967 24.89324126 10.14340063 31.98022675 4.40625 39.36328125 C-0.60172351 44.84154669 -7.51103089 47.52998631 -14.84375 47.98828125 C-21.9615244 47.882397 -28.84239751 44.51743602 -33.87109375 39.546875 C-39.9760358 31.68060492 -40.70095059 24.35849186 -39.84375 14.55078125 C-38.14660286 7.52299745 -32.63939114 2.54583485 -26.84375 -1.44921875 C-17.9322273 -5.13633124 -8.36729733 -4.82206259 0 0 Z " fill="#050505" transform="translate(466.84375,251.44921875)"/>
<path d="M0 0 C7.46636666 3.41778382 12.06996656 8.4703007 16.16796875 15.4765625 C18.76049139 24.47414108 17.56949001 31.30189254 13.078125 39.48828125 C9.3383838 44.90418553 4.44263307 48.12357057 -1.76953125 50.1640625 C-9.41744734 51.0415408 -16.30813008 51.0371313 -22.87109375 46.71875 C-25.98088468 44.17204878 -28.45806866 41.44604303 -30.76953125 38.1640625 C-31.38828125 37.2978125 -32.00703125 36.4315625 -32.64453125 35.5390625 C-34.83633576 28.96364898 -34.80711826 21.32553485 -32.58203125 14.7265625 C-28.6741286 7.04551247 -24.34858885 3.90147597 -16.76953125 0.1640625 C-11.86766578 -2.28687023 -5.10205916 -1.53997272 0 0 Z " fill="#040404" transform="translate(460.76953125,145.8359375)"/>
<path d="M0 0 C6.73585388 3.77078901 12.49450098 9.59339205 14.8125 17.0625 C15.8916051 25.72941779 14.97474352 32.90280547 9.8125 40.0625 C5.30136263 45.01426009 0.02537289 48.60198822 -6.703125 49.56640625 C-15.41801736 49.70314619 -21.51970546 48.93265183 -28.1875 43.0625 C-33.8139094 37.24815209 -36.13372173 31.32459926 -36.625 23.25 C-36.44946394 16.45572186 -33.83678832 11.0110803 -29.3203125 5.984375 C-20.85714705 -1.85310895 -10.86232141 -4.82955521 0 0 Z " fill="#030303" transform="translate(309.1875,261.9375)"/>
<path d="M0 0 C4.51388065 2.59401583 7.63703917 5.6603411 10.5625 9.9375 C11.18125 10.80375 11.8 11.67 12.4375 12.5625 C14.73775619 19.46326856 14.68971985 27.12424913 11.875 33.875 C8.21326902 40.84121992 3.96807401 45.06655183 -3.4375 47.9375 C-10.02444219 49.89649079 -16.3374397 49.79809995 -22.625 46.9375 C-29.43247499 43.13773015 -34.64344061 37.59266782 -37 30.06640625 C-38.90422582 20.8003074 -36.66143474 14.00368316 -31.6875 6.1875 C-23.17234202 -2.32765798 -11.20062976 -5.19178127 0 0 Z " fill="#040404" transform="translate(153.4375,190.0625)"/>
<path d="M0 0 C5.89884258 4.06460394 8.7689623 9.02157554 10.67578125 15.84375 C11.55611628 23.22929755 11.35818958 29.57907293 7.22265625 35.91015625 C2.78953199 41.45156157 -2.28036699 45.39671084 -9.32421875 46.84375 C-16.8541924 47.66686453 -23.04994611 47.31490223 -29.32421875 42.84375 C-34.72869596 38.3190714 -39.76129366 31.67686399 -40.59765625 24.49609375 C-40.90819672 16.19510799 -39.07805902 10.01381105 -33.45703125 3.76953125 C-23.12295755 -5.82064998 -12.21437212 -6.71711256 0 0 Z " fill="#040404" transform="translate(347.32421875,149.15625)"/>
<path d="M0 0 C5.89884258 4.06460394 8.7689623 9.02157554 10.67578125 15.84375 C11.556517 23.2326594 11.34942119 29.56883117 7.23046875 35.91015625 C2.59363136 41.67707712 -3.17463083 46.30940631 -10.69140625 47.27734375 C-17.90574946 47.28537754 -23.32973807 47.02526579 -29.32421875 42.84375 C-30.21109375 42.3075 -31.09796875 41.77125 -32.01171875 41.21875 C-37.03636237 36.0583052 -40.39845807 28.48793858 -40.69921875 21.28125 C-40.59808747 14.34364385 -38.07545728 8.9057979 -33.45703125 3.765625 C-23.11299719 -5.81367503 -12.21968392 -6.7200337 0 0 Z " fill="#040404" transform="translate(347.32421875,38.15625)"/>
<path d="M0 0 C7.11809452 4.05113418 12.36817798 10.08701898 14.6875 18 C15.7852031 26.10928166 14.06218168 33.4275686 9.1796875 40.04296875 C3.50124355 46.23643436 -2.8771846 49.15459361 -11.25 49.5625 C-18.30039929 49.29305799 -23.88094079 47.05430534 -29.16015625 42.35546875 C-35.57078921 35.37780192 -37.01385159 28.86834119 -36.78515625 19.51171875 C-35.792401 12.13579336 -32.00129455 7.03992132 -26.25 2.5 C-18.30181158 -3.09136363 -8.91692116 -4.0494275 0 0 Z " fill="#040404" transform="translate(74.3125,196)"/>
<path d="M0 0 C5.44968993 3.1278767 10.90677997 8.15119122 13.0234375 14.22265625 C14.55218795 22.39559134 14.6610911 30.40264354 9.98046875 37.49609375 C4.91789607 43.69360086 -0.73019988 47.81017619 -8.7734375 48.78125 C-17.2408432 49.19362365 -23.09470428 48.00116998 -29.5703125 42.39453125 C-35.05350227 36.7399918 -37.50779821 30.90846087 -37.9453125 23.01953125 C-37.74298579 15.58402454 -34.22253319 9.31321985 -29.28515625 3.8984375 C-20.77940195 -3.56105089 -10.1098515 -4.45652333 0 0 Z " fill="#040404" transform="translate(153.5703125,274.60546875)"/>
<path d="M0 0 C6.74028254 4.06833787 10.564436 8.69960389 12.9609375 16.18359375 C14.06336534 23.5182951 13.68406822 29.88568357 9.57421875 36.18359375 C4.13581952 42.92562863 -1.77761669 47.26703343 -10.4140625 48.53125 C-18.14962193 49.00263565 -24.32903964 46.4542718 -30.1171875 41.3515625 C-35.6374441 35.4717934 -38.09841993 29.84184679 -38.5390625 21.80859375 C-38.320964 14.97167987 -35.93371609 9.44265741 -31.39453125 4.33203125 C-22.5038255 -3.81610991 -10.78158371 -5.62432797 0 0 Z " fill="#040404" transform="translate(305.0390625,341.81640625)"/>
<path d="M0 0 C6.05894444 3.71226355 11.4641142 9.74530514 13.5625 16.5625 C14.64333331 25.2432981 13.71159011 32.38498045 8.5625 39.5625 C3.7819466 45.0392505 -1.8861002 48.08340528 -9.109375 48.84375 C-17.86223739 49.13390013 -24.38579923 47.26011486 -30.8984375 41.3125 C-36.11776663 35.37783134 -37.87558706 28.27569066 -37.7734375 20.54296875 C-36.87126796 12.5388367 -32.51400494 6.98150415 -26.5 1.9375 C-19.34922274 -2.82968484 -7.93427294 -3.46136608 0 0 Z " fill="#030303" transform="translate(304.4375,425.4375)"/>
<path d="M0 0 C5.76136626 3.01529449 10.45885084 8.18678412 13.32421875 13.9921875 C15.60434145 21.31082523 14.72587961 29.31500762 11.58984375 36.234375 C7.65263021 42.49191972 2.2711067 46.72035294 -4.875 48.5625 C-12.40971011 49.40165294 -19.4170649 49.51155439 -25.90625 45.25 C-31.95514645 40.06523161 -36.24258842 34.09610136 -37.15625 26.1015625 C-37.56156276 18.86672966 -36.02875668 13.5113475 -31.875 7.5625 C-23.54648199 -1.61823846 -11.75417792 -4.45636659 0 0 Z " fill="#040404" transform="translate(158.875,111.4375)"/>
<path d="M0 0 C14.85 0 29.7 0 45 0 C45 14.52 45 29.04 45 44 C43.44091899 40.88183798 42.61689609 38.71446929 41.8125 35.4375 C38.13548903 22.95404776 29.12980843 12.72869309 17.94140625 6.3203125 C12.20822932 3.7468546 6.11079854 2.38511434 0 1 C0 0.67 0 0.34 0 0 Z " fill="#F3F3F3" transform="translate(467,0)"/>
<path d="M0 0 C4.33915801 0.88554245 6.21997556 2.22783664 9.0625 5.625 C9.48659007 8.85373908 9.08366122 11.54370539 8.0625 14.625 C5.76897881 17.53600766 4.29824532 17.59070977 0.625 18.125 C-2.9375 17.625 -2.9375 17.625 -5.875 15.5625 C-7.9375 12.625 -7.9375 12.625 -8.5625 9.125 C-7.6176035 3.83357959 -5.32725015 1.13345748 0 0 Z " fill="#EEEEEE" transform="translate(291.9375,439.375)"/>
<path d="M0 0 C2.4375 1.625 2.4375 1.625 4 4 C4.72125695 8.40768137 4.52001338 10.25937488 1.9375 13.9375 C-1 16 -1 16 -4.5 16.625 C-8.9297642 15.83397068 -10.39210172 14.63525215 -13 11 C-13.7446324 7.02862719 -13.37266878 5.55900317 -11.125 2.1875 C-7.38445041 -1.66306575 -5.14450674 -1.1530791 0 0 Z " fill="#EDEDED" transform="translate(303,278)"/>
<path d="M0 0 C4.4297642 0.79102932 5.89210172 1.98974785 8.5 5.625 C9.21235686 9.4242366 8.81263988 11.06224821 6.9375 14.4375 C3.73003157 17.31599731 1.7850666 17.70017661 -2.5 17.625 C-5.30189446 15.85858828 -7.01524911 14.59450178 -8.5 11.625 C-9.03507099 7.6119676 -8.83051628 6.08571967 -6.4375 2.75 C-3.5 0.625 -3.5 0.625 0 0 Z " fill="#EEEEEE" transform="translate(292.5,355.375)"/>
<path d="M0 0 C2.4375 1.625 2.4375 1.625 4 4 C4.72125695 8.40768137 4.52001338 10.25937488 1.9375 13.9375 C-1 16 -1 16 -4.5 16.625 C-8.9297642 15.83397068 -10.39210172 14.63525215 -13 11 C-13.7446324 7.02862719 -13.37266878 5.55900317 -11.125 2.1875 C-7.38445041 -1.66306575 -5.14450674 -1.1530791 0 0 Z " fill="#EDEDED" transform="translate(146,290)"/>
<path d="M0 0 C3.80470451 0.7133821 5.41196019 1.67868421 8 4.5625 C9.0625 8 9.0625 8 9 11.5625 C7.23358828 14.36439446 5.96950178 16.07774911 3 17.5625 C-1.0130324 18.09757099 -2.53928033 17.89301628 -5.875 15.5 C-8 12.5625 -8 12.5625 -8.625 9.0625 C-7.67703424 3.75389177 -5.38444917 1.00958422 0 0 Z " fill="#EEEEEE" transform="translate(63,210.4375)"/>
<path d="M0 0 C3.80470451 0.7133821 5.41196019 1.67868421 8 4.5625 C9.0625 8 9.0625 8 9 11.5625 C7.23358828 14.36439446 5.96950178 16.07774911 3 17.5625 C-1.0130324 18.09757099 -2.53928033 17.89301628 -5.875 15.5 C-8 12.5625 -8 12.5625 -8.625 9.0625 C-7.67703424 3.75389177 -5.38444917 1.00958422 0 0 Z " fill="#EEEEEE" transform="translate(226,204.4375)"/>
<path d="M0 0 C3.80470451 0.7133821 5.41196019 1.67868421 8 4.5625 C9.125 7.9375 9.125 7.9375 9 11.5625 C7 15 7 15 4 17.5625 C0.5 18.25 0.5 18.25 -3 17.5625 C-6.69186542 14.97033917 -7.82883761 13.52100936 -8.625 9.0625 C-7.67703424 3.75389177 -5.38444917 1.00958422 0 0 Z " fill="#EEEEEE" transform="translate(452,161.4375)"/>
<path d="M0 0 C3.80470451 0.7133821 5.41196019 1.67868421 8 4.5625 C9.125 7.9375 9.125 7.9375 9 11.5625 C7 15 7 15 4 17.5625 C0.5 18.25 0.5 18.25 -3 17.5625 C-6.69186542 14.97033917 -7.82883761 13.52100936 -8.625 9.0625 C-7.67703424 3.75389177 -5.38444917 1.00958422 0 0 Z " fill="#EDEDED" transform="translate(452,50.4375)"/>
<path d="M0 0 C4.43024874 0.87022743 5.91370196 2.00398461 8.5 5.6875 C9.12601538 9.65226406 9.15946039 11.68512021 6.9375 15.0625 C3.67160572 17.23976285 1.42016134 17.6875 -2.5 17.6875 C-6.28644566 15.71196313 -7.27321363 14.3678591 -8.625 10.3125 C-8.5 6.6875 -8.5 6.6875 -6.5 3.25 C-3.5 0.6875 -3.5 0.6875 0 0 Z " fill="#EFEFEF" transform="translate(141.5,204.3125)"/>
<path d="M0 0 C2.4375 1.625 2.4375 1.625 4 4 C4.72125695 8.40768137 4.52001338 10.25937488 1.9375 13.9375 C-1 16 -1 16 -4.5 16.6875 C-8 16 -8 16 -11 13.4375 C-13 10 -13 10 -13.125 6.375 C-10.80869361 -0.57391916 -6.85196698 -1.99329948 0 0 Z " fill="#EEEEEE" transform="translate(337,163)"/>
<path d="M0 0 C2.4375 1.625 2.4375 1.625 4 4 C4.72125695 8.40768137 4.52001338 10.25937488 1.9375 13.9375 C-1 16 -1 16 -4.5 16.6875 C-8 16 -8 16 -11 13.4375 C-13 10 -13 10 -13.125 6.375 C-10.80869361 -0.57391916 -6.85196698 -1.99329948 0 0 Z " fill="#EEEEEE" transform="translate(337,52)"/>
<path d="M0 0 C2.5 1.5 2.5 1.5 4 4 C4.791013 8.02098277 4.62153384 10.96411027 2.5 14.5 C-0.98597004 16.59158203 -4.10215706 16.8876276 -8 16 C-11.44150865 13.56226471 -12.762119 12.14182881 -13.625 8 C-12.01791249 0.28597997 -6.91401994 -0.98771713 0 0 Z " fill="#EFEFEF" transform="translate(152,127)"/>
<path d="M0 0 C3.0625 2.0625 3.0625 2.0625 5 5 C5.06886551 8.92533388 4.55357459 11.13642364 2.4375 14.4375 C-0.55675314 16.35689304 -2.57979374 16.64198916 -6.09375 16.4453125 C-8 16 -8 16 -10.5 13.9375 C-12.37276489 10.27000208 -12.59172793 8.06812955 -12 4 C-9.16483673 -0.60714032 -5.04704965 -1.13708233 0 0 Z " fill="#F0F0F0" transform="translate(456,265)"/>
<path d="M0 0 C0.33 0 0.66 0 1 0 C1.20496094 0.89203125 1.40992187 1.7840625 1.62109375 2.703125 C1.89050781 3.87359375 2.15992188 5.0440625 2.4375 6.25 C2.83775391 7.99023438 2.83775391 7.99023438 3.24609375 9.765625 C3.80968 12.18349761 4.38669951 14.59443304 5 17 C4.34 17.33 3.68 17.66 3 18 C2.01 17.67 1.02 17.34 0 17 C0 11.39 0 5.78 0 0 Z " fill="#E1E1E1" transform="translate(0,225)"/>
<path d="M0 0 C4.95 0 9.9 0 15 0 C14.67 1.32 14.34 2.64 14 4 C9.38 3.01 4.76 2.02 0 1 C0 0.67 0 0.34 0 0 Z " fill="#DEDEDE" transform="translate(467,0)"/>
<path d="M0 0 C0.66 0 1.32 0 2 0 C1.34 4.29 0.68 8.58 0 13 C-0.33 13 -0.66 13 -1 13 C-1.02696365 11.20841511 -1.04637917 9.41671527 -1.0625 7.625 C-1.07410156 6.62726563 -1.08570312 5.62953125 -1.09765625 4.6015625 C-1 2 -1 2 0 0 Z " fill="#E0E0E0" transform="translate(1,200)"/>
<path d="M0 0 C3 1 3 1 5 4 C2.525 5.485 2.525 5.485 0 7 C-1.04449911 3.86650268 -0.93423645 3.01031744 0 0 Z " fill="#EBEBEB" transform="translate(315,34)"/>
</svg>
