<?xml version="1.0" encoding="UTF-8"?>
<svg version="1.1" xmlns="http://www.w3.org/2000/svg" width="512" height="512">
<path d="M0 0 C168.96 0 337.92 0 512 0 C512 168.96 512 337.92 512 512 C343.04 512 174.08 512 0 512 C0 343.04 0 174.08 0 0 Z " fill="#020202" transform="translate(0,0)"/>
<path d="M0 0 C1.134375 0.00902344 2.26875 0.01804688 3.4375 0.02734375 C4.283125 0.03894531 5.12875 0.05054688 6 0.0625 C11.69447329 11.13312198 16.98589548 22.38360941 22.23095703 33.67236328 C26.59198157 43.05663987 30.99229755 52.42156667 35.41799927 61.7755127 C42.82843716 77.43869745 50.21573057 93.11214479 57.5 108.83447266 C58.87534908 111.79424895 60.26432547 114.74721417 61.65625 117.69921875 C78.80936557 154.43804832 83.49067564 196.53114342 69.90625 235.21435547 C61.52943426 258.11263599 49.49957088 277.01163607 32 294.0625 C31.39542969 294.68898438 30.79085937 295.31546875 30.16796875 295.9609375 C28.14931537 298.03748725 26.09387884 300.06195297 24 302.0625 C23.47921875 302.56394531 22.9584375 303.06539063 22.421875 303.58203125 C9.64442341 314.26217386 -17.08000159 312.09990602 -32.71826172 310.84423828 C-64.83643269 307.39932984 -94.99642039 294.18957402 -118.7109375 272.140625 C-120.28836008 270.70856218 -121.91958083 269.33432514 -123.58984375 268.01171875 C-127.21779848 265.07760301 -130.03978159 261.65499806 -133 258.0625 C-133.77730469 257.12277344 -134.55460937 256.18304688 -135.35546875 255.21484375 C-152.43249701 234.09052293 -162.58418327 207.56099453 -173.89355469 183.07714844 C-178.37486027 173.37976465 -182.92949169 163.7181218 -187.5 154.0625 C-193.4084606 141.57893309 -199.27077078 129.07542508 -205.06640625 116.5390625 C-205.55882812 115.47429687 -206.05125 114.40953125 -206.55859375 113.3125 C-206.98454834 112.38953125 -207.41050293 111.4665625 -207.84936523 110.515625 C-208.94243371 108.0891039 -208.94243371 108.0891039 -210.21508789 105.984375 C-211 104.0625 -211 104.0625 -210.83984375 102.05444336 C-209.79185598 99.56882354 -208.45609128 98.11381098 -206.5625 96.19140625 C-205.84143066 95.45881592 -205.12036133 94.72622559 -204.37744141 93.97143555 C-203.59288574 93.19711182 -202.80833008 92.42278809 -202 91.625 C-200.78256104 90.42000854 -200.78256104 90.42000854 -199.54052734 89.19067383 C-181.03696409 71.19142689 -158.78891656 57.81359643 -136.32177734 45.35253906 C-134.32815604 44.24483192 -132.34460522 43.12164872 -130.36328125 41.9921875 C-92.72850393 21.09854806 -43.64166421 -0.45460067 0 0 Z " fill="#F6F6F6" transform="translate(244,133.9375)"/>
<path d="M0 0 C0.33 0 0.66 0 1 0 C1 91.08 1 182.16 1 276 C-167.96 276 -336.92 276 -511 276 C-511 185.58 -511 95.16 -511 2 C-508.82583005 4.17416995 -508.00561475 5.89680143 -506.7421875 8.6875 C-506.28948486 9.67927246 -505.83678223 10.67104492 -505.37036133 11.69287109 C-504.87689209 12.78422363 -504.38342285 13.87557617 -503.875 15 C-502.79426905 17.36779392 -501.71246618 19.73506496 -500.62890625 22.1015625 C-500.34164169 22.72978912 -500.05437714 23.35801575 -499.75840759 24.00527954 C-496.17536954 31.8259838 -492.4884974 39.59769921 -488.8125 47.375 C-484.45942668 56.58948459 -480.13772744 65.811173 -476 75.125 C-473.25832699 81.29518466 -470.3648751 87.35113182 -467.29882812 93.3659668 C-463.87031377 100.14697339 -460.69046007 107.04216139 -457.5 113.9375 C-456.92835992 115.17027331 -456.35666424 116.40302084 -455.78491211 117.63574219 C-453.41425228 122.75407912 -451.0498803 127.87422141 -448.73828125 133.01953125 C-439.89903047 152.55019111 -427.78768235 169.51815902 -413 185 C-412.18660156 185.86625 -411.37320313 186.7325 -410.53515625 187.625 C-379.7692768 219.53774367 -334.50553454 237.30519088 -290.67486572 238.29537964 C-259.54722669 238.8446582 -236.4320179 234.93348903 -213.56469727 212.96704102 C-197.15129534 196.81716121 -185.62661729 178.26232814 -175 158 C-173.99582031 158.27714844 -172.99164063 158.55429687 -171.95703125 158.83984375 C-142.86410074 166.65809898 -115.34412395 157.26949379 -89.62744141 142.65136719 C-78.89714518 136.34697088 -69.21412645 129.34439358 -60 121 C-59.10925781 120.22914063 -58.21851563 119.45828125 -57.30078125 118.6640625 C-22.9222213 88.65521231 -4.62643032 44.68157705 0 0 Z " fill="#F6F6F6" transform="translate(511,236)"/>
<path d="M0 0 C168.96 0 337.92 0 512 0 C512 24.42 512 48.84 512 74 C511.01 72.68 510.02 71.36 509 70 C505.23503525 65.74452928 501.58182491 63.43129807 496.5 61.125 C495.38902954 60.61573975 495.38902954 60.61573975 494.25561523 60.09619141 C466.58023618 47.75582631 435.72133143 41.77526093 405.625 39.3125 C404.8697403 39.24962799 404.11448059 39.18675598 403.33633423 39.12197876 C388.29730976 37.91364598 373.26944866 37.7031291 358.1875 37.6875 C356.57152924 37.68225815 356.57152924 37.68225815 354.9229126 37.6769104 C335.4484306 37.64180618 315.91821123 38.47408392 296.6875 41.75 C295.6780835 41.91773926 294.66866699 42.08547852 293.62866211 42.25830078 C251.40804629 48.44707398 251.40804629 48.44707398 215 69 C212.49567857 72.75014063 212.65347153 76.69160737 212.5859375 81.046875 C212.56657135 81.81807678 212.5472052 82.58927856 212.5272522 83.3838501 C212.46762923 85.83912205 212.42114086 88.29444133 212.375 90.75 C212.33680425 92.41798882 212.29775159 94.08595826 212.2578125 95.75390625 C212.16194209 99.83577943 212.07784765 103.91774493 212 108 C210.99219482 108.24741943 209.98438965 108.49483887 208.94604492 108.74975586 C175.15359619 117.09064288 143.31015192 128.85024148 112 144 C111.07364746 144.4419873 110.14729492 144.88397461 109.19287109 145.33935547 C88.70716013 155.12192227 69.46340575 166.80951367 51 180 C50.29649414 180.49854492 49.59298828 180.99708984 48.86816406 181.51074219 C39.09678715 188.47324983 30.20296948 196.07574823 21.60546875 204.44140625 C20.19794117 205.80783814 18.7722605 207.15551953 17.34375 208.5 C11.78766871 213.82774918 7.38947284 219.6938569 3 226 C1.515 227.98 1.515 227.98 0 230 C0 154.1 0 78.2 0 0 Z " fill="#F6F6F6" transform="translate(0,0)"/>
<path d="M0 0 C1.07155838 0.44971664 2.14311676 0.89943329 3.24714661 1.36277771 C4.05915024 1.70527054 4.87115387 2.04776337 5.70776367 2.40063477 C5.80187858 20.83993562 5.87206754 39.27917278 5.91501236 57.71866322 C5.93549669 66.28355325 5.96334091 74.84829269 6.00952148 83.41308594 C6.04982847 90.89221413 6.0752986 98.37123309 6.08411765 105.85046691 C6.08925961 109.79795398 6.1010354 113.74512905 6.1306839 117.69251442 C6.49145429 167.78837281 -4.93432856 209.98695874 -40.16723633 246.58813477 C-56.8475549 262.82189362 -77.25727758 273.74990999 -99.10473633 281.33813477 C-99.96405762 281.64509277 -100.82337891 281.95205078 -101.70874023 282.26831055 C-111.94930248 285.68314343 -120.14193842 284.52380335 -130.29223633 281.40063477 C-130.16671387 280.73056396 -130.04119141 280.06049316 -129.91186523 279.37011719 C-124.94004735 252.48434422 -124.09911047 227.45614619 -128.29223633 200.40063477 C-128.63194788 198.06815559 -128.96247916 195.73454717 -129.29223633 193.40063477 C-116.04862577 189.15654335 -102.86161869 190.85131373 -90.29223633 196.40063477 C-84.21924584 199.58525173 -78.83665941 203.46274621 -73.82739258 208.13891602 C-70.9837132 210.47608762 -68.70418287 211.35310247 -65.04223633 211.77563477 C-60.4161913 211.31303026 -57.06223503 210.12624194 -53.29223633 207.40063477 C-50.27206227 203.34227588 -49.74587693 199.50455149 -49.95239258 194.56469727 C-51.01103691 187.82344485 -57.14778384 183.29794726 -62.29223633 179.40063477 C-78.93815826 167.92453062 -95.60546465 162.20529204 -115.72973633 162.08813477 C-116.65334961 162.08249512 -117.57696289 162.07685547 -118.52856445 162.07104492 C-124.13415356 162.13091635 -128.88971911 162.95033335 -134.29223633 164.40063477 C-137.29223633 164.52563477 -137.29223633 164.52563477 -139.29223633 164.40063477 C-146.17729375 151.00493392 -152.50219477 137.35133503 -158.78979492 123.66772461 C-159.78720469 121.49883649 -160.79009412 119.3324595 -161.79858398 117.16870117 C-162.25668457 116.17918457 -162.71478516 115.18966797 -163.18676758 114.17016602 C-163.59386963 113.29593994 -164.00097168 112.42171387 -164.42041016 111.52099609 C-165.29223633 109.40063477 -165.29223633 109.40063477 -165.29223633 107.40063477 C-164.5162207 107.2652832 -163.74020508 107.12993164 -162.94067383 106.99047852 C-151.29088659 104.6688622 -140.04699331 100.79201635 -132.42895508 91.19750977 C-129.91397017 87.22193224 -129.6696546 82.96623414 -130.29223633 78.40063477 C-132.56055064 73.94801778 -134.84116863 71.62616862 -139.29223633 69.40063477 C-139.95223633 69.07063477 -140.61223633 68.74063477 -141.29223633 68.40063477 C-147.73466864 68.0932158 -151.72806689 69.88480249 -156.56567383 74.02563477 C-160.30676084 77.00496198 -164.70728785 76.90501046 -169.29614258 76.89282227 C-174.61467632 76.01911268 -178.22849726 72.75170318 -182.29223633 69.40063477 C-183.28223633 68.74063477 -184.27223633 68.08063477 -185.29223633 67.40063477 C-186.71508789 64.82543945 -186.71508789 64.82543945 -188.18286133 61.57250977 C-188.72426758 60.38592773 -189.26567383 59.1993457 -189.82348633 57.97680664 C-190.10450195 57.35088623 -190.38551758 56.72496582 -190.67504883 56.08007812 C-191.54387314 54.14699294 -192.42390761 52.21942219 -193.30786133 50.29321289 C-194.45939917 47.78390595 -195.60870209 45.27361005 -196.75512695 42.76196289 C-198.57020981 38.79276646 -200.39307257 34.83032296 -202.29223633 30.90063477 C-202.76661133 29.90032227 -203.24098633 28.90000977 -203.72973633 27.86938477 C-205.84883355 24.52121115 -208.30621579 22.02731954 -212.15454102 20.81298828 C-214.47571336 20.36524273 -216.69633091 20.19019462 -219.05786133 20.08422852 C-219.94731445 20.04233398 -220.83676758 20.00043945 -221.75317383 19.95727539 C-223.13375977 19.89830078 -223.13375977 19.89830078 -224.54223633 19.83813477 C-225.4780957 19.79495117 -226.41395508 19.75176758 -227.37817383 19.70727539 C-229.68269855 19.60145538 -231.98744872 19.50056559 -234.29223633 19.40063477 C-234.29223633 13.79063477 -234.29223633 8.18063477 -234.29223633 2.40063477 C-212.6709205 -8.41002315 -188.20140524 -12.4011909 -164.41723633 -15.34936523 C-163.03145386 -15.52278442 -163.03145386 -15.52278442 -161.61767578 -15.69970703 C-109.57304908 -21.63877413 -48.8783463 -20.55779884 0 0 Z " fill="#F5F5F5" transform="translate(476.292236328125,84.599365234375)"/>
<path d="M0 0 C4.29445396 1.87832192 7.22174709 3.95682283 9.20166016 8.28735352 C11.2551914 14.33704225 10.05783561 20.09624857 7.41430664 25.73022461 C7.05973389 26.43026611 6.70516113 27.13030762 6.33984375 27.8515625 C5.97560303 28.59349854 5.6113623 29.33543457 5.23608398 30.09985352 C2.3839789 35.75010997 -0.86129334 40.63646349 -5.09765625 45.3515625 C-5.77441406 46.16882813 -6.45117188 46.98609375 -7.1484375 47.828125 C-20.21310575 63.19013279 -39.33344053 72.85225304 -59.09765625 76.3515625 C-74.85048901 77.42042574 -92.84730117 78.19413948 -106.09765625 68.3515625 C-109.4610084 64.62460471 -110.93370259 62.08947126 -111.41015625 57.0390625 C-110.94031395 51.49492331 -108.57193601 48.65033276 -104.47265625 45.0390625 C-100.35699915 42.11477982 -97.05702499 41.86134483 -92.09765625 42.3515625 C-90.46350792 42.82080042 -88.83880027 43.32363872 -87.22265625 43.8515625 C-74.90254824 47.42781607 -61.86253102 46.18185661 -50.09765625 41.3515625 C-49.22882813 41.01253906 -48.36 40.67351562 -47.46484375 40.32421875 C-33.90450373 34.3517179 -25.66227837 23.00394517 -19.53515625 9.9765625 C-15.67656895 1.93996842 -9.16147606 -2.83203915 0 0 Z " fill="#020202" transform="translate(265.09765625,305.6484375)"/>
<path d="M0 0 C2.390625 1.62890625 2.390625 1.62890625 4.8125 3.5625 C9.5793892 7.132124 13.12048993 8.03353897 19.05078125 7.70703125 C23.36821852 6.67199 26.18514177 4.3515564 29.62890625 1.640625 C33.30933067 -0.90596191 36.58298891 -1.54118334 41 -1 C45.44920663 0.29603888 48.31366492 2.27934816 51.5 5.625 C53.76980151 10.73205341 54.06391788 15.61541126 52.375 20.98828125 C47.77908418 30.24166534 37.0947373 34.40173758 27.94140625 37.75390625 C16.38341496 41.19006582 4.87252545 38.71635978 -5.796875 33.6796875 C-12.27857002 30.08529299 -18.58639752 25.24080743 -21 18 C-21.50201239 11.87544882 -21.09928344 8.87482354 -17 4 C-11.54366913 -0.92400591 -7.03221115 -2.02012277 0 0 Z " fill="#040404" transform="translate(404,153)"/>
<path d="M0 0 C4.43040068 3.63827083 6.55678006 6.60135245 7.12890625 12.41796875 C7.00656215 17.10200007 5.4400632 19.80007974 2.75390625 23.60546875 C-0.84120949 26.87375578 -3.9096501 27.75017999 -8.703125 27.5625 C-9.56873047 27.54123047 -10.43433594 27.51996094 -11.32617188 27.49804688 C-13.13646102 27.44499337 -14.94644353 27.38003744 -16.75585938 27.30273438 C-22.45496091 27.18866785 -25.79406822 27.66342757 -30.24609375 31.60546875 C-31.7817871 33.50323271 -31.7817871 33.50323271 -32.80859375 35.54296875 C-35.53616791 40.2526386 -38.70030485 43.57494282 -43.24609375 46.60546875 C-48.21908067 47.34157353 -52.18465186 47.14583917 -56.68359375 44.85546875 C-60.46035759 41.53928586 -62.78864803 38.80105387 -63.51953125 33.6953125 C-63.94787954 24.61762371 -59.83842517 18.19254458 -54.12109375 11.41796875 C-41.01977179 -2.44632537 -17.67510479 -10.97393463 0 0 Z " fill="#030303" transform="translate(261.24609375,220.39453125)"/>
<path d="M0 0 C3.124655 2.59329038 5.19430973 5.38861946 7 9 C7.54636649 15.44712464 6.73885508 18.70328864 3 24 C0.19279857 26.5520013 -2.26024716 27.98523297 -6.15722656 28.01831055 C-6.97674805 27.97488525 -7.79626953 27.93145996 -8.640625 27.88671875 C-9.54683594 27.85642578 -10.45304687 27.82613281 -11.38671875 27.79492188 C-13.28080814 27.72386122 -15.17426871 27.63301814 -17.06640625 27.52148438 C-21.94947367 27.39370963 -25.14294037 27.55362953 -29.00390625 30.7265625 C-31.42117718 33.15566522 -33.2233481 35.56869317 -34.6875 38.6875 C-36.56159935 42.633331 -38.60138684 45.05768769 -42.75 46.6875 C-48.21694353 47.44679771 -52.14399217 47.96769914 -56.8125 44.8125 C-60.35096717 41.90417082 -62.6044949 39.48857144 -63.34765625 34.8125 C-63.91949394 25.42849689 -59.76488536 18.80211261 -53.875 11.8125 C-39.72324355 -3.0877791 -19.11809692 -9.09757716 0 0 Z " fill="#030303" transform="translate(161,267)"/>
<path d="M0 0 C0.66 0.33 1.32 0.66 2 1 C0.37660195 2.70884005 -1.29319053 4.37446717 -3 6 C-3.66 6 -4.32 6 -5 6 C-5.66 6.66 -6.32 7.32 -7 8 C-9.625 8.625 -9.625 8.625 -12 9 C-8.63378119 5.21300384 -4.58358196 2.1727369 0 0 Z " fill="#E3E3E3" transform="translate(84,193)"/>
<path d="M0 0 C0.99 0.33 1.98 0.66 3 1 C2.25 5.75 2.25 5.75 0 8 C0 5.36 0 2.72 0 0 Z " fill="#E8E8E8" transform="translate(0,222)"/>
</svg>
