<?xml version="1.0" encoding="UTF-8"?>
<svg version="1.1" xmlns="http://www.w3.org/2000/svg" width="512" height="512">
<path d="M0 0 C168.96 0 337.92 0 512 0 C512 168.96 512 337.92 512 512 C343.04 512 174.08 512 0 512 C0 343.04 0 174.08 0 0 Z " fill="#030303" transform="translate(0,0)"/>
<path d="M0 0 C49.83 0 99.66 0 151 0 C151 168.96 151 337.92 151 512 C99.85 512 48.7 512 -4 512 C-4 511.67 -4 511.34 -4 511 C-2.69289063 510.76216797 -2.69289063 510.76216797 -1.359375 510.51953125 C18.26797354 506.67478007 34.72662469 497.54775788 46.9609375 481.4140625 C56.4685005 467.25651235 62.17231833 450.6892025 62.1875 433.625 C62.19974609 432.90828125 62.21199219 432.1915625 62.22460938 431.453125 C62.23852688 426.3129274 61.40043051 421.94642625 60 417 C59.25 413.875 59.25 413.875 60 411 C62.34824819 409.36222375 64.81037801 408.05251692 67.32421875 406.68359375 C77.26900939 400.42636052 80.72087046 388.36238767 83.3671875 377.5612793 C84.45877951 371.41812627 84.44353 365.29305251 84.39111328 359.07495117 C84.37514273 356.83253992 84.39098453 354.59196357 84.41015625 352.34960938 C84.46796809 311.93525912 66.35867012 272.75250976 41 242 C40.54157715 241.44006348 40.0831543 240.88012695 39.61083984 240.30322266 C27.02057908 224.89092416 27.02057908 224.89092416 12 212 C12.6701914 207.39801904 14.46211162 203.40987245 16.3125 199.1875 C22.75242793 184.03404951 25.18119516 169.24284806 25.13037109 152.81103516 C25.12504815 150.76847789 25.13032194 148.72614402 25.13671875 146.68359375 C25.13615555 140.48596299 24.97748634 134.44238018 24.2109375 128.28515625 C23.75161111 123.36047964 23.75161111 123.36047964 25.84375 120.32421875 C26.7203125 119.78410156 27.596875 119.24398437 28.5 118.6875 C29.88638672 117.74390625 29.88638672 117.74390625 31.30078125 116.78125 C32.19152344 116.1934375 33.08226562 115.605625 34 115 C45.83065376 105.10611993 53.62917159 89.02639932 55.23706055 73.74731445 C56.34852702 54.33410489 51.44774766 37.35400582 38.94921875 22.1171875 C28.86798343 11.1672285 14.5120766 3.9516088 0 1 C0 0.67 0 0.34 0 0 Z " fill="#F6F6F6" transform="translate(361,0)"/>
<path d="M0 0 C51.15 0 102.3 0 155 0 C155 0.33 155 0.66 155 1 C153.54980469 1.25523438 153.54980469 1.25523438 152.0703125 1.515625 C138.99216908 3.90587301 129.5801144 7.65328417 119 16 C118.00806641 16.7425 118.00806641 16.7425 116.99609375 17.5 C105.72093691 26.37887071 97.88676272 41.93504156 96 56 C94.53305188 74.34281473 97.79993759 91.90423449 109.171875 106.85546875 C114.46931936 112.89272862 120.30488186 118.5365879 127 123 C126.84015625 124.29550781 126.6803125 125.59101562 126.515625 126.92578125 C125.82343991 133.90285972 125.77763921 140.87982216 125.75976562 147.8840332 C125.75009156 150.16590288 125.71898812 152.44685717 125.6875 154.72851562 C125.59181214 167.8444924 127.5997876 179.99965621 131.9375 192.4375 C132.17662109 193.16130859 132.41574219 193.88511719 132.66210938 194.63085938 C134.17767489 199.08958114 136.01742156 203.15316935 138.33032227 207.25805664 C139 209 139 209 138 212 C136.42638552 213.39360692 134.79004275 214.71702088 133.125 216 C122.78641837 224.29490852 114.24811173 233.6550346 106.32763672 244.22802734 C105.46548982 245.37871917 104.59762877 246.52515984 103.72314453 247.66650391 C87.89556336 268.35174959 77.63395582 291.92635472 71 317 C70.77699219 317.82242187 70.55398437 318.64484375 70.32421875 319.4921875 C67.28752203 331.77805974 66.64612172 344.52875461 66.68432617 357.12915039 C66.68752461 359.32942674 66.66375344 361.52840001 66.63867188 363.72851562 C66.57400054 377.78119345 69.44579947 392.39579476 79.0234375 403.3046875 C80.9457196 405.02074777 82.87919828 406.53900326 85 408 C85.60714844 408.42925781 86.21429688 408.85851562 86.83984375 409.30078125 C88.20378946 410.2346829 89.59823028 411.12389392 91 412 C90.855625 412.65742188 90.71125 413.31484375 90.5625 413.9921875 C86.37252055 435.46583221 89.47499096 458.09077154 100.8125 477.02734375 C112.72057372 494.14519973 129.53895685 506.13510507 149.96484375 510.65625 C150.63644531 510.7696875 151.30804688 510.883125 152 511 C152 511.33 152 511.66 152 512 C101.84 512 51.68 512 0 512 C0 343.04 0 174.08 0 0 Z " fill="#F6F6F6" transform="translate(0,0)"/>
<path d="M0 0 C2.90657202 1.25143037 4.52984795 3.36754749 6.65185547 5.69384766 C27.16868667 27.11298237 60.23029985 40.61924225 89.68969727 41.99584961 C116.05441055 42.49186255 116.05441055 42.49186255 141.90185547 37.81884766 C142.77438965 37.57215332 143.64692383 37.32545898 144.54589844 37.07128906 C166.36140751 30.7082695 184.82412124 20.93630957 201.34326172 5.20166016 C203.45418559 3.23576159 205.55451882 1.48683746 207.90185547 -0.18115234 C241.0714697 28.70851166 267.94651729 67.15199434 271.74072266 112.25439453 C272.07439473 117.56483607 272.16525845 122.87412932 272.21435547 128.19384766 C272.23199951 129.28713379 272.24964355 130.38041992 272.26782227 131.50683594 C272.25895616 142.10586168 270.38414314 150.9742216 262.90185547 158.81884766 C256.5565078 163.76821884 250.79816259 164.62994869 242.90185547 163.81884766 C234.54760988 161.57079612 229.35307111 154.81660347 225.00732422 147.72900391 C218.20167831 135.36064896 213.9379994 121.68363637 209.19628906 108.4296875 C200.12333471 78.54908157 200.12333471 78.54908157 181.91357422 54.52587891 C178.55595798 53.34582349 175.36492399 53.18109444 171.90185547 53.81884766 C168.68438687 55.82976553 167.27688138 57.30535024 166.35498047 61.02587891 C165.82144992 67.54110778 167.98426063 70.94481342 171.84716797 75.97900391 C181.20273493 88.90960691 185.75746319 104.91270284 190.90185547 119.81884766 C191.90656847 122.69696109 192.91449928 125.57392917 193.9230957 128.45068359 C194.5163076 130.14575537 195.10712307 131.8416685 195.69506836 133.53857422 C196.76469129 136.62123866 197.83781884 139.66515975 199.09326172 142.67822266 C199.90185547 144.81884766 199.90185547 144.81884766 199.90185547 147.81884766 C199.31919922 148.01478516 198.73654297 148.21072266 198.13623047 148.41259766 C181.132907 154.61506785 167.54083817 167.05103861 158.90185547 182.81884766 C158.10328125 184.25357422 158.10328125 184.25357422 157.28857422 185.71728516 C151.5521452 196.56383332 148.56066522 207.70517115 146.90185547 219.81884766 C144.08986393 220.30116336 141.27731913 220.77976201 138.46435547 221.25634766 C137.68125 221.39105469 136.89814453 221.52576172 136.09130859 221.66455078 C125.47421987 223.45591143 115.10472462 224.05706667 104.33935547 224.06884766 C103.61818542 224.07018707 102.89701538 224.07152649 102.1539917 224.07290649 C92.3789899 224.06898795 82.74207049 223.69494739 73.02685547 222.50634766 C72.03613037 222.3887207 71.04540527 222.27109375 70.0246582 222.14990234 C62.47609273 221.09795933 62.47609273 221.09795933 59.90185547 217.81884766 C59.34716797 215.17431641 59.34716797 215.17431641 59.02685547 212.00634766 C56.75891599 195.39323004 48.98700262 180.27358828 37.90185547 167.81884766 C37.27537109 167.10986328 36.64888672 166.40087891 36.00341797 165.67041016 C28.13515508 157.28830153 18.39888704 152.22475839 7.90185547 147.81884766 C8.50461563 143.55820348 9.50750521 139.74704563 10.97607422 135.70556641 C11.39324707 134.54839111 11.81041992 133.39121582 12.24023438 132.19897461 C12.68544434 130.98040771 13.1306543 129.76184082 13.58935547 128.50634766 C14.28011046 126.60296042 14.96950948 124.69908598 15.65875244 122.79515076 C16.33412716 120.93001149 17.01080471 119.06534415 17.6875 117.20068359 C18.94636387 113.69489703 20.15155858 110.17439325 21.34204102 106.64501953 C25.34759119 94.86684561 30.1267578 83.4602824 37.40185547 73.31884766 C40.40418798 69.0162924 41.95889211 65.95744448 41.44091797 60.66259766 C40.62179761 57.86096859 39.25311174 56.47855797 36.90185547 54.81884766 C33.83755771 53.28669878 31.28529127 53.58946218 27.90185547 53.81884766 C15.58132124 59.49020468 8.42277677 81.00117732 3.9050293 93.00976562 C1.53121005 99.49045293 -0.74741512 106.00472568 -3.02270508 112.52050781 C-17.65044701 154.2592958 -17.65044701 154.2592958 -30.91064453 161.81884766 C-36.76168029 164.43805183 -42.12047873 165.02205617 -48.29345703 163.15478516 C-55.26697157 160.10552975 -59.4464288 155.00944361 -62.24267578 148.02587891 C-64.73196798 140.91353126 -64.64874263 134.03332238 -64.53564453 126.56884766 C-64.5462793 124.61398437 -64.5462793 124.61398437 -64.55712891 122.61962891 C-64.49712289 113.30484912 -63.22299585 104.8715928 -61.09814453 95.81884766 C-60.80025024 94.49046875 -60.80025024 94.49046875 -60.49633789 93.13525391 C-52.76939659 59.58065243 -34.68637448 30.73613072 -10.09814453 6.81884766 C-9.41075195 6.1453125 -8.72335938 5.47177734 -8.01513672 4.77783203 C-7.31807617 4.12621094 -6.62101562 3.47458984 -5.90283203 2.80322266 C-5.27103027 2.20735352 -4.63922852 1.61148438 -3.98828125 0.99755859 C-2.09814453 -0.18115234 -2.09814453 -0.18115234 0 0 Z " fill="#F5F5F5" transform="translate(152.09814453125,229.18115234375)"/>
<path d="M0 0 C22.20899823 18.68789653 36.97117049 43.75273716 40.265625 72.79296875 C42.1597121 102.00497652 36.59626449 127.41671637 16.98510742 149.84643555 C11.34558822 156.09169753 5.37441907 161.23889755 -1.734375 165.79296875 C-2.62125 166.38464844 -3.508125 166.97632813 -4.421875 167.5859375 C-13.27562858 173.15642413 -22.82467521 176.61177612 -32.734375 179.79296875 C-33.42144531 180.02177734 -34.10851562 180.25058594 -34.81640625 180.48632812 C-45.55648584 183.92866133 -56.36525148 184.15447748 -67.546875 184.16796875 C-68.60228485 184.17109573 -68.60228485 184.17109573 -69.67901611 184.17428589 C-102.14076319 184.16339936 -130.19408679 173.60487795 -153.48828125 151.13671875 C-170.70576232 133.26208191 -177.90837675 109.94281098 -177.921875 85.60546875 C-177.93412109 84.46271484 -177.94636719 83.31996094 -177.95898438 82.14257812 C-178.00235528 56.56820098 -168.84206355 34.42048554 -152.734375 14.79296875 C-152.16203125 14.06851563 -151.5896875 13.3440625 -151 12.59765625 C-114.15648158 -32.14090183 -43.82984292 -35.6357406 0 0 Z " fill="#F5F5F5" transform="translate(324.734375,66.20703125)"/>
<path d="M0 0 C1.79582822 1.64580817 3.45045844 3.39507887 5.12890625 5.16015625 C11.42022044 11.3463963 20.71795062 15.62271076 29.5 16.25 C30.325 16.4975 31.15 16.745 32 17 C35.08071426 23.36137873 35.54532636 29.05957724 35.5 36.0625 C35.49500488 37.07530029 35.49000977 38.08810059 35.48486328 39.1315918 C35.07905463 56.73669036 27.41665852 70.72772123 15 83 C6.09863832 91.16738975 -3.9655 95.422414 -16.0546875 95.27734375 C-23.87971394 94.54050439 -30.84005662 90.90611166 -36 85 C-42.22119418 76.38716749 -45.58814615 67.57863748 -45.5 56.9375 C-45.49427979 56.11822021 -45.48855957 55.29894043 -45.48266602 54.45483398 C-45.00021135 37.65339077 -37.58908136 22.80767546 -25.70068359 11.09912109 C-19.7781551 5.57598884 -8.39229969 -3.39688321 0 0 Z " fill="#F5F5F5" transform="translate(366,397)"/>
<path d="M0 0 C13.96984231 3.60343596 24.9454157 12.08461684 32.43652344 24.37524414 C41.30873199 39.80892697 44.29227341 54.1725503 39.79980469 71.49658203 C37.57856589 79.35854816 34.09453716 84.71914534 28.02734375 90.1640625 C27.44984375 90.7003125 26.87234375 91.2365625 26.27734375 91.7890625 C18.87489146 96.31278334 11.00790831 97.21444647 2.55859375 95.73046875 C-10.86849498 92.30996039 -22.26516112 82.63142514 -29.36206055 70.92431641 C-32.63393743 65.23416202 -35.29380612 59.52299484 -36.97265625 53.1640625 C-37.318125 52.08382812 -37.66359375 51.00359375 -38.01953125 49.890625 C-40.45045151 40.3861253 -39.89740347 29.54457356 -36.34765625 20.38671875 C-34.97265625 18.1640625 -34.97265625 18.1640625 -31.47265625 16.7265625 C-30.78042969 16.64921875 -30.08820313 16.571875 -29.375 16.4921875 C-19.61722587 15.15941835 -10.43395775 9.16665695 -3.9765625 1.92578125 C-1.97265625 0.1640625 -1.97265625 0.1640625 0 0 Z " fill="#F5F5F5" transform="translate(148.97265625,395.8359375)"/>
<path d="M0 0 C1.134375 0.12375 2.26875 0.2475 3.4375 0.375 C4.28183594 0.46394531 5.12617188 0.55289062 5.99609375 0.64453125 C8.0771271 0.89079137 10.15303181 1.18308747 12.22265625 1.51171875 C33.73391047 4.64831321 56.43113983 3.87066889 77.94970703 1.24365234 C80.89872725 0.89319721 83.85410545 0.6324139 86.8125 0.375 C88.20835997 0.25029781 89.60419882 0.12535848 91 0 C91.49628906 1.19496094 91.99257813 2.38992188 92.50390625 3.62109375 C98.88265011 18.67784091 105.57746672 30.24666495 121.3125 36.8125 C122.29863281 37.19019531 123.28476562 37.56789063 124.30078125 37.95703125 C127 39 127 39 131 41 C73.91 41 16.82 41 -42 41 C-42 40.67 -42 40.34 -42 40 C-40.14375 39.6596875 -40.14375 39.6596875 -38.25 39.3125 C-26.00867516 36.50679603 -15.76053199 31.38363866 -8.70703125 20.65625 C-4.70714793 14.14885731 -1.6572983 7.49236938 0 0 Z " fill="#F5F5F5" transform="translate(210,471)"/>
<path d="M0 0 C1.52947266 -0.02320313 1.52947266 -0.02320313 3.08984375 -0.046875 C9.20938309 -0.01504385 12.85849217 0.41069728 17.5 4.5 C20.84841087 8.37710732 22.12673825 11.30915521 21.8125 16.50390625 C20.65363325 23.90616762 15.82057767 29.61691204 11.5 35.5 C12.86983503 38.66115776 13.4890638 39.4927092 16.5 41.5 C21.29183733 42.15343236 23.67339967 40.90444193 27.70703125 38.40234375 C30.72560046 36.88319454 33.21252359 37.07384565 36.5 37.5 C40.12342508 39.1470114 42.66816086 40.9327343 44.5 44.5 C45.14344236 49.48667829 45.15061786 51.44274598 42.5 55.75 C37.62806456 60.84401797 31.02256954 63.28897049 24.109375 63.703125 C16.90546359 63.7906219 11.1180558 63.62172443 4.5 60.5 C2.03166594 59.59658973 0.9629243 59.33117924 -1.53515625 60.2421875 C-2.20417969 60.61601562 -2.87320313 60.98984375 -3.5625 61.375 C-10.1175791 64.97337356 -16.09180942 65.25094415 -23.5 64.5 C-30.5848934 62.17376116 -36.75438107 57.97778398 -41.375 52.125 C-42.91036553 48.54248044 -43.10057428 46.37036758 -42.5 42.5 C-40.96540552 39.51800391 -39.27013241 37.40693433 -36.5 35.5 C-31.72511504 34.42791875 -27.7016458 34.99859646 -23.5 37.5 C-22.88125 38.20125 -22.2625 38.9025 -21.625 39.625 C-19.57341323 41.78246849 -19.57341323 41.78246849 -16.375 41.9375 C-15.42625 41.793125 -14.4775 41.64875 -13.5 41.5 C-11.25162293 38.77566697 -11.25162293 38.77566697 -11.625 36.1640625 C-12.71259528 32.8527233 -14.37430857 30.63080711 -16.5 27.875 C-20.95780596 22.06393151 -22.3852447 17.7814494 -21.5 10.5 C-16.68248228 0.67967541 -10.00313621 -0.15175428 0 0 Z " fill="#020202" transform="translate(256.5,155.5)"/>
<path d="M0 0 C9.66412213 9.05283729 15.03778241 20.26020514 15.59375 33.4296875 C15.30825735 46.73028616 10.4232829 57.35242475 1.40625 66.9296875 C-0.78125 68.8046875 -0.78125 68.8046875 -2.78125 68.8046875 C-3.14138184 68.06702148 -3.14138184 68.06702148 -3.50878906 67.31445312 C-16.66329138 40.65895172 -34.6228075 19.43624056 -60.78125 4.8046875 C-58.28207736 -1.55684285 -52.3041351 -4.27685812 -46.453125 -7.08984375 C-30.70626077 -13.60499372 -13.22960706 -10.44247074 0 0 Z " fill="#F4F4F4" transform="translate(379.78125,32.1953125)"/>
<path d="M0 0 C1.96807159 1.82036642 2.91610844 3.31916016 3.92578125 5.78125 C3.343125 6.10996094 2.76046875 6.43867187 2.16015625 6.77734375 C-24.33536533 22.14974542 -40.88400422 42.56315614 -54.07421875 69.78125 C-62.5516336 65.75698622 -66.82373481 58.13417035 -70.1640625 49.67578125 C-73.77035822 38.20683222 -73.05095693 26.19936243 -67.9375 15.375 C-61.813467 3.78377035 -52.534972 -3.91874981 -40.07421875 -8.21875 C-25.70073027 -11.77040802 -11.84800867 -8.53211753 0 0 Z " fill="#F4F4F4" transform="translate(189.07421875,31.21875)"/>
<path d="M0 0 C56.43 0 112.86 0 171 0 C171 0.33 171 0.66 171 1 C170.06800781 1.20753906 169.13601563 1.41507812 168.17578125 1.62890625 C151.59540802 5.63569007 138.52031286 13.32359328 128 27 C127.46375 26.89042969 126.9275 26.78085937 126.375 26.66796875 C124.68717369 26.32651705 122.9980602 25.99140113 121.30810547 25.66064453 C119.0399662 25.20768624 116.77602532 24.73333306 114.51611328 24.2409668 C105.27386322 22.32578361 96.46812113 21.52556473 87.03564453 21.60888672 C84.86818086 21.62505085 82.70256627 21.60887752 80.53515625 21.58984375 C69.39665772 21.57337263 59.27411569 23.13867444 48.6875 26.8125 C46.30078125 27.30078125 46.30078125 27.30078125 44 27 C41.29576534 24.80309244 39.29751024 22.40208973 37.13671875 19.671875 C28.10199741 8.37434411 13.53698561 4.14383546 0 1 C0 0.67 0 0.34 0 0 Z " fill="#F4F4F4" transform="translate(170,0)"/>
<path d="M0 0 C4.57681459 1.83072584 6.7481855 4.66317208 9 9 C9.65293024 14.22344192 8.845108 17.58517724 6 22 C3.74113468 24.60111764 2.09474821 25.78439594 -1.30078125 26.453125 C-6.16081111 26.77761865 -9.25474672 26.33576612 -13.0625 23.1875 C-16.30980568 20.09300871 -17.18225057 17.17432344 -17.4375 12.75 C-17.41406345 7.96894285 -15.74345728 5.68882499 -12.5078125 2.3125 C-8.830231 -0.88871084 -4.63715693 -0.43473346 0 0 Z " fill="#030303" transform="translate(311,113)"/>
<path d="M0 0 C4.57681459 1.83072584 6.7481855 4.66317208 9 9 C9.65293024 14.22344192 8.845108 17.58517724 6 22 C3.74113468 24.60111764 2.09474821 25.78439594 -1.30078125 26.453125 C-6.16081111 26.77761865 -9.25474672 26.33576612 -13.0625 23.1875 C-16.30980568 20.09300871 -17.18225057 17.17432344 -17.4375 12.75 C-17.41406345 7.96894285 -15.74345728 5.68882499 -12.5078125 2.3125 C-8.830231 -0.88871084 -4.63715693 -0.43473346 0 0 Z " fill="#030303" transform="translate(207,113)"/>
<path d="M0 0 C-0.33 0.99 -0.66 1.98 -1 3 C-4.63 3 -8.26 3 -12 3 C-12 2.67 -12 2.34 -12 2 C-10.56342755 1.66269158 -9.12569907 1.33030409 -7.6875 1 C-6.88699219 0.814375 -6.08648437 0.62875 -5.26171875 0.4375 C-3 0 -3 0 0 0 Z " fill="#D8D8D8" transform="translate(180,509)"/>
</svg>
