<?xml version="1.0" encoding="UTF-8"?>
<svg version="1.1" xmlns="http://www.w3.org/2000/svg" width="512" height="512">
<path d="M0 0 C168.96 0 337.92 0 512 0 C512 168.96 512 337.92 512 512 C343.04 512 174.08 512 0 512 C0 343.04 0 174.08 0 0 Z " fill="#F6F6F6" transform="translate(0,0)"/>
<path d="M0 0 C4.71572094 0.46791313 9.4319838 0.93016159 14.1484375 1.390625 C15.31122223 1.50471207 16.47400696 1.61879913 17.67202759 1.73634338 C24.74774261 2.4225691 31.82387842 3.03197842 38.9140625 3.546875 C39.75690796 3.60912766 40.59975342 3.67138031 41.46813965 3.73551941 C45.29977019 4.01639308 49.13146054 4.28205649 52.96582031 4.52270508 C69.98173572 5.68715155 86.70186646 9.79522971 98.75 22.6875 C108.49636171 34.57032931 112.52471661 47.22023097 113.6796875 62.30078125 C113.75488617 63.21231461 113.83008484 64.12384796 113.90756226 65.06300354 C114.15233498 68.04157394 114.38872387 71.02074464 114.625 74 C114.96844574 78.22810457 115.31604784 82.45586308 115.6640625 86.68359375 C115.7520813 87.75941711 115.8401001 88.83524048 115.93078613 89.94366455 C116.53677467 97.29172172 117.19857651 104.63298047 117.8984375 111.97265625 C118.03782242 113.44612267 118.03782242 113.44612267 118.18002319 114.94935608 C118.71660284 120.61626387 118.71660284 120.61626387 119.26898193 126.28164673 C121.4049017 147.89756316 123.25225871 167.21234559 108.91015625 185.25390625 C101.93078098 193.11674675 93.80039808 198.8541349 85.1237793 204.67919922 C79.87759291 208.20390884 74.77097475 211.84961388 69.75 215.6875 C63.25773601 220.63962837 56.5808732 225.26085856 49.81640625 229.83203125 C44.68467138 233.31695331 39.68223217 236.92630082 34.75 240.6875 C28.25709201 245.63883225 21.5809284 250.26082126 14.81640625 254.83203125 C9.68467138 258.31695331 4.68223217 261.92630082 -0.25 265.6875 C-5.96300639 270.04409843 -11.79728066 274.16485956 -17.75 278.1875 C-24.450974 282.71593208 -30.97103542 287.41419934 -37.40673828 292.31079102 C-42.53675945 296.1970349 -47.79297424 299.85976221 -53.11450195 303.47753906 C-60.50393982 308.51330412 -67.73037442 313.76902079 -74.96337891 319.02587891 C-85.20547632 326.46851344 -95.4735968 333.86994377 -105.83154297 341.15063477 C-111.99038706 345.48652419 -118.09658354 349.8935 -124.1875 354.32421875 C-128.1539314 357.2029633 -132.15025432 360.00168236 -136.25 362.6875 C-133.19015175 366.34439181 -130.14166998 369.83747857 -126.6875 373.125 C-119.11391348 380.61480791 -116.00548085 388.67673954 -115.75 399.375 C-115.77873897 412.47392183 -122.56549901 420.937096 -131.51025391 429.92871094 C-133.48244159 431.92248586 -135.41783265 433.94920863 -137.35546875 435.9765625 C-148.85860477 447.89218211 -158.47344298 457.4042568 -175.6875 458.0625 C-190.23841961 457.79366084 -199.61551067 447.63938313 -209.25 437.8125 C-210.12011719 436.93335938 -210.99023438 436.05421875 -211.88671875 435.1484375 C-214.01248191 432.9993143 -216.13339889 430.84564069 -218.25 428.6875 C-222.24252683 430.28423059 -224.8723077 433.08161931 -227.80615234 436.11181641 C-228.34995544 436.66496521 -228.89375854 437.21811401 -229.45404053 437.7880249 C-230.63358922 438.98855203 -231.81095123 440.19123066 -232.98637009 441.39580154 C-234.85780756 443.31144921 -236.73721957 445.21891924 -238.61929321 447.12411499 C-243.96985536 452.54165707 -249.31257066 457.96671731 -254.63330078 463.41357422 C-257.89256291 466.74891794 -261.166939 470.06879893 -264.45091629 473.3798027 C-265.68989714 474.63471502 -266.9233432 475.89512055 -268.15067673 477.16142654 C-279.62066097 488.98875177 -291.06761142 496.6073251 -307.25 500.6875 C-307.88526611 500.8625708 -308.52053223 501.0376416 -309.17504883 501.21801758 C-319.0938125 503.46225602 -330.83449125 502.17304891 -340.25 498.6875 C-341.075 498.42066406 -341.9 498.15382813 -342.75 497.87890625 C-357.58590467 492.66315851 -370.08994203 480.50890544 -377.25 466.6875 C-383.94636083 451.00483111 -386.09010122 433.28137802 -380.25 416.87890625 C-374.47212662 403.47956173 -365.91031355 393.78506103 -355.66015625 383.70703125 C-354.34648855 382.40084051 -353.03371348 381.09375147 -351.7217865 379.78581238 C-348.29640493 376.37557251 -344.85917844 372.97752725 -341.41918945 369.58203125 C-337.89906003 366.10310395 -334.39047999 362.61256977 -330.88085938 359.12304688 C-324.01504822 352.29990382 -317.13664494 345.48961036 -310.25 338.6875 C-311.91138174 335.14900085 -313.80337083 332.95112192 -316.64453125 330.23828125 C-317.51787109 329.38943359 -318.39121094 328.54058594 -319.29101562 327.66601562 C-321.12283202 325.90390894 -322.95870799 324.14601166 -324.79882812 322.39257812 C-333.41139919 313.99516313 -339.44506728 305.4693512 -339.6875 293.0625 C-339.41880467 280.27260219 -333.8840134 272.26253591 -325.06640625 263.49804688 C-322.9606571 261.39909046 -320.88737268 259.27009959 -318.8125 257.140625 C-317.23056561 255.52987489 -315.64723039 253.92049935 -314.0625 252.3125 C-312.94065308 251.17047119 -312.94065308 251.17047119 -311.79614258 250.00537109 C-302.63880263 240.83894348 -294.80860365 234.46581321 -281.4375 234.25 C-268.91933921 234.40698108 -261.71741331 238.37575298 -253.07421875 246.93359375 C-250.23864195 249.69857527 -247.31921127 252.18951565 -244.25 254.6875 C-243.53457031 253.66914063 -242.81914062 252.65078125 -242.08203125 251.6015625 C-236.09933377 243.09881876 -230.06582265 234.63577812 -223.97021484 226.21362305 C-217.06095376 216.66708934 -210.22220685 207.07290553 -203.4375 197.4375 C-198.71182493 190.72687395 -193.92201182 184.06509303 -189.10620117 177.41894531 C-185.45049965 172.36735121 -181.83669807 167.28827929 -178.25 162.1875 C-173.54173444 155.49266722 -168.77084202 148.84556296 -163.97143555 142.21582031 C-159.43836278 135.95362326 -154.93824973 129.66859704 -150.45166016 123.37304688 C-148.80498548 121.06328621 -147.15608684 118.75511754 -145.50708008 116.44702148 C-144.25186976 114.69011708 -142.99702827 112.93294962 -141.7421875 111.17578125 C-140.10285274 108.88058461 -138.46214721 106.58637767 -136.8203125 104.29296875 C-132.33494433 98.02478137 -127.87429396 91.74017459 -123.4375 85.4375 C-118.7119186 78.72680892 -113.92201083 72.06509166 -109.10620117 65.41894531 C-105.45049739 60.36734808 -101.83690352 55.28813719 -98.25 50.1875 C-92.44110696 41.93402712 -86.57562687 33.72292842 -80.62451172 25.57128906 C-79.47534008 23.99633198 -78.33258415 22.41669627 -77.19140625 20.8359375 C-57.26556027 -5.94660836 -29.74933069 -3.01573276 0 0 Z " fill="#010101" transform="translate(387.25,6.3125)"/>
<path d="M0 0 C4.23591355 0.47238998 8.47432606 0.92121253 12.71273804 1.37054443 C13.60121933 1.46515961 14.48970062 1.55977478 15.40510559 1.65725708 C22.18712827 2.37136891 28.97439742 3.00518747 35.76742554 3.60491943 C36.75794922 3.69261597 37.7484729 3.7803125 38.76901245 3.8706665 C42.66345671 4.21399818 46.55801321 4.55547449 50.45352173 4.88653564 C77.4283534 7.17977736 77.4283534 7.17977736 82.22445679 11.83148193 C82.84191772 12.40511475 83.45937866 12.97874756 84.09555054 13.56976318 C88.48514266 18.62843863 89.40027198 22.93989536 90.03305054 29.41741943 C90.12907562 30.30439514 90.22510071 31.19137085 90.32403564 32.10522461 C90.63697282 35.03362345 90.93134128 37.96353752 91.22445679 40.89398193 C91.43712247 42.94009194 91.65026454 44.98615248 91.86386108 47.03216553 C93.41329391 62.0563994 94.79415115 77.09674613 96.09945679 92.14398193 C96.23008011 93.63173126 96.23008011 93.63173126 96.36334229 95.14953613 C99.12303465 126.84593351 99.12303465 126.84593351 92.78695679 134.51898193 C86.39925841 140.85388942 78.38534429 145.57433439 70.9571228 150.59564209 C65.12285113 154.55226315 59.55336212 158.71989707 54.00570679 163.06976318 C49.82686401 166.29875084 45.4504096 169.23447402 41.08358765 172.2008667 C33.57158006 177.3159008 26.23327005 182.66481818 18.87973022 188.00384521 C15.30153441 190.59440556 11.70246119 193.15548728 8.10360718 195.71722412 C4.92040991 197.98620023 1.74864587 200.26981416 -1.41226196 202.56976318 C-9.22879001 208.25294808 -17.0911501 213.84169454 -25.08804321 219.26898193 C-31.23636237 223.44222212 -37.24112177 227.72007933 -43.15054321 232.22601318 C-46.82970765 234.9806937 -50.57646894 237.62851099 -54.33804321 240.26898193 C-60.39041782 244.51797092 -66.41073408 248.80719418 -72.40054321 253.14398193 C-82.70915243 260.60527347 -93.05819839 268.00497951 -103.46304321 275.33148193 C-109.41004926 279.51940986 -115.32242011 283.75215015 -121.21304321 288.01898193 C-124.21186406 290.18728466 -127.21203985 292.35370103 -130.21304321 294.51898193 C-130.99373169 295.08278564 -131.77442017 295.64658936 -132.57876587 296.22747803 C-134.89025902 297.8929519 -137.20708226 299.55072616 -139.52554321 301.20648193 C-140.22485962 301.71179443 -140.92417603 302.21710693 -141.64468384 302.73773193 C-142.30275024 303.20566162 -142.96081665 303.67359131 -143.63882446 304.15570068 C-144.21028198 304.56521973 -144.7817395 304.97473877 -145.37051392 305.39666748 C-147.21304321 306.51898193 -147.21304321 306.51898193 -152.21304321 308.51898193 C-158.81304321 301.91898193 -165.41304321 295.31898193 -172.21304321 288.51898193 C-165.46311992 280.64407143 -165.46311992 280.64407143 -162.55989456 277.74837208 C-161.56673276 276.7540738 -161.56673276 276.7540738 -160.55350709 275.73968869 C-159.49035802 274.68295525 -159.49035802 274.68295525 -158.4057312 273.60487366 C-157.63839149 272.83809066 -156.87105178 272.07130765 -156.08045936 271.2812888 C-153.52187778 268.72573083 -150.95974025 266.17376846 -148.39761353 263.62176514 C-146.55740243 261.78511203 -144.71742734 259.94822242 -142.87767029 258.1111145 C-138.92267172 254.16239608 -134.96595434 250.21540693 -131.00815582 246.26949501 C-125.2827491 240.56110327 -119.56108841 234.84896806 -113.84051511 229.13573303 C-104.55365145 219.86079857 -95.26528223 210.58737375 -85.97525024 201.31561279 C-85.41992291 200.76137558 -84.86459558 200.20713837 -84.29244015 199.6361061 C-76.4014222 191.76071801 -68.50892158 183.88681746 -60.61583695 176.01350077 C-60.05929685 175.45835399 -59.50275675 174.90320721 -58.92935181 174.33123779 C-58.37349078 173.7767703 -57.81762976 173.2223028 -57.24492446 172.65103326 C-47.98178315 163.41091397 -38.72249314 154.16694655 -29.46636081 144.91980618 C-23.75910095 139.21840136 -18.04860107 133.52028011 -12.33390775 127.82632592 C-7.96071263 123.46843897 -3.59268266 119.10540927 0.77343178 114.74042892 C2.56722565 112.94878817 4.36274829 111.15887639 6.16009331 109.37079811 C8.60720733 106.9358173 11.04813456 104.49479975 13.48757935 102.05213928 C14.20526828 101.34095815 14.92295721 100.62977703 15.66239429 99.89704496 C16.31407116 99.24200268 16.96574804 98.58696041 17.6371727 97.91206837 C18.20122244 97.34932014 18.76527217 96.78657192 19.34641433 96.20677072 C22.64761125 92.33897557 23.29303021 88.86620051 23.16195679 83.90179443 C22.50109021 79.70253803 20.66568314 76.60799308 17.78695679 73.51898193 C13.08664116 70.73360971 9.21021166 69.84107507 3.78695679 70.51898193 C-2.31057729 73.44935262 -6.58074374 77.46879084 -11.30592346 82.25109863 C-12.09186294 83.03447483 -12.87780241 83.81785103 -13.68755823 84.62496591 C-16.31252431 87.24500071 -18.92664179 89.87559465 -21.54092407 92.50628662 C-23.42306489 94.38927385 -25.30579188 96.2716573 -27.18927002 98.15330505 C-31.23962416 102.20208899 -35.28446547 106.25631304 -39.32557487 110.31432343 C-45.16828523 116.18145353 -51.01929867 122.04024553 -56.87234742 127.89705995 C-66.36915407 137.40042641 -75.85924705 146.9104678 -85.34512329 156.42474365 C-94.55774568 165.66491877 -103.77352535 174.90192609 -112.99356079 184.13470459 C-113.56223788 184.70416985 -114.13091497 185.27363511 -114.7168247 185.8603569 C-117.56983618 188.71728359 -120.42290976 191.57414827 -123.27601421 194.43098211 C-146.93132575 218.11737493 -170.57574299 241.81461517 -194.21304321 265.51898193 C-195.3164254 264.58259884 -196.4184535 263.64462006 -197.51992798 262.70599365 C-198.13376846 262.1838327 -198.74760895 261.66167175 -199.38005066 261.12368774 C-202.09257174 258.74899269 -204.62527515 256.21465593 -207.15054321 253.64398193 C-207.64360962 253.14640381 -208.13667603 252.64882568 -208.64468384 252.13616943 C-209.83650313 250.93277908 -211.02512999 249.72622828 -212.21304321 248.51898193 C-210.58384828 243.41014843 -207.49207404 239.52197185 -204.33804321 235.26898193 C-203.15364617 233.6510801 -201.97007089 232.03257641 -200.78726196 230.41351318 C-200.1883313 229.59576416 -199.58940063 228.77801514 -198.97232056 227.93548584 C-196.32726548 224.30229751 -193.73557007 220.63251631 -191.15054321 216.95648193 C-190.65949097 216.25934082 -190.16843872 215.56219971 -189.6625061 214.84393311 C-188.17844155 212.73625474 -186.69554719 210.62775822 -185.21304321 208.51898193 C-178.5575915 199.05198627 -171.8588365 189.62071149 -165.0687561 180.24969482 C-161.41316565 175.19838303 -157.79952896 170.11955137 -154.21304321 165.01898193 C-149.55167572 158.38975482 -144.82359891 151.81169656 -140.06851196 145.24945068 C-136.41308605 140.19815808 -132.79958167 135.11937668 -129.21304321 130.01898193 C-125.10477974 124.17892948 -120.9594926 118.36756864 -116.77554321 112.58148193 C-116.23542603 111.83438965 -115.69530884 111.08729736 -115.13882446 110.31756592 C-112.41808819 106.55752458 -109.69151982 102.80181741 -106.95913696 99.05023193 C-100.76422547 90.5293188 -94.7256609 81.92371435 -88.80899048 73.20721436 C-85.17996064 67.87967731 -81.414806 62.70776919 -77.50601196 57.58148193 C-74.75133145 53.9023175 -72.10351416 50.1555562 -69.46304321 46.39398193 C-64.67746966 39.5772818 -59.84026086 32.80105315 -54.93984985 26.06634521 C-52.39763497 22.56826366 -49.88277543 19.06000765 -47.45132446 15.48382568 C-34.42954686 -3.56514671 -21.26948195 -2.37277276 0 0 Z " fill="#F5F5F5" transform="translate(378.2130432128906,37.48101806640625)"/>
<path d="M0 0 C3.49775428 1.22809303 5.63063761 3.33603019 8.17724419 5.92207718 C8.70900013 6.44618203 9.24075608 6.97028688 9.78862584 7.51027369 C11.56777921 9.26879061 13.33231118 11.04127831 15.09719658 12.81410599 C16.36966396 14.07787926 17.64296478 15.34081383 18.91703606 16.60297012 C22.37452684 20.03366181 25.81907668 23.47707511 29.26065779 26.92371845 C32.13259959 29.79779764 35.01046733 32.66590631 37.88826764 35.53411746 C44.67439062 42.29804508 51.44979339 49.07258201 58.21877861 55.85365677 C65.20934808 62.85631876 72.21809632 69.84040044 79.23596084 76.81569886 C85.25615384 82.80071166 91.2647242 88.79721896 97.26409256 94.80310607 C100.8494578 98.39210445 104.4391734 101.97646579 108.04018593 105.54977036 C111.42379715 108.90831671 114.79270753 112.28093524 118.15069199 115.66509819 C119.38753696 116.90669339 120.62955619 118.14315797 121.8769722 119.37413216 C123.5750014 121.05137852 125.25360909 122.74590658 126.92846489 124.4462471 C127.42989946 124.9329331 127.93133404 125.41961911 128.4479636 125.92105317 C129.79427719 127.31104279 129.79427719 127.31104279 131.67190361 129.93812943 C131.55641937 134.85326424 128.79801915 137.41101078 125.46487236 140.71156693 C124.94306892 141.23956894 124.42126549 141.76757095 123.88364983 142.31157303 C122.78153718 143.42076994 121.67428783 144.52488364 120.56228447 145.62416458 C118.85964293 147.31289207 117.18242508 149.02430953 115.50588799 150.73891068 C114.43116771 151.8145817 113.35504232 152.88885108 112.27737236 153.96156693 C111.77618385 154.47601364 111.27499535 154.99046036 110.75861931 155.52049637 C109.31326103 156.92787552 109.31326103 156.92787552 106.67190361 158.93812943 C102.46532124 158.79975834 100.03242435 155.72302911 97.24885368 152.90948868 C96.71386861 152.38059471 96.17888354 151.85170074 95.6276868 151.30677968 C93.83402399 149.52978767 92.05128533 147.74222651 90.26833916 145.95448685 C88.98596151 144.67944697 87.70296173 143.40503256 86.41938591 142.13119888 C82.9331973 138.66726133 79.45674646 135.19370444 75.98261428 131.71767974 C73.08479184 128.81973781 70.18264475 125.92614583 67.28059512 123.0324381 C60.43773262 116.20882121 53.60308976 109.37704578 46.77322197 102.54042435 C39.7177566 95.47831118 32.64764836 88.43110169 25.57035416 81.39087027 C19.50107582 75.35223015 13.44144599 69.30402569 7.38941795 63.24809724 C3.77171808 59.62832445 0.15029877 56.01247416 -3.48061752 52.40595436 C-6.89228458 49.01645572 -10.29180599 45.61523765 -13.68218994 42.20445442 C-14.93119453 40.95202263 -16.18451632 39.70387988 -17.44233131 38.46029663 C-19.15330382 36.76736052 -20.8482842 35.05990262 -22.53996468 33.3477211 C-23.04597232 32.85423131 -23.55197996 32.36074151 -24.07332116 31.85229748 C-25.43205929 30.45778561 -25.43205929 30.45778561 -27.32809639 27.93812943 C-27.20781315 23.65085858 -24.02512272 21.15024829 -21.15622139 18.26234818 C-20.63678963 17.73293121 -20.11735786 17.20351425 -19.58218575 16.65805435 C-18.48323718 15.54394383 -17.38020569 14.4338479 -16.27340889 13.32753372 C-14.58199447 11.62954266 -12.91601755 9.90901949 -11.24997139 8.1861763 C-10.17852981 7.10593518 -9.10565947 6.02710893 -8.03122139 4.94984818 C-7.53519417 4.4322644 -7.03916695 3.91468063 -6.5281086 3.38141251 C-2.99869488 -0.07969214 -2.99869488 -0.07969214 0 0 Z " fill="#F4F4F4" transform="translate(107.32809638977051,273.0618705749512)"/>
<path d="M0 0 C3.40353022 1.47122616 5.61255749 3.36942513 8.21777344 5.99072266 C9.03832214 6.81142242 9.85887085 7.63212219 10.70428467 8.47769165 C11.58046448 9.36419403 12.45664429 10.25069641 13.359375 11.1640625 C14.26375305 12.07127045 15.1681311 12.97847839 16.09991455 13.91317749 C18.49796458 16.31884419 20.88994618 18.73045736 23.28070068 21.14337158 C25.72385171 23.60702344 28.17271206 26.06498577 30.62109375 28.5234375 C35.41933788 33.34373573 40.21182732 38.16969843 45 43 C43.4062102 46.91167221 40.72561878 49.57688237 37.79101562 52.51538086 C36.99537201 53.32350975 36.99537201 53.32350975 36.18365479 54.14796448 C34.42995869 55.92573364 32.66871774 57.69577288 30.90625 59.46484375 C29.67745693 60.70260904 28.448739 61.94044893 27.22009277 63.17835999 C24.64133715 65.77360359 22.05822044 68.36442143 19.47265625 70.95288086 C16.17692147 74.25398229 12.89761743 77.57089715 9.62216949 80.89211178 C7.08775336 83.45643271 4.54199652 86.00926715 1.99308777 88.55917549 C0.78026181 89.77618134 -0.42848303 90.99726963 -1.63285828 92.22263908 C-10.40572302 101.13608822 -18.91696739 109.01480617 -32.0625 109.3125 C-41.97736444 109.19145282 -48.82992455 106.08419521 -56.01953125 99.2890625 C-62.45098487 91.85546917 -64.40528999 83.74657911 -64.265625 74.15625 C-62.99242135 59.02759488 -49.0740919 48.92662458 -38.96484375 38.8671875 C-37.83405383 37.73826807 -36.70348849 36.60912364 -35.57313538 35.47976685 C-32.63109937 32.54150636 -29.68607073 29.60626414 -26.74035645 26.67169189 C-23.72153534 23.66319312 -20.70562616 20.65177818 -17.68945312 17.640625 C-11.79577623 11.75759757 -5.89892693 5.87776318 0 0 Z " fill="#F5F5F5" transform="translate(100,367)"/>
</svg>
