<?xml version="1.0" encoding="UTF-8"?>
<svg version="1.1" xmlns="http://www.w3.org/2000/svg" width="512" height="512">
<path d="M0 0 C168.96 0 337.92 0 512 0 C512 168.96 512 337.92 512 512 C343.04 512 174.08 512 0 512 C0 343.04 0 174.08 0 0 Z " fill="#030303" transform="translate(0,0)"/>
<path d="M0 0 C168.96 0 337.92 0 512 0 C512 115.83 512 231.66 512 351 C511.67 351 511.34 351 511 351 C510.92523438 350.19820313 510.85046875 349.39640625 510.7734375 348.5703125 C509.04964108 333.66454342 504.06367208 320.18273542 497.125 306.94140625 C496.81835922 306.35609634 496.51171844 305.77078644 496.19578552 305.16773987 C495.35055619 303.63549409 494.44991087 302.13320947 493.51225281 300.65571594 C489.10790986 293.42203842 488.10749579 287.67013244 488.08203125 279.2890625 C488.03885017 277.53231705 488.03885017 277.53231705 487.99479675 275.74008179 C487.9070902 272.03501703 487.85715126 268.33081311 487.8125 264.625 C487.752095 260.8981802 487.68334154 257.17198408 487.59806824 253.44564819 C487.5467176 251.13655573 487.51037522 248.82706801 487.49092102 246.51748657 C487.47047226 245.47224823 487.4500235 244.42700989 487.42895508 243.35009766 C487.41818436 242.43507477 487.40741364 241.52005188 487.39631653 240.57730103 C486.80907987 236.75842007 485.13295186 234.04943665 482.31420898 231.43847656 C481.41424194 230.79604004 481.41424194 230.79604004 480.49609375 230.140625 C479.83802734 229.66496094 479.17996094 229.18929687 478.50195312 228.69921875 C477.48004883 227.98185547 477.48004883 227.98185547 476.4375 227.25 C475.75236328 226.75628906 475.06722656 226.26257813 474.36132812 225.75390625 C470.8028614 223.1775372 470.8028614 223.1775372 467 221 C467 188.99 467 156.98 467 124 C470.3 122.68 473.6 121.36 477 120 C485.7927547 114.31057049 492.93232559 106.07771469 495.5859375 95.7109375 C497.35815033 84.10795913 496.06030157 74.72487448 490 64.6875 C489.34 63.800625 488.68 62.91375 488 62 C487.46375 61.175 486.9275 60.35 486.375 59.5 C480.24510961 53.0474838 471.22360587 48.57659878 462.34375 47.75390625 C450.33931398 47.46728348 441.55583657 50.37235066 431.8125 57.25 C423.3038592 65.5695599 419.74432351 74.52162833 419.5 86.3125 C419.5738774 97.80356554 423.40081942 106.46591825 431.38671875 114.80078125 C436.56457372 119.15822871 442.61544222 121.87181407 449 124 C449 151.72 449 179.44 449 208 C445.41931339 206.56772536 442.33203515 205.16645249 439 203.3125 C438.0419043 202.78382324 437.08380859 202.25514648 436.09667969 201.71044922 C435.07477539 201.14600098 434.05287109 200.58155273 433 200 C397.57679977 180.68939897 360.22938593 165.27875577 320 160 C319.29206299 159.8976001 318.58412598 159.7952002 317.85473633 159.68969727 C310.57874165 158.73150317 303.26458613 158.79973618 295.9375 158.8125 C294.89946228 158.81390488 294.89946228 158.81390488 293.8404541 158.81533813 C266.00919241 158.89709055 238.98804217 164.49664436 216 181 C215.01257813 181.69222656 214.02515625 182.38445312 213.0078125 183.09765625 C192.06036339 198.43692522 177.05141673 218.21095734 165 241 C163.95255375 242.9659464 162.90370639 244.93114208 161.85481262 246.89631653 C160.23549331 249.93031893 158.61782142 252.96519866 157 256 C156.01531738 256.0093457 155.03063477 256.01869141 154.01611328 256.02832031 C128.22785409 256.31416998 102.4286043 256.72091775 78 266 C76.80503906 266.45246094 75.61007813 266.90492188 74.37890625 267.37109375 C46.11253961 278.79528793 24.71477688 300.25978499 12.61328125 328.05859375 C10.43427201 333.28393595 8.5901853 338.5668669 7 344 C6.73703125 344.80566406 6.4740625 345.61132812 6.203125 346.44140625 C3.26307759 356.02656082 2.28793837 366.08715388 1 376 C0.67 376 0.34 376 0 376 C0 251.92 0 127.84 0 0 Z " fill="#F6F6F6" transform="translate(0,0)"/>
<path d="M0 0 C19.11242553 -0.55904718 37.08313747 1.83073363 55.47558594 7.078125 C56.40048828 7.3369043 57.32539063 7.59568359 58.27832031 7.86230469 C88.98822124 16.54545559 117.69583146 29.78520719 145.16308594 45.953125 C146.18200928 46.55213623 147.20093262 47.15114746 148.25073242 47.76831055 C150.38979603 49.05007035 152.50657081 50.36953887 154.60327148 51.71948242 C157.61854369 53.63388002 160.73022594 55.2018934 163.93579102 56.7746582 C177.96614949 64.13648148 177.96614949 64.13648148 180.54556274 70.87219238 C182.02298829 78.71514742 181.36447443 86.60614337 180.78808594 94.515625 C180.53926276 99.17985864 180.35188886 103.84292502 180.21386719 108.51171875 C180.17824173 109.62328842 180.14261627 110.73485809 180.10591125 111.88011169 C180.01543881 121.84457716 182.83481265 128.0909937 188.47558594 136.078125 C189.29051346 137.55294797 190.08186053 139.04150401 190.83105469 140.55078125 C191.14099365 141.15301514 191.45093262 141.75524902 191.77026367 142.37573242 C198.29621472 155.27595121 202.64825082 167.32262267 202.72558594 181.890625 C202.75652344 183.33018555 202.75652344 183.33018555 202.78808594 184.79882812 C202.79324219 185.74306641 202.79839844 186.68730469 202.80371094 187.66015625 C202.81305664 188.50811768 202.82240234 189.3560791 202.83203125 190.22973633 C202.47558594 193.078125 202.47558594 193.078125 199.47558594 201.078125 C189.57558594 201.078125 179.67558594 201.078125 169.47558594 201.078125 C168.79496094 198.231875 168.11433594 195.385625 167.41308594 192.453125 C164.01599704 179.1645796 158.51180781 168.49306938 149.47558594 158.078125 C148.85683594 157.26214844 148.23808594 156.44617188 147.60058594 155.60546875 C139.6903833 146.1975623 128.69494665 140.53043972 117.47558594 136.078125 C116.43660156 135.64371094 115.39761719 135.20929688 114.32714844 134.76171875 C95.4108274 128.0592692 73.1800703 130.95162403 55.35058594 139.203125 C35.15437831 149.89523492 21.57115692 166.34284147 14.47558594 188.078125 C13.48558594 192.368125 12.49558594 196.658125 11.47558594 201.078125 C-17.23441406 201.078125 -45.94441406 201.078125 -75.52441406 201.078125 C-77.50441406 193.158125 -77.50441406 193.158125 -79.52441406 185.078125 C-80.69865745 181.96489988 -81.81129773 179.14573027 -83.27441406 176.203125 C-83.6144043 175.49897461 -83.95439453 174.79482422 -84.3046875 174.06933594 C-87.30151835 168.08392996 -91.06520014 163.06195233 -95.52441406 158.078125 C-96.45060547 156.85996094 -96.45060547 156.85996094 -97.39550781 155.6171875 C-105.29310867 146.19803052 -116.30603127 140.53005164 -127.52441406 136.078125 C-128.56339844 135.64371094 -129.60238281 135.20929688 -130.67285156 134.76171875 C-149.61427937 128.05037334 -171.88479057 130.94242945 -189.71191406 139.265625 C-210.08994222 150.08642688 -223.01123571 166.01236889 -230.51660156 187.53125 C-231.78087548 191.98071016 -232.6172612 196.54236068 -233.52441406 201.078125 C-246.06441406 201.078125 -258.60441406 201.078125 -271.52441406 201.078125 C-270.39941406 186.453125 -270.39941406 186.453125 -268.96191406 181.265625 C-268.6925 180.26917969 -268.42308594 179.27273438 -268.14550781 178.24609375 C-267.94054687 177.53066406 -267.73558594 176.81523437 -267.52441406 176.078125 C-266.43644531 175.91957031 -265.34847656 175.76101563 -264.22753906 175.59765625 C-249.9585616 173.38752015 -238.13907175 169.69278269 -227.71191406 159.265625 C-221.0464066 149.55302841 -220.8199804 137.47820984 -221.52441406 126.078125 C-222.25131538 122.61689139 -223.22497626 119.36539325 -224.52441406 116.078125 C-199.65705288 99.16831939 -166.8203193 96.05966284 -137.52050781 98.44921875 C-136.74771484 98.51069092 -135.97492188 98.57216309 -135.17871094 98.63549805 C-133.74698344 98.75990697 -132.31680207 98.90450784 -130.88964844 99.07348633 C-127.7049603 99.36450371 -125.72933177 99.18103389 -122.85644531 97.73828125 C-119.44874514 93.85110568 -117.7556796 89.50358998 -115.77441406 84.765625 C-109.58427083 70.59653427 -102.18297627 58.20823848 -92.52441406 46.078125 C-92.11545898 45.56088867 -91.70650391 45.04365234 -91.28515625 44.51074219 C-86.18543597 38.09192567 -80.99660343 32.14684678 -74.52441406 27.078125 C-73.61949219 26.36011719 -72.71457031 25.64210937 -71.78222656 24.90234375 C-50.15914188 8.1935965 -27.08237621 0.8381393 0 0 Z " fill="#F5F5F5" transform="translate(290.5244140625,175.921875)"/>
<path d="M0 0 C0.33 0 0.66 0 1 0 C1 48.51 1 97.02 1 147 C-167.96 147 -336.92 147 -511 147 C-511 105.75 -511 64.5 -511 22 C-509 25 -509 25 -509 27 C-503.2806857 29.42921695 -497.80240057 29.34628672 -491.6953125 29.4140625 C-490.61619598 29.43342865 -489.53707947 29.4527948 -488.42526245 29.4727478 C-484.99192105 29.53233942 -481.55854576 29.57884761 -478.125 29.625 C-475.79165236 29.66319853 -473.45831854 29.70225135 -471.125 29.7421875 C-465.41678968 29.83802417 -459.70849556 29.92313112 -454 30 C-453.66661621 31.23049072 -453.33323242 32.46098145 -452.98974609 33.72875977 C-452.54282504 35.36219168 -452.09571202 36.99557109 -451.6484375 38.62890625 C-451.42986084 39.43767212 -451.21128418 40.24643799 -450.98608398 41.07971191 C-445.50813924 61.01193783 -433.99352902 77.47167305 -416.13378906 88.11181641 C-398.12327393 98.28753062 -378.00419362 102.50855932 -357.5 97.875 C-355.65175547 97.29557936 -353.8182471 96.66761785 -352 96 C-350.81535156 95.5978125 -349.63070312 95.195625 -348.41015625 94.78125 C-328.05663576 87.53258573 -313.04734389 73.33137436 -303.5390625 54.03515625 C-301.09703651 48.52209757 -299.36636324 42.93822971 -297.859375 37.1171875 C-297.58843018 36.08549438 -297.58843018 36.08549438 -297.31201172 35.03295898 C-296.87201099 33.35600258 -296.43562665 31.67809799 -296 30 C-284.6738837 29.97687745 -273.34777297 29.95908536 -262.02163792 29.94818783 C-256.76303336 29.94295881 -251.5044449 29.93586082 -246.24584961 29.92456055 C-241.17546873 29.91373234 -236.10510338 29.90772331 -231.03471184 29.90512276 C-229.09573052 29.90326839 -227.15675009 29.89964755 -225.21777534 29.89426994 C-222.5117824 29.8870604 -219.80585444 29.88600902 -217.09985352 29.88647461 C-216.28993454 29.88287933 -215.48001556 29.87928406 -214.64555359 29.87557983 C-209.11405216 29.88594784 -209.11405216 29.88594784 -208 31 C-207.77448206 32.6852895 -207.57050066 34.37346521 -207.375 36.0625 C-205.39136977 48.40508808 -199.22919562 59.93015575 -192 70 C-191.56558594 70.61875 -191.13117188 71.2375 -190.68359375 71.875 C-179.92125032 85.75360406 -160.90041709 95.61461978 -143.8359375 98.54296875 C-121.60841727 101.19125782 -99.81189245 97.21619149 -81.875 83.1875 C-81.21242188 82.62417969 -80.54984375 82.06085938 -79.8671875 81.48046875 C-78 80 -78 80 -75.8828125 79.05078125 C-73.49571301 77.71856183 -73.11362259 76.45273075 -72 74 C-70.98710091 72.86938561 -69.94214938 71.76705809 -68.875 70.6875 C-58.76250607 59.35052872 -54.12795062 44.56364171 -51 30 C-49.94611084 30.00112793 -48.89222168 30.00225586 -47.80639648 30.00341797 C-43.87161302 29.99972864 -39.93804375 29.9567727 -36.00366211 29.90234375 C-34.30549982 29.88424898 -32.60719107 29.87660338 -30.90893555 29.87988281 C-28.45768372 29.88275902 -26.0094282 29.84725468 -23.55859375 29.8046875 C-22.80726669 29.81378143 -22.05593964 29.82287537 -21.28184509 29.83224487 C-15.99404144 29.68858088 -13.26961929 28.18247455 -9.41842651 24.58480835 C-3.5773401 18.05856082 -1.11381834 8.50726765 0 0 Z " fill="#F6F6F6" transform="translate(511,365)"/>
<path d="M0 0 C1.97033203 -0.00483398 1.97033203 -0.00483398 3.98046875 -0.00976562 C10.31199451 0.02551643 15.54797239 0.42469349 21.625 2.3125 C23.08625841 2.64631082 24.55077694 2.96651538 26.01953125 3.265625 C64.25549145 11.58447518 103.15371355 36.74636354 129.625 65.3125 C130.81595575 68.88536725 130.95745458 70.51830295 129.5 74 C127.31141316 76.6992571 125.77928298 77.82626363 122.625 79.3125 C119.63629903 79.60308672 116.85765168 79.7305388 113.87063599 79.71363831 C112.54856528 79.72383331 112.54856528 79.72383331 111.19978607 79.73423427 C108.2465148 79.75322432 105.2936576 79.75076827 102.34033203 79.74829102 C100.22289496 79.75726738 98.1054628 79.76747534 95.98803711 79.77882385 C90.23595429 79.80533962 84.48400533 79.81235797 78.73186731 79.81427121 C73.93060766 79.81711942 69.1293792 79.82815531 64.32813156 79.8387875 C53.00112762 79.86321922 41.67419522 79.87054035 30.34716797 79.8684082 C18.66079948 79.8666055 6.97484629 79.89826809 -4.71141708 79.94563919 C-14.74383592 79.98485786 -24.77611897 80.00096024 -34.8086139 79.99904197 C-40.80102326 79.99827681 -46.79306354 80.00684151 -52.78539658 80.03857613 C-58.42116379 80.06760745 -64.05620876 80.06786607 -69.69200134 80.04602623 C-71.7595996 80.04288719 -73.82724272 80.04998665 -75.89476395 80.0681076 C-78.71958207 80.09126116 -81.54190444 80.0773467 -84.3666687 80.05421448 C-85.18331304 80.06964517 -85.99995739 80.08507586 -86.84134853 80.10097414 C-92.28464519 80.00258419 -95.09936038 78.56019259 -99.08720696 74.86747879 C-100.375 73.3125 -100.375 73.3125 -101.125 70.5625 C-97.08878736 53.07224522 -80.97140783 35.31798396 -67.375 24.3125 C-66.51390625 23.60222656 -65.6528125 22.89195312 -64.765625 22.16015625 C-46.07531603 7.3847093 -23.79052581 -0.29708449 0 0 Z " fill="#050505" transform="translate(297.375,193.6875)"/>
<path d="M0 0 C0.99644531 0.35191406 1.99289063 0.70382812 3.01953125 1.06640625 C9.98914846 3.72275092 15.45735832 7.03177755 21 12 C21.75023437 12.64582031 22.50046875 13.29164063 23.2734375 13.95703125 C34.48795773 24.27209338 41.40680573 38.66086345 42.203125 53.8828125 C42.51449891 70.55796223 38.85153605 85.58866622 27.5625 98.4375 C26.0632716 99.97963561 24.54351854 101.50219542 23 103 C22.36320312 103.64582031 21.72640625 104.29164063 21.0703125 104.95703125 C9.31743074 116.14909085 -6.81644911 120.5662217 -22.66015625 120.27734375 C-38.6408377 119.56051336 -52.66235774 111.95972085 -64 101 C-68.91699572 95.20850504 -73.03260068 89.00075762 -76 82 C-76.28617187 81.33226562 -76.57234375 80.66453125 -76.8671875 79.9765625 C-81.93450647 67.38065535 -82.1500636 49.60410301 -77 37 C-68.61135991 17.40108633 -55.45219847 6.67463683 -36.12109375 -1.16796875 C-24.6585758 -4.89547459 -11.19779418 -4.16778887 0 0 Z " fill="#F4F4F4" transform="translate(155,328)"/>
<path d="M0 0 C3.20328347 2.67419535 6.22348027 5.43684713 9.0625 8.5 C9.85914063 9.27150391 9.85914063 9.27150391 10.671875 10.05859375 C14.76909166 14.27365071 17.40188838 18.72359353 19.875 24 C20.16487793 24.61665527 20.45475586 25.23331055 20.75341797 25.86865234 C27.51553569 40.96686333 26.79741543 58.16533483 21.0625 73.5 C14.62466208 88.22322103 3.88381732 99.87612395 -10.9375 106.375 C-28.2797211 112.87552127 -44.67598789 113.70384954 -61.97265625 106.1796875 C-76.95616579 98.46665727 -88.29911919 86.53069054 -93.9375 70.5 C-98.59915755 55.76010305 -98.97018009 38.88694964 -92.12890625 24.75 C-82.60207933 6.7583531 -70.11228516 -3.76501023 -50.71484375 -10.2421875 C-33.99800782 -14.80416515 -13.71383195 -10.4443091 0 0 Z " fill="#F4F4F4" transform="translate(416.9375,336.5)"/>
<path d="M0 0 C0.99257813 0.7940625 1.98515625 1.588125 3.0078125 2.40625 C3.0078125 2.73625 3.0078125 3.06625 3.0078125 3.40625 C-52.7621875 3.40625 -108.5321875 3.40625 -165.9921875 3.40625 C-154.99950213 -15.8309494 -136.06795688 -29.19834412 -114.9921875 -35.59375 C-72.53202119 -46.49449663 -33.03294475 -25.02048941 0 0 Z " fill="#F5F5F5" transform="translate(388.9921875,250.59375)"/>
<path d="M0 0 C1.40179846 0.74318383 2.77940095 1.53433104 4.125 2.375 C4.75019531 2.76429688 5.37539062 3.15359375 6.01953125 3.5546875 C12.24319089 8.13768741 16.25940003 15.50067884 17.6015625 23.05859375 C17.88460036 31.30528782 15.26970972 38.94411285 10.125 45.375 C3.56819561 52.19942906 -2.4543403 54.50082396 -11.875 54.8125 C-17.84999748 54.67206202 -22.01291023 53.84792126 -26.875 50.375 C-27.926875 49.6325 -28.97875 48.89 -30.0625 48.125 C-36.84651924 41.49173674 -39.0073488 35.49286257 -39.1875 26.125 C-39.20753323 19.95253903 -38.52133126 15.4265619 -34.875 10.375 C-34.215 9.34375 -33.555 8.3125 -32.875 7.25 C-24.61910379 -1.91203116 -11.26903546 -4.51526718 0 0 Z " fill="#030303" transform="translate(146.875,359.625)"/>
<path d="M0 0 C7.26123511 4.64333251 12.51409037 9.89726603 15.05859375 18.31640625 C16.35194239 27.63309468 15.07071847 35.98231417 9.36328125 43.5703125 C3.86302486 49.61614088 -2.07739612 52.81263377 -10.22265625 53.65625 C-16.58360982 53.83861679 -21.41982922 53.51892093 -26.94140625 50.31640625 C-27.52277344 49.98769531 -28.10414063 49.65898437 -28.703125 49.3203125 C-34.29946045 45.81198073 -38.85605818 40.37322555 -40.58203125 33.921875 C-41.90858025 24.30439473 -41.5922807 16.44222065 -35.94140625 8.31640625 C-27.30749497 -2.82412444 -12.83705688 -6.76006482 0 0 Z " fill="#030303" transform="translate(393.94140625,360.68359375)"/>
<path d="M0 0 C4.20305855 3.20233032 8.24079315 7.23158631 10.625 12 C11.9937905 26.17304591 11.9937905 26.17304591 8.125 31.625 C6.4453125 33.4140625 6.4453125 33.4140625 4.625 35 C3.75488281 35.78503906 3.75488281 35.78503906 2.8671875 36.5859375 C-1.97387044 40.25217803 -6.56973686 40.69957547 -12.54296875 40.4140625 C-19.09693473 39.45582747 -23.12663865 35.79942874 -27.15234375 30.7109375 C-30.84482215 25.54382715 -31.24147377 20.19436566 -30.375 14 C-28.32543161 7.79159866 -24.62319938 3.3962132 -19.04296875 0.03125 C-12.86193437 -2.35790531 -6.26184463 -1.85536137 0 0 Z " fill="#F4F4F4" transform="translate(467.375,67)"/>
<path d="M0 0 C2.77106101 1.73882542 3.35133775 2.97745254 5 6 C5.68359886 10.32945942 5.5279283 12.19050994 3.125 15.875 C0.02828283 18.97171717 0.02828283 18.97171717 -2.98828125 19.0546875 C-7.10997212 18.73603577 -9.58283967 18.26698261 -13.125 16 C-15.43626644 12.30197369 -15.40946498 10.29624095 -14.625 6.09375 C-12.50949215 -0.99320129 -6.48449076 -1.37232357 0 0 Z " fill="#EEEEEE" transform="translate(386,377)"/>
<path d="M0 0 C2.16015625 0.47265625 2.16015625 0.47265625 5.22265625 2.41015625 C7.82692148 6.52657548 8.20719628 9.72664695 7.16015625 14.47265625 C5.16787921 17.52333047 3.82332751 19.06692294 0.22265625 19.9453125 C-3.96156829 20.25437454 -5.4555624 19.79152801 -8.77734375 17.03515625 C-9.45796875 16.18953125 -10.13859375 15.34390625 -10.83984375 14.47265625 C-11.16984375 14.14265625 -11.49984375 13.81265625 -11.83984375 13.47265625 C-12.31568521 8.71424164 -12.52235364 6.52944576 -9.90234375 2.47265625 C-6.33177529 0.14085644 -4.19482315 -0.2731187 0 0 Z " fill="#F1F1F1" transform="translate(137.83984375,376.52734375)"/>
<path d="M0 0 C2.56251189 2.56251189 2.29778372 3.63106591 2.3125 7.1875 C2.15783632 13.76929899 0.82423458 18.53679904 -4 23.1875 C-8.4351171 26.74513157 -13.6253406 28.34775389 -19 30 C-19.33 29.34 -19.66 28.68 -20 28 C-15.85542899 17.70421047 -7.98710428 7.63743842 0 0 Z " fill="#EBEBEB" transform="translate(50,304)"/>
<path d="M0 0 C0.66 0.33 1.32 0.66 2 1 C1.80664062 1.92039062 1.61328125 2.84078125 1.4140625 3.7890625 C-0.37783284 12.50015766 -1.8445716 21.17796437 -3 30 C-3.33 30 -3.66 30 -4 30 C-4 20.76 -4 11.52 -4 2 C-2.68 1.34 -1.36 0.68 0 0 Z " fill="#EDEDED" transform="translate(4,346)"/>
<path d="M0 0 C0.33 0 0.66 0 1 0 C1 5.94 1 11.88 1 18 C-0.65 18.66 -2.3 19.32 -4 20 C-4.66 20.33 -5.32 20.66 -6 21 C-4.90854848 17.64168765 -3.74177666 14.34237218 -2.4375 11.0625 C-1.02726784 7.36598237 -0.40923293 3.92863611 0 0 Z " fill="#E4E4E4" transform="translate(511,365)"/>
<path d="M0 0 C3.465 1.98 3.465 1.98 7 4 C7 4.66 7 5.32 7 6 C5.02 6 3.04 6 1 6 C0.67 4.02 0.34 2.04 0 0 Z " fill="#E6E6E6" transform="translate(118,408)"/>
</svg>
