<?xml version="1.0" encoding="UTF-8"?>
<svg version="1.1" xmlns="http://www.w3.org/2000/svg" width="512" height="512">
<path d="M0 0 C168.96 0 337.92 0 512 0 C512 168.96 512 337.92 512 512 C343.04 512 174.08 512 0 512 C0 343.04 0 174.08 0 0 Z " fill="#F6F6F6" transform="translate(0,0)"/>
<path d="M0 0 C3.17406832 2.37536485 5.88245377 4.61339867 8.31640625 7.76171875 C10.79657495 10.76784645 13.61495702 13.01769968 16.703125 15.3515625 C17.94753283 16.31131058 19.19098246 17.27230203 20.43359375 18.234375 C21.08505371 18.73743164 21.73651367 19.24048828 22.40771484 19.75878906 C25.97795813 22.53895941 29.49884195 25.37925506 33.015625 28.2265625 C33.68174805 28.76152344 34.34787109 29.29648437 35.03417969 29.84765625 C35.6687207 30.36199219 36.30326172 30.87632813 36.95703125 31.40625 C37.51205322 31.85468262 38.0670752 32.30311523 38.63891602 32.76513672 C39.53694946 33.55041748 39.53694946 33.55041748 40.453125 34.3515625 C41.30314181 35.05672343 42.15315863 35.76188437 43.02893353 36.48841381 C46.12333837 40.14313386 46.0710181 42.00487224 46.05439758 46.74836731 C46.05866971 47.48359531 46.06294183 48.2188233 46.06734341 48.97633094 C46.07556657 51.43512103 46.04810215 53.89219772 46.02075195 56.35083008 C46.01934133 58.11509155 46.02013375 59.87935596 46.02296448 61.64361572 C46.02439947 66.43061424 45.99499627 71.21698674 45.96009469 76.00383973 C45.92884503 81.00730356 45.92590154 86.01078164 45.91996765 91.014328 C45.90442514 100.4880712 45.86339107 109.96152602 45.8132202 119.43514222 C45.7573395 130.2209856 45.72984343 141.00684273 45.70474303 151.79279482 C45.65247565 173.97921169 45.56452534 196.16536893 45.453125 218.3515625 C46.401875 218.6196875 47.350625 218.8878125 48.328125 219.1640625 C51.453125 220.3515625 51.453125 220.3515625 53.453125 223.3515625 C53.68449402 226.39189148 53.68449402 226.39189148 53.66088867 230.17456055 C53.65969025 230.86440536 53.65849182 231.55425018 53.65725708 232.26499939 C53.65410766 233.76279233 53.64679652 235.26058096 53.6358242 236.75833702 C53.62096227 239.13430059 53.62257287 241.50970185 53.62947083 243.88569641 C53.6482925 250.64101734 53.65487025 257.3959059 53.60766602 264.15112305 C53.57997206 268.28524908 53.58648606 272.41814931 53.61467934 276.55225563 C53.61892323 278.12262524 53.61054218 279.69308451 53.5889492 281.26331139 C53.18111044 289.88933477 53.18111044 289.88933477 56.04273987 297.72348022 C57.3008237 298.97143137 58.57869806 300.1998098 59.87736511 301.4054718 C63.09206388 305.37568035 62.29321541 310.49639485 62.14453125 315.3671875 C62.14162331 317.06726959 62.14162331 317.06726959 62.13865662 318.80169678 C62.13072939 322.40279725 62.07801062 326.00102111 62.015625 329.6015625 C61.95865016 333.21621921 61.9123012 336.82916359 61.90330505 340.4442749 C61.89755324 342.6882226 61.8642339 344.9323062 61.8004303 347.175354 C61.79193705 350.02382792 61.83140399 352.57153662 62.453125 355.3515625 C65.16704643 358.06958149 65.16704643 358.06958149 68.453125 359.3515625 C81.70972916 369.42573864 90.29332847 384.01778926 93.453125 400.3515625 C95.39940614 417.30856015 91.89114622 434.56276772 81.453125 448.3515625 C70.68760915 461.74330288 56.57181432 471.14963419 39.453125 474.3515625 C22.17320521 476.20789834 4.87593248 472.91925042 -9.14453125 462.12109375 C-22.9611231 450.93318063 -32.52586464 435.68429444 -34.87646484 417.85107422 C-36.38015117 399.98920753 -31.6608604 383.42602752 -20.16796875 369.4609375 C-17.38155898 366.33014001 -14.50988625 363.31457375 -11.546875 360.3515625 C-11.546875 349.4615625 -11.546875 338.5715625 -11.546875 327.3515625 C-28.046875 343.8515625 -44.546875 360.3515625 -61.546875 377.3515625 C-60.886875 378.6715625 -60.226875 379.9915625 -59.546875 381.3515625 C-58.03798031 384.36935187 -58.04661224 385.97478887 -58.546875 389.3515625 C-59.82977295 391.12806702 -59.82977295 391.12806702 -61.54980469 393.02368164 C-62.18768921 393.72695587 -62.82557373 394.4302301 -63.48278809 395.15481567 C-66.92847102 398.8219544 -70.44463943 402.41196288 -74 405.97265625 C-75.17305695 407.1507058 -75.17305695 407.1507058 -76.36981201 408.35255432 C-78.00890606 409.9966757 -79.64932514 411.63947708 -81.29101562 413.28100586 C-83.80887429 415.80107231 -86.31860195 418.32905783 -88.828125 420.85742188 C-90.42659428 422.45882164 -92.02553577 424.05975023 -93.625 425.66015625 C-94.37501282 426.41735458 -95.12502563 427.17455292 -95.89776611 427.95469666 C-96.59569275 428.64954666 -97.29361938 429.34439667 -98.01269531 430.06030273 C-98.62445618 430.67348862 -99.23621704 431.2866745 -99.86651611 431.91844177 C-103.24827239 434.80262625 -106.70098216 434.47516052 -110.94389343 434.47181702 C-111.59574153 434.47267144 -112.24758963 434.47352587 -112.9191907 434.47440618 C-115.10720637 434.47605558 -117.29514567 434.47054845 -119.4831543 434.46508789 C-121.05007933 434.46480588 -122.61700449 434.46496403 -124.18392944 434.4655304 C-128.44189199 434.46581781 -132.69982649 434.45993002 -136.95778251 434.45295644 C-141.4060831 434.4467137 -145.8543843 434.44611837 -150.3026886 434.44493103 C-158.72805353 434.44182044 -167.15340551 434.4336107 -175.57876474 434.42358154 C-185.16994389 434.41241198 -194.76112365 434.40690782 -204.35230768 434.40188611 C-224.08383735 434.39142787 -243.81535536 434.37383367 -263.546875 434.3515625 C-263.85230225 435.29612305 -264.15772949 436.24068359 -264.47241211 437.21386719 C-269.23966292 451.13540944 -281.80179385 461.79972615 -294.546875 468.3515625 C-301.50347893 471.541748 -308.84924074 474.12825229 -316.546875 474.3515625 C-318.26777344 474.46177734 -318.26777344 474.46177734 -320.0234375 474.57421875 C-337.39387321 475.38721121 -353.24712027 469.38269921 -366.234375 457.7890625 C-378.69822837 446.06190799 -386.48197436 429.84336199 -387.15576172 412.66992188 C-387.27517327 393.63644502 -380.31424016 377.99789625 -367.44140625 364.07421875 C-356.33332576 353.18941626 -342.49262893 348.37251276 -327.546875 345.3515625 C-328.0315625 344.75214844 -328.51625 344.15273438 -329.015625 343.53515625 C-331.10661662 340.55335952 -331.13031139 338.92511038 -330.546875 335.3515625 C-327.94464007 331.53495127 -325.43338677 330.0606768 -321.046875 329.0390625 C-301.8339008 326.04594337 -283.73565401 330.41558673 -268.046875 341.7265625 C-255.65929249 351.64669971 -247.5590972 363.92403555 -243.546875 379.3515625 C-243.51219726 381.68463813 -243.50772307 384.01855766 -243.546875 386.3515625 C-230.18785843 387.57916123 -216.83250998 388.3558444 -203.421875 388.7265625 C-202.43877728 388.75391479 -201.45567955 388.78126709 -200.44279099 388.80944824 C-176.75908026 389.35877171 -156.47033222 388.88588291 -138.52374268 372.02767944 C-130.64405956 364.27995894 -123.47952453 355.5047763 -117.15727234 346.45205688 C-111.79446155 338.83661227 -111.79446155 338.83661227 -107.73217773 338.12109375 C-104.15495439 338.37991944 -102.53938321 339.4913547 -99.546875 341.3515625 C-96.27038759 340.16485533 -94.06994629 338.16627705 -91.57991028 335.77987671 C-90.41267677 334.66662521 -90.41267677 334.66662521 -89.22186279 333.53088379 C-87.9553891 332.30782532 -87.9553891 332.30782532 -86.66333008 331.06005859 C-85.76702377 330.20098907 -84.87071747 329.34191956 -83.94725037 328.45681763 C-75.67380905 320.50699084 -67.4673753 312.48752247 -59.28423023 304.44486046 C-53.24750569 298.51391486 -47.17667136 292.62310791 -41.05497438 286.77988374 C-36.73913885 282.65379773 -32.46931215 278.48333588 -28.22931403 274.27937758 C-25.70321532 271.77731473 -23.16200918 269.29811953 -20.56836891 266.86597824 C-7.0713463 254.47147232 -7.0713463 254.47147232 -2.07786846 237.49170876 C-2.10309563 234.40515912 -2.30040952 231.37796009 -2.54789734 228.30239868 C-2.80820866 224.24636164 -2.76701993 223.6581532 -0.26203918 220.16952515 C2.453125 218.3515625 2.453125 218.3515625 5.453125 218.3515625 C5.5094054 198.11516973 5.52007393 177.87924284 5.47647095 157.64281273 C5.45728808 148.24658654 5.45302024 138.85079591 5.48388672 129.45458984 C5.51075289 121.26460963 5.50961178 113.07519362 5.47486591 104.88523448 C5.45744533 100.54863903 5.45403161 96.21305424 5.48416138 91.87650681 C5.51208822 87.79331869 5.50252391 83.7119228 5.46438789 79.62883377 C5.45697853 78.13167957 5.46318594 76.63438545 5.48414421 75.13735962 C5.79732416 67.16646882 5.79732416 67.16646882 2.75268555 60.07445145 C-0.05686096 57.80103809 -2.05898088 56.25610513 -5.76171875 56.49365807 C-7.18545938 56.84218846 -8.59639244 57.2445472 -9.99609375 57.6796875 C-17.53236811 59.66473986 -25.58082601 59.24711581 -32.4921875 55.6015625 C-33.17023438 55.1890625 -33.84828125 54.7765625 -34.546875 54.3515625 C-35.24554688 53.9390625 -35.94421875 53.5265625 -36.6640625 53.1015625 C-44.04566249 48.1990659 -48.19580802 40.78334361 -50.546875 32.3515625 C-51.42742777 24.19109094 -50.84904339 17.4012216 -46.546875 10.3515625 C-46.12277344 9.65289062 -45.69867188 8.95421875 -45.26171875 8.234375 C-34.75987458 -7.26974034 -15.44098175 -9.99400966 0 0 Z " fill="#020202" transform="translate(402.546875,21.6484375)"/>
<path d="M0 0 C0.98024114 -0.00427212 1.96048228 -0.00854425 2.97042769 -0.01294583 C6.25822963 -0.02118802 9.54475865 0.00633064 12.83244324 0.03364563 C15.1878303 0.03505583 17.54321956 0.03426468 19.89860535 0.03143311 C26.29705748 0.02999647 32.69504251 0.05942716 39.09338593 0.09430289 C45.10132959 0.12474637 51.10932923 0.12741716 57.11733647 0.13256226 C69.01643813 0.14350212 80.91536828 0.17676784 92.81437683 0.22407532 C104.37231082 0.26997895 115.9301982 0.30536688 127.48820496 0.32661438 C128.20078328 0.327928 128.91336161 0.32924161 129.64753322 0.33059504 C133.22237278 0.33712028 136.79721267 0.34343881 140.37205279 0.34965456 C170.02326995 0.40147795 199.6743084 0.48990677 229.32536316 0.60127258 C228.93320264 1.05010075 228.54104211 1.49892893 228.13699794 1.96135795 C225.80552837 4.65138263 223.54696705 7.27925919 221.5267067 10.21490669 C218.28029738 14.44099943 215.24775388 16.7031498 209.9542923 17.41837692 C204.24620144 17.86658235 198.54104894 17.77290731 192.82048035 17.7023468 C190.62038394 17.70799772 188.4202946 17.71753892 186.2202301 17.73066711 C180.26138253 17.75456266 174.3040448 17.72230097 168.34535885 17.67847586 C162.107036 17.64074926 155.86876714 17.6502019 149.63035583 17.65330505 C139.15930729 17.65138017 128.68880852 17.61453359 118.21794128 17.55488586 C107.44893054 17.49356693 96.68048605 17.46529322 85.91130066 17.47285461 C72.92011916 17.48190495 59.92920271 17.4663843 46.9380722 17.4261055 C41.97962481 17.41086293 37.02128276 17.40449654 32.06281281 17.40501022 C26.22832701 17.40388081 20.39448336 17.37749351 14.56018448 17.33145142 C12.41761098 17.31843465 10.27496684 17.31390873 8.13235855 17.31842422 C5.21087196 17.32311146 2.29123524 17.29710787 -0.63002014 17.2631073 C-1.48088928 17.27153243 -2.33175841 17.27995756 -3.20841146 17.288638 C-7.51339377 17.20357075 -9.18944675 16.97866403 -12.70086288 14.24740791 C-14.67463684 11.60127258 -14.67463684 11.60127258 -15.29963684 8.60127258 C-13.5386402 0.14848871 -7.24193785 -0.11522423 0 0 Z " fill="#F6F6F6" transform="translate(78.67463684082031,423.3987274169922)"/>
<path d="M0 0 C8.2226175 3.91543103 12.62614325 11.82894068 16 20 C20.19227689 31.97793396 18.86663018 45.69041264 13.55859375 57.09765625 C6.34625254 70.33422678 -3.4370688 77.85584546 -17.44140625 82.875 C-30.43790046 86.3215841 -43.6518874 83.74792879 -55.25 77.3125 C-66.52801073 69.9461494 -73.89787458 59.56570727 -77.4375 46.5625 C-79.90123767 31.69702663 -76.92768906 20.52918851 -69.46484375 7.80078125 C-68.98144531 7.20652344 -68.49804688 6.61226563 -68 6 C-67.01 6 -66.02 6 -65 6 C-64.83918945 6.71953857 -64.67837891 7.43907715 -64.51269531 8.18041992 C-60.68488034 34.01919184 -60.68488034 34.01919184 -46.75390625 54.55859375 C-39.66557746 58.6672638 -33.19698046 60.07007476 -25 59 C-16.99148111 56.3304937 -10.93801 52.5507543 -7 45 C-3.59195224 35.80397148 -2.85904658 25.98672395 -1.8125 16.3125 C-1.63425572 14.72452026 -1.45522483 13.1366286 -1.27539062 11.54882812 C-0.84119795 7.70017276 -0.41762264 3.85048715 0 0 Z " fill="#F3F3F3" transform="translate(462,396)"/>
<path d="M0 0 C4.34643609 4.23472862 6.71078167 11.16183243 8 17 C8.01898552 18.66655853 8.02116942 20.33346778 8 22 C6.38158203 22.01401855 6.38158203 22.01401855 4.73046875 22.02832031 C0.69702062 22.06843208 -3.33568163 22.13424773 -7.36865234 22.20751953 C-9.10846314 22.23560703 -10.84839865 22.25688194 -12.58837891 22.27099609 C-15.1012297 22.29259653 -17.61260033 22.33932986 -20.125 22.390625 C-20.89303955 22.39185364 -21.6610791 22.39308228 -22.45239258 22.39434814 C-29.04964213 22.57010485 -34.25844432 24.59755661 -39.2421875 28.96484375 C-39.78101562 29.61582031 -40.31984375 30.26679688 -40.875 30.9375 C-41.42929687 31.58589844 -41.98359375 32.23429687 -42.5546875 32.90234375 C-46.50168803 38.63082831 -46.72371141 44.24536013 -46 51 C-44.21036653 58.15853388 -40.0636927 62.92366282 -34 67 C-30.33862384 68.71534127 -27.4145021 69.26324825 -23.38354492 69.31884766 C-21.73239937 69.34865219 -21.73239937 69.34865219 -20.04789734 69.37905884 C-18.8706459 69.39061005 -17.69339447 69.40216125 -16.48046875 69.4140625 C-15.26676102 69.43342865 -14.05305328 69.4527948 -12.80256653 69.4727478 C-8.93094889 69.53246571 -5.05930139 69.57889855 -1.1875 69.625 C1.439466 69.66318688 4.06641957 69.70223902 6.69335938 69.7421875 C13.12879585 69.83816102 19.56430732 69.92323153 26 70 C22.07042003 80.46364899 13.07068683 86.19115905 3.3125 90.66015625 C-9.45589674 95.82473182 -22.27866436 95.20197292 -35 90 C-48.06434238 83.8333305 -55.62270807 74.09187268 -61 61 C-65.20050321 49.27984597 -63.60642695 36.46260582 -58.81640625 25.22265625 C-52.4351634 12.33363033 -42.03265244 4.17704838 -28.69921875 -0.87109375 C-19.73895173 -3.317871 -8.66755323 -3.25824081 0 0 Z " fill="#F4F4F4" transform="translate(95,386)"/>
<path d="M0 0 C13.2 0 26.4 0 40 0 C40.53677193 20.12894741 39.7927454 39.28446795 37.3125 59.25 C37.19034119 60.28826935 37.06818237 61.3265387 36.94232178 62.39627075 C36.58609237 65.37726618 36.19917443 68.35250244 35.80078125 71.328125 C35.64258156 72.66208565 35.64258156 72.66208565 35.48118591 74.022995 C34.64883346 79.80703055 33.25857132 82.93483493 29 87 C25.34711807 88.21762731 22.84245864 88.39075851 19 88 C13.9416 85.32202353 12.59593892 82.58468586 10.875 77.1875 C10.22555332 74.79817763 9.60171615 72.40178684 9 70 C8.68417969 68.80117188 8.36835938 67.60234375 8.04296875 66.3671875 C7.36293518 63.72833214 6.70883497 61.0925333 6.08203125 58.44140625 C5.34595146 55.33930604 4.51635397 52.27916184 3.63671875 49.21484375 C-0.90323225 32.57946076 -0.36785788 17.21574864 0 0 Z " fill="#F5F5F5" transform="translate(408,352)"/>
<path d="M0 0 C7.92 0 15.84 0 24 0 C24.01458252 1.97315186 24.02916504 3.94630371 24.04418945 5.97924805 C24.09587701 12.50529955 24.16117272 19.03110443 24.23571491 25.5569334 C24.28040455 29.51278832 24.31966357 33.46854058 24.34643555 37.42456055 C24.37248289 41.24378758 24.41289485 45.0626193 24.46318626 48.88160133 C24.47984542 50.33715706 24.49136565 51.79278116 24.49761391 53.24841881 C24.50726585 55.29062518 24.53533523 57.33182247 24.56762695 59.3737793 C24.58428154 61.11584908 24.58428154 61.11584908 24.60127258 62.89311218 C25.17789704 67.38617546 26.88219632 69.97800806 30.1875 73 C32 75 32 75 32 80 C18.8 80 5.6 80 -8 80 C-8 75 -8 75 -6.72265625 73.3046875 C-6.17480469 72.83289063 -5.62695312 72.36109375 -5.0625 71.875 C-2.6790743 69.79020683 -2.04551848 69.13655543 -1 66 C-0.88237799 63.86908944 -0.8231306 61.73479475 -0.79467773 59.60083008 C-0.78477814 58.95665634 -0.77487854 58.3124826 -0.76467896 57.64878845 C-0.73312533 55.5224066 -0.70833095 53.39600242 -0.68359375 51.26953125 C-0.66301891 49.79407678 -0.6420223 48.31862814 -0.62062073 46.84318542 C-0.56545474 42.96180949 -0.51602138 39.08038085 -0.46777344 35.19891357 C-0.41751842 31.23737909 -0.36185324 27.27592106 -0.30664062 23.31445312 C-0.19912599 15.54303171 -0.09816623 7.77154615 0 0 Z " fill="#F6F6F6" transform="translate(416,256)"/>
<path d="M0 0 C2.67107083 21.78006909 2.67107083 21.78006909 -2.75610352 29.99075317 C-6.58022433 34.76194715 -11.03045456 38.85319345 -15.53125 42.97265625 C-17.12852526 44.52318075 -18.72028171 46.07940861 -20.3067627 47.64097595 C-24.45578727 51.69547728 -28.67415072 55.66920069 -32.91290283 59.6295166 C-37.24132498 63.70009398 -41.49802692 67.84427974 -45.76171875 71.98242188 C-54.10673838 80.06099209 -62.52704532 88.05586153 -71 96 C-74.63303084 94.30413874 -76.94549046 92.26199512 -79.75 89.375 C-80.54921875 88.55773437 -81.3484375 87.74046875 -82.171875 86.8984375 C-82.77515625 86.27195312 -83.3784375 85.64546875 -84 85 C-82.62860426 81.92637272 -81.06702101 79.81760455 -78.69114685 77.44390869 C-78.0082962 76.75686356 -77.32544556 76.06981842 -76.62190247 75.36195374 C-75.49893013 74.24741066 -75.49893013 74.24741066 -74.35327148 73.11035156 C-73.56454651 72.31972824 -72.77582153 71.52910492 -71.9631958 70.71452332 C-69.35402348 68.10164508 -66.73771866 65.49603828 -64.12109375 62.890625 C-62.30994345 61.08066646 -60.49916227 59.27033849 -58.68873596 57.45965576 C-54.89461582 53.66710005 -51.09727922 49.87780909 -47.29711914 46.09130859 C-42.89825715 41.70819946 -38.50467136 37.3198579 -34.11404556 32.92849946 C-29.89304521 28.70688983 -25.66914527 24.48819245 -21.44374275 20.27098846 C-19.64370438 18.4741433 -17.84428078 16.67668208 -16.04546928 14.8786087 C-13.53860148 12.37389586 -11.0284768 9.87249617 -8.51733398 7.37207031 C-7.76666153 6.62094467 -7.01598907 5.86981903 -6.24256897 5.09593201 C-5.56253815 4.42016617 -4.88250732 3.74440033 -4.18186951 3.04815674 C-3.58806708 2.45603016 -2.99426466 1.86390358 -2.38246822 1.25383377 C-1 0 -1 0 0 0 Z " fill="#F5F5F5" transform="translate(400,292)"/>
<path d="M0 0 C6.23663668 2.93802493 12.71549843 6.45542195 17 12 C18.83375512 17.69944357 18.65554046 23.08237009 18.47583008 29.01611328 C18.47215767 30.72199725 18.47423213 32.42790172 18.48158264 34.1337738 C18.48529623 38.74023202 18.4091638 43.3422435 18.31812119 47.94767237 C18.23656301 52.76939674 18.22919541 57.59123599 18.21379089 62.4135437 C18.1734682 71.53380026 18.06690884 80.65201839 17.93624753 89.77137935 C17.79067553 100.15806541 17.71939876 110.54485155 17.65420687 120.93230462 C17.51851299 142.28933858 17.29002212 163.64454062 17 185 C14.36 185 11.72 185 9 185 C8.99945523 184.1645506 8.99891047 183.3291012 8.99834919 182.46833515 C8.98338601 162.14590209 8.94095795 141.82368852 8.86790943 121.50137806 C8.83324699 111.67366361 8.80790226 101.8460896 8.80444336 92.01831055 C8.80140521 83.45302954 8.78093486 74.88799858 8.73947543 66.32281417 C8.71813012 61.78696971 8.70555262 57.25148086 8.71384621 52.71558571 C8.72137675 48.44643059 8.70560478 44.17799661 8.67193985 39.90897369 C8.66369445 38.34207726 8.66397097 36.77510927 8.67340279 35.20821953 C8.68501184 33.0677564 8.66593255 30.92966188 8.63923645 28.78938293 C8.63647107 27.59197385 8.63370569 26.39456476 8.63085651 25.16087055 C7.56814676 19.83622402 3.48773022 17.13863838 -0.8125 14.1875 C-2.3903125 13.1046875 -2.3903125 13.1046875 -4 12 C-3.33501617 7.61110675 -1.81242323 4.0188515 0 0 Z " fill="#F5F5F5" transform="translate(415,55)"/>
<path d="M0 0 C5.67476113 1.96434039 9.31400331 5.62800662 12 11 C12.59057744 16.67862925 12.29370905 21.16922672 9 26 C4.99653611 30.03627917 1.41408246 32.12458106 -4.3125 32.3125 C-8.94226662 32.25237316 -11.4369151 31.06591027 -15 28 C-19.48735572 23.14880463 -20.37944978 19.62737243 -20.28125 13.0234375 C-19.64340739 8.4345143 -16.71392374 5.62893282 -13.375 2.6875 C-8.92314854 -0.47565762 -5.3540278 -0.48837416 0 0 Z " fill="#F1F1F1" transform="translate(388,32)"/>
<path d="M0 0 C4.0887282 1.62217175 6.82878682 4.55693387 9.859375 7.62890625 C10.40861633 8.1786058 10.95785767 8.72830536 11.52374268 9.29466248 C12.67917585 10.45310855 13.83218584 11.61397594 14.98291016 12.77709961 C16.75238381 14.56490851 18.52980856 16.34450704 20.30859375 18.12304688 C21.43016208 19.24952769 22.55127219 20.37646495 23.671875 21.50390625 C24.20617126 22.03931534 24.74046753 22.57472443 25.29095459 23.12635803 C29 26.88393251 29 26.88393251 29 28 C10.52 28 -7.96 28 -27 28 C-23.31446673 23.70021119 -19.80357082 19.68132655 -15.8203125 15.72265625 C-14.8921875 14.79775391 -13.9640625 13.87285156 -13.0078125 12.91992188 C-12.04693091 11.96739151 -11.08599274 11.01491822 -10.125 10.0625 C-9.14039081 9.08291763 -8.156014 8.10310163 -7.171875 7.12304688 C-4.78351797 4.74639748 -2.39284788 2.37212644 0 0 Z " fill="#F6F6F6" transform="translate(295,380)"/>
<path d="M0 0 C11.31599662 0.22631993 21.86152398 6.86661525 29.8125 14.54296875 C36.4916529 22.0450887 42 30.77085472 42 41 C34.08 41 26.16 41 18 41 C17.62875 38.97875 17.2575 36.9575 16.875 34.875 C14.36438322 23.30280825 9.92384952 13.49242338 2.63671875 4.109375 C1 2 1 2 0 0 Z " fill="#F3F3F3" transform="translate(101,367)"/>
<path d="M0 0 C0 3 0 3 -2.5 5.6875 C-3.325 6.450625 -4.15 7.21375 -5 8 C-5.66 7.67 -6.32 7.34 -7 7 C-4.69 4.69 -2.38 2.38 0 0 Z " fill="#F0F0F0" transform="translate(354,385)"/>
</svg>
