<?xml version="1.0" standalone="no"?>
<!DOCTYPE svg PUBLIC "-//W3C//DTD SVG 20010904//EN"
 "http://www.w3.org/TR/2001/REC-SVG-20010904/DTD/svg10.dtd">
<svg version="1.0" xmlns="http://www.w3.org/2000/svg"
 width="256.000000pt" height="256.000000pt" viewBox="0 0 256.000000 256.000000"
 preserveAspectRatio="xMidYMid meet">

<g transform="translate(0.000000,256.000000) scale(0.100000,-0.100000)"
fill="#000000" stroke="none">
<path d="M1254 2392 c-6 -4 -38 -47 -71 -97 -83 -124 -155 -207 -204 -234 -39
-22 -49 -23 -158 -18 -64 3 -158 15 -209 26 -140 31 -153 18 -121 -122 12 -51
24 -144 26 -208 5 -109 4 -119 -18 -158 -27 -49 -121 -130 -241 -209 -129 -84
-129 -100 0 -184 120 -79 214 -160 241 -209 22 -39 23 -49 18 -158 -3 -64 -15
-158 -26 -209 -31 -140 -18 -153 122 -121 51 12 144 24 208 26 109 5 119 4
158 -18 49 -27 130 -121 209 -241 57 -88 77 -104 110 -94 9 4 43 45 74 94 79
120 160 214 209 241 39 22 49 23 158 18 64 -2 157 -14 208 -26 141 -32 154
-19 122 121 -12 51 -24 145 -26 209 -5 109 -4 119 18 158 27 49 121 130 241
209 88 57 104 77 94 110 -4 9 -45 43 -94 74 -120 79 -214 160 -241 209 -22 39
-23 49 -18 158 2 64 14 157 26 208 32 140 19 153 -121 122 -51 -11 -145 -23
-209 -26 -109 -5 -119 -4 -158 18 -49 27 -121 110 -204 234 -63 95 -73 105
-97 105 -8 0 -20 -4 -26 -8z m81 -224 c65 -93 153 -182 207 -209 59 -30 183
-36 312 -15 54 9 101 15 103 13 2 -2 -4 -49 -13 -103 -21 -129 -15 -253 15
-312 27 -54 116 -142 209 -207 39 -27 71 -52 71 -55 0 -3 -32 -27 -71 -55 -93
-65 -182 -153 -209 -207 -30 -59 -36 -183 -15 -312 9 -54 15 -101 13 -103 -2
-2 -49 4 -103 13 -129 21 -253 15 -312 -15 -54 -27 -142 -116 -207 -209 -27
-39 -52 -71 -55 -71 -3 0 -27 32 -55 71 -65 93 -153 182 -207 209 -59 30 -183
36 -312 15 -54 -9 -101 -15 -103 -13 -2 2 4 49 13 103 21 129 15 253 -15 312
-27 54 -116 142 -209 207 -39 28 -71 52 -71 55 0 3 32 28 71 55 93 65 182 153
209 207 30 59 36 183 15 312 -9 54 -15 101 -13 103 2 2 49 -4 103 -13 129 -21
253 -15 312 15 54 27 142 116 207 209 28 39 52 71 55 71 3 0 28 -32 55 -71z"/>
<path d="M1190 1860 c-214 -33 -404 -199 -472 -410 -29 -91 -29 -249 0 -340
59 -184 212 -335 397 -392 95 -29 243 -29 335 1 182 58 333 209 392 391 29 91
29 249 0 340 -89 276 -371 454 -652 410z m205 -115 c172 -45 305 -179 350
-352 65 -249 -94 -511 -350 -578 -250 -65 -513 94 -580 350 -89 342 238 669
580 580z"/>
</g>
</svg>
