<?xml version="1.0" encoding="utf-8"?>
<!-- Generator: Adobe Illustrator 25.0.1, SVG Export Plug-In . SVG Version: 6.00 Build 0)  -->
<svg version="1.1" id="Capa_1" xmlns="http://www.w3.org/2000/svg" xmlns:xlink="http://www.w3.org/1999/xlink" x="0px" y="0px"
	 viewBox="0 0 579 579" style="enable-background:new 0 0 579 579;" xml:space="preserve">
<g id="FPrEnc_1_">
	<g>
		<path d="M503.3,209.8c-0.1,0.6-0.3,1.2-0.4,1.8c-0.4,11.5-3,22.6-6.9,33.4c-13.9,39.2-47,69.4-87.3,79.9
			c-13,3.4-26.2,4.6-39.6,3.9c-8.5-0.5-16.9-1.8-25.1-4.1c-1.5-0.4-2.5-0.2-3.6,0.9c-23.2,23.6-46.5,47.1-69.8,70.7
			c-22.4,22.7-44.8,45.3-67.1,68c-6.9,6.9-13.7,13.9-20.6,20.8c-10.1,10-22.2,16-36.3,17.8c-28.7,3.8-56.1-12.6-66.5-38.9
			c-9.1-22.9-4.3-48.6,12.8-66.6c13.6-14.3,27.4-28.4,41.1-42.6c36-37.3,72.1-74.7,108.1-112c3.2-3.4,6.5-6.7,9.7-10.1
			c1-1,1.4-2,1-3.5c-10.8-49.6,9.1-100.8,50.5-130.2c16.4-11.6,34.5-18.9,54.3-21.9c5.4-0.8,10.8-1.2,16.2-1.3c0.7,0,1.4-0.2,2-0.3
			c0.4,0,0.8,0,1.3,0c0.6,0.1,1.2,0.3,1.8,0.3c7.4,0.1,14.7,0.9,22,2.3c7.3,1.4,14.5,3.5,21.4,6.2c7.4,3,11.3,10.6,9.5,18.4
			c-0.8,3.2-2.5,5.8-4.9,8.1c-19.4,19.3-38.7,38.7-58.1,58.1c-0.6,0.6-1.1,1.2-1.3,1.4c13.8,13.8,27.3,27.3,41.2,41.2
			c0.3-0.4,0.8-1.2,1.4-1.8c19.5-19.5,38.9-38.9,58.4-58.4c8.4-8.4,21.9-5.5,26.2,5.5c1,2.6,1.9,5.2,2.7,7.9
			c2.8,9.2,4.9,18.6,5.2,28.3c0,0.7,0.2,1.4,0.4,2C503.3,200,503.3,204.9,503.3,209.8z M385.6,107.8c-0.9-0.1-1.3-0.2-1.7-0.2
			c-8.2-0.7-16.3-0.2-24.4,1.3c-31.6,5.8-58.1,27.1-70.5,56.7c-8.7,20.9-9.8,42.3-3.4,64c2.1,7.1,0.8,13.1-4.5,18.4
			c-5.8,5.8-11.4,11.7-17,17.6C220.6,310.7,177,355.8,133.4,401c-5.9,6.1-11.8,12-17.5,18.2c-7.6,8.2-10.2,18-7.6,28.8
			c2.9,11.5,10.3,19.2,21.7,22.5c11.8,3.4,22.4,0.4,31.1-8.2c13.4-13.4,26.7-26.9,40-40.4c23.4-23.7,46.7-47.3,70.1-71
			c11.2-11.3,22.3-22.6,33.5-33.9c7.1-7.2,14.2-14.4,21.3-21.6c2.1-2.2,4.6-3.8,7.6-4.6c3.6-0.9,7-0.5,10.4,0.7
			c15.5,5.7,31.5,7.3,47.7,4.6c21.7-3.5,40.2-13.3,55.1-29.6c18.4-20.3,26.6-44.2,24.8-71.6c0-0.4-0.2-0.7-0.3-1.4
			c-0.8,0.8-1.4,1.3-2,1.9c-16.2,16.2-32.3,32.3-48.5,48.5c-0.6,0.6-1.2,1.2-1.8,1.7c-3.8,3.3-8.2,4.6-13.2,3.7
			c-3.5-0.6-6.4-2.3-8.9-4.8c-20.8-20.8-41.7-41.7-62.5-62.5c-0.3-0.3-0.7-0.7-1-1.1c-2.6-3-4-6.5-4-10.5c0-4.6,1.9-8.5,5.1-11.7
			c16.4-16.3,32.7-32.7,49.1-49.1C384.2,109.3,384.7,108.7,385.6,107.8z"/>
	</g>
</g>
</svg>
