<?xml version="1.0" encoding="utf-8"?>
<!-- Generator: Adobe Illustrator 25.0.1, SVG Export Plug-In . SVG Version: 6.00 Build 0)  -->
<svg version="1.1" id="Capa_1" xmlns="http://www.w3.org/2000/svg" xmlns:xlink="http://www.w3.org/1999/xlink" x="0px" y="0px"
	 viewBox="0 0 579 579" style="enable-background:new 0 0 579 579;" xml:space="preserve">
<g id="_x37_G0zGY_1_">
	<g>
		<path d="M112.3,279.3c-9.1,7.4-16,12.6-22.4,18.3c-6.3,5.6-13.3,8.3-19.4,1.7c-6.7-7.3-2.8-14.2,4.1-19.9
			c40.2-33,80.3-66.1,120.5-99.1c27.1-22.3,54.5-44.3,81.2-67c9.2-7.9,16.4-8.5,26-0.5c66.7,55.4,133.6,110.4,200.6,165.4
			c7,5.8,13,12.3,6.1,20.6c-6.9,8.3-14.6,3.6-21.3-2.4c-6-5.3-12.5-10.2-20.9-17c0,6.1,0,9.8,0,13.4c0,53.8,0,107.6,0,161.4
			c0,16.1-1.7,17.7-18.1,17.7c-105.8,0-211.7,0-317.5,0c-17.3,0-18.8-1.4-18.8-18.4c0-52.9,0-105.8,0-158.8
			C112.3,290.6,112.3,286.4,112.3,279.3z M219.4,448c0-43.5,0.2-85.5-0.1-127.5c-0.1-12,4.7-17.8,16.8-17.7
			c35.6,0.1,71.1,0.1,106.7,0c11.9,0,17.4,5.3,17.1,17.4c-0.4,18.2-0.1,36.4-0.1,54.6c0,24.2,0,48.3,0,72.9c28.4,0,55.4,0,82.6,0
			c0.4-1.9,1-3.1,1-4.3c0.1-59,0.2-117.9-0.2-176.9c0-4.2-3.5-9.4-7-12.3c-27.4-23.2-55.2-46.1-82.9-69
			c-21.2-17.5-42.6-34.9-63.7-52.2c-49.1,40.6-97.1,80.4-145.4,119.8c-6,4.9-8.5,9.5-8.4,17.3c0.3,55.5,0.2,111,0.2,166.5
			c0,3.7,0.5,7.5,0.7,11.4C164.3,448,191.1,448,219.4,448z M335.3,448.2c0-40.6,0-80.9,0-121.2c-31.2,0-61.3,0-91.5,0
			c0,40.9,0,80.9,0,121.2C274.6,448.2,304.5,448.2,335.3,448.2z"/>
	</g>
</g>
</svg>
