<?xml version="1.0" standalone="no"?>
<!DOCTYPE svg PUBLIC "-//W3C//DTD SVG 20010904//EN"
 "http://www.w3.org/TR/2001/REC-SVG-20010904/DTD/svg10.dtd">
<svg version="1.0" xmlns="http://www.w3.org/2000/svg"
 width="1593.000000pt" height="586.000000pt" viewBox="0 0 1593.000000 586.000000"
 preserveAspectRatio="xMidYMid meet">

<g transform="translate(0.000000,586.000000) scale(0.100000,-0.100000)"
fill="#ffffff" stroke="#ffffff">
<path d="M10320 5809 c-25 -11 -58 -32 -73 -47 -57 -54 -62 -72 -67 -267 l-5
-180 -95 -6 c-111 -7 -135 -16 -189 -64 -53 -48 -75 -106 -69 -188 5 -77 36
-132 100 -174 37 -25 53 -29 147 -33 l106 -5 5 -515 c6 -569 2 -540 72 -607
45 -44 96 -63 168 -63 72 0 123 19 168 63 70 67 66 38 72 607 l5 515 105 5
c111 5 147 18 197 72 56 60 73 180 35 254 -46 89 -113 126 -238 132 l-92 4 -4
172 c-4 150 -7 176 -26 212 -59 115 -205 166 -322 113z"/>
<path d="M210 5811 c-80 -26 -152 -94 -170 -160 -7 -27 -10 -319 -8 -934 l3
-894 30 -49 c64 -103 216 -144 330 -90 56 26 107 75 127 121 9 22 14 135 18
430 l5 400 31 55 c44 80 107 120 186 120 71 0 123 -24 167 -77 56 -68 59 -92
64 -509 6 -419 7 -426 70 -493 97 -101 295 -94 384 13 51 62 53 81 53 505 0
451 -5 492 -75 636 -91 187 -250 326 -440 385 -117 37 -340 38 -431 3 -12 -4
-14 23 -14 162 0 91 -5 186 -11 209 -24 96 -118 167 -227 172 -37 2 -78 0 -92
-5z"/>
<path d="M3747 5806 c-65 -24 -115 -65 -142 -119 l-25 -51 0 -895 0 -896 24
-50 c65 -140 261 -180 393 -79 l33 25 78 -29 c114 -44 186 -56 315 -49 155 7
255 42 382 132 151 107 264 276 316 470 30 113 30 326 0 440 -72 274 -277 498
-526 575 -134 42 -330 37 -457 -10 l-46 -17 -4 196 c-3 179 -5 200 -25 238
-57 106 -200 160 -316 119z m738 -990 c128 -59 211 -234 185 -389 -42 -260
-289 -384 -459 -231 -26 24 -63 71 -81 106 -29 53 -35 76 -38 147 -6 107 10
175 57 249 84 130 214 175 336 118z"/>
<path d="M5581 5803 c-55 -20 -124 -87 -142 -139 -20 -57 -21 -1790 -1 -1847
54 -151 264 -206 403 -105 l40 29 63 -25 c98 -39 182 -56 287 -56 361 0 664
262 745 643 18 88 18 276 -1 365 -66 316 -308 569 -600 628 -111 23 -264 15
-363 -18 -39 -14 -74 -22 -77 -20 -3 3 -5 86 -5 185 0 113 -5 195 -12 221 -15
48 -68 104 -123 130 -53 26 -158 30 -214 9z m773 -997 c50 -29 114 -107 141
-171 26 -61 31 -189 11 -261 -67 -235 -311 -322 -463 -166 -112 115 -141 300
-71 448 30 65 96 134 153 161 68 33 162 28 229 -11z"/>
<path d="M7391 5303 c-97 -35 -171 -152 -157 -249 3 -24 98 -322 211 -662 112
-340 207 -631 211 -647 4 -23 -10 -70 -55 -187 -48 -125 -61 -169 -61 -213 0
-138 102 -239 240 -239 47 0 76 6 105 21 85 45 97 66 240 434 73 189 235 593
360 898 211 516 227 558 227 617 1 113 -72 204 -187 235 -86 24 -194 -12 -243
-80 -15 -21 -92 -200 -172 -399 -80 -199 -147 -362 -150 -362 -3 0 -64 162
-134 360 -71 198 -140 375 -153 395 -53 79 -183 115 -282 78z"/>
<path d="M13102 5308 c-18 -6 -53 -29 -78 -51 -74 -65 -102 -141 -83 -225 5
-26 102 -326 216 -667 113 -341 205 -629 205 -640 0 -11 -28 -92 -62 -180 -57
-145 -62 -165 -57 -216 9 -107 73 -186 173 -215 103 -30 218 14 269 100 13 23
84 196 158 386 74 190 232 584 352 875 212 513 219 532 219 600 1 59 -3 77
-27 118 -71 121 -232 162 -348 88 -59 -37 -78 -75 -239 -478 -72 -183 -136
-333 -140 -333 -4 0 -10 10 -13 23 -7 35 -235 664 -253 700 -23 46 -53 76 -99
99 -46 24 -145 32 -193 16z"/>
<path d="M2375 5294 c-38 -8 -113 -36 -165 -61 -82 -40 -107 -58 -190 -142
-100 -101 -143 -165 -190 -281 -80 -194 -79 -458 0 -658 96 -238 301 -421 537
-477 109 -26 300 -17 406 20 170 59 344 215 431 386 59 118 85 215 92 349 14
250 -60 464 -221 638 -182 196 -442 280 -700 226z m272 -482 c56 -29 128 -112
154 -180 18 -44 23 -78 23 -152 1 -83 -3 -102 -27 -154 -59 -128 -149 -196
-255 -196 -107 0 -179 41 -240 137 -129 203 -42 495 168 564 40 13 133 3 177
-19z"/>
<path d="M11810 5295 c-167 -34 -317 -128 -432 -273 -139 -175 -199 -392 -177
-634 27 -289 193 -535 447 -662 176 -89 449 -89 624 0 165 83 292 214 372 385
105 222 108 512 6 735 -56 124 -169 261 -274 333 -161 111 -374 155 -566 116z
m235 -472 c63 -21 132 -89 171 -168 27 -56 29 -68 29 -175 0 -112 -1 -117 -34
-178 -40 -74 -117 -147 -169 -162 -58 -16 -142 -12 -187 9 -53 25 -117 93
-152 161 -26 51 -28 64 -28 170 0 107 2 119 29 175 74 150 205 215 341 168z"/>
<path d="M15145 5286 c-304 -59 -509 -315 -466 -580 16 -94 59 -171 141 -251
87 -83 176 -126 405 -195 178 -53 218 -72 223 -109 8 -52 -62 -81 -192 -81
-109 0 -171 26 -244 101 -73 77 -115 99 -188 99 -117 0 -186 -59 -192 -165
-10 -159 131 -329 338 -407 82 -31 90 -32 245 -33 182 0 232 10 375 78 112 53
224 161 272 263 31 64 33 76 33 174 0 93 -3 112 -27 162 -71 153 -198 228
-528 315 -74 19 -148 42 -163 50 -58 29 -61 100 -5 129 55 28 128 15 256 -45
109 -52 116 -53 180 -49 113 8 182 60 203 151 27 123 -50 238 -216 324 -44 23
-109 49 -144 58 -89 23 -221 27 -306 11z"/>
</g>
</svg>
